<svg width="32" height="36" viewBox="0 0 32 36" fill="none" xmlns="http://www.w3.org/2000/svg">
<g id="Frame 1410113611" filter="url(#filter0_d_1_10895)">
<circle id="Ellipse 826" cx="15.5" cy="7.5" r="5.5" fill="url(#paint0_linear_1_10895)"/>
<path id="Vector 31" opacity="0.5" d="M10.4719 11C11.3093 5.90732 16.86 3.63171 20 2.9L16.2286 2C14.5714 2.14634 11.6583 3.8 11.2396 3.8C10.4546 4.23902 9.36243 6.5 10.4719 11Z" fill="white"/>
<path id="Rectangle 3463703" d="M6.5 22.8696C6.5 19.6279 9.12789 17 12.3696 17H19.6304C22.8721 17 25.5 19.6279 25.5 22.8696C25.5 24.5985 24.0985 26 22.3696 26H9.63044C7.90154 26 6.5 24.5985 6.5 22.8696Z" fill="url(#paint1_linear_1_10895)"/>
<path id="Vector 30" opacity="0.5" d="M7.27313 26C8.61129 20.3415 17.4819 17.813 22.5 17L16.4729 16C13.8245 16.1626 9.16909 18 8.50001 18C7.24549 18.4878 5.50002 21 7.27313 26Z" fill="white"/>
<g id="Group 9" filter="url(#filter1_di_1_10895)">
<circle id="Ellipse 825" cx="15.5" cy="7.5" r="5.5" stroke="url(#paint2_linear_1_10895)" stroke-width="2"/>
<path id="Rectangle 3463702" d="M7.40309 19.7298C8.19589 17.9857 9.83731 16.7781 11.7384 16.5405C14.5685 16.1867 17.4315 16.1867 20.2616 16.5405C22.1627 16.7781 23.8041 17.9857 24.5969 19.7298L25.7895 22.3534C26.6196 24.1797 25.3813 26.2754 23.3811 26.4293L20.2104 26.6732C17.4076 26.8888 14.5924 26.8888 11.7896 26.6732L8.61893 26.4293C6.61871 26.2754 5.38039 24.1797 6.21053 22.3534L7.40309 19.7298Z" stroke="url(#paint3_linear_1_10895)" stroke-width="2"/>
</g>
</g>
<defs>
<filter id="filter0_d_1_10895" x="-1" y="1" width="34" height="35" filterUnits="userSpaceOnUse" color-interpolation-filters="sRGB">
<feFlood flood-opacity="0" result="BackgroundImageFix"/>
<feColorMatrix in="SourceAlpha" type="matrix" values="0 0 0 0 0 0 0 0 0 0 0 0 0 0 0 0 0 0 127 0" result="hardAlpha"/>
<feOffset dy="4"/>
<feGaussianBlur stdDeviation="2"/>
<feComposite in2="hardAlpha" operator="out"/>
<feColorMatrix type="matrix" values="0 0 0 0 0 0 0 0 0 0 0 0 0 0 0 0 0 0 0.15 0"/>
<feBlend mode="normal" in2="BackgroundImageFix" result="effect1_dropShadow_1_10895"/>
<feBlend mode="normal" in="SourceGraphic" in2="effect1_dropShadow_1_10895" result="shape"/>
</filter>
<filter id="filter1_di_1_10895" x="4.94806" y="0.7" width="22.1039" height="27.1349" filterUnits="userSpaceOnUse" color-interpolation-filters="sRGB">
<feFlood flood-opacity="0" result="BackgroundImageFix"/>
<feColorMatrix in="SourceAlpha" type="matrix" values="0 0 0 0 0 0 0 0 0 0 0 0 0 0 0 0 0 0 127 0" result="hardAlpha"/>
<feOffset dy="-0.3"/>
<feComposite in2="hardAlpha" operator="out"/>
<feColorMatrix type="matrix" values="0 0 0 0 1 0 0 0 0 1 0 0 0 0 1 0 0 0 1 0"/>
<feBlend mode="normal" in2="BackgroundImageFix" result="effect1_dropShadow_1_10895"/>
<feBlend mode="normal" in="SourceGraphic" in2="effect1_dropShadow_1_10895" result="shape"/>
<feColorMatrix in="SourceAlpha" type="matrix" values="0 0 0 0 0 0 0 0 0 0 0 0 0 0 0 0 0 0 127 0" result="hardAlpha"/>
<feOffset dy="-0.5"/>
<feComposite in2="hardAlpha" operator="arithmetic" k2="-1" k3="1"/>
<feColorMatrix type="matrix" values="0 0 0 0 0 0 0 0 0 0 0 0 0 0 0 0 0 0 0.25 0"/>
<feBlend mode="normal" in2="shape" result="effect2_innerShadow_1_10895"/>
</filter>
<linearGradient id="paint0_linear_1_10895" x1="15.5" y1="2" x2="15.5" y2="13" gradientUnits="userSpaceOnUse">
<stop stop-color="#F4F8F9"/>
<stop offset="0.83" stop-color="#92CFEC"/>
<stop offset="1" stop-color="#35DCE8"/>
</linearGradient>
<linearGradient id="paint1_linear_1_10895" x1="16" y1="17" x2="16" y2="26" gradientUnits="userSpaceOnUse">
<stop stop-color="#F4F8F9"/>
<stop offset="0.83" stop-color="#92CFEC"/>
<stop offset="1" stop-color="#35DCE8"/>
</linearGradient>
<linearGradient id="paint2_linear_1_10895" x1="15.5" y1="1" x2="15.5" y2="14" gradientUnits="userSpaceOnUse">
<stop stop-color="#A57C15"/>
<stop offset="0.255" stop-color="#FFD568"/>
<stop offset="0.5" stop-color="#FFE9B0"/>
<stop offset="0.77" stop-color="#FFD874"/>
<stop offset="1" stop-color="#AE810E"/>
</linearGradient>
<linearGradient id="paint3_linear_1_10895" x1="16" y1="15" x2="16" y2="28" gradientUnits="userSpaceOnUse">
<stop stop-color="#A57C15"/>
<stop offset="0.255" stop-color="#FFD568"/>
<stop offset="0.5" stop-color="#FFE9B0"/>
<stop offset="0.77" stop-color="#FFD874"/>
<stop offset="1" stop-color="#AE810E"/>
</linearGradient>
</defs>
</svg>
