<svg width="28" height="25" viewBox="0 0 28 25" fill="none" xmlns="http://www.w3.org/2000/svg">
<path fill-rule="evenodd" clip-rule="evenodd" d="M2 0C0.89543 0 0 0.895431 0 2V22.0729C0 23.1775 0.89543 24.0729 2 24.0729H10.577V22.3355C10.577 21.1323 11.1186 19.9931 12.0516 19.2335L25 8.69176V2C25 0.895431 24.1046 0 23 0H2ZM6.41015 6.71802H18.5896V9.5172H6.41015V6.71802ZM14.7435 12.8762H6.41015V15.6754H14.7435V12.8762Z" fill="url(#paint0_linear_20_1402)"/>
<path fill-rule="evenodd" clip-rule="evenodd" d="M27.39 14.4323L24.9508 12L23.6704 13.1583L26.1095 15.5906L27.39 14.4323ZM25.683 15.9767L23.2438 13.5444L14.2807 21.6528L14.2198 24.0273L16.7199 24.0851L25.683 15.9767Z" fill="url(#paint1_linear_20_1402)"/>
<defs>
<linearGradient id="paint0_linear_20_1402" x1="12.5" y1="0" x2="12.5" y2="24.0729" gradientUnits="userSpaceOnUse">
<stop stop-color="#E0C07F"/>
<stop offset="1" stop-color="#947034"/>
</linearGradient>
<linearGradient id="paint1_linear_20_1402" x1="26.1704" y1="13.2161" x2="14.8064" y2="24.6125" gradientUnits="userSpaceOnUse">
<stop stop-color="#E0C07F"/>
<stop offset="1" stop-color="#947034"/>
</linearGradient>
</defs>
</svg>
