<svg width="33" height="34" viewBox="0 0 33 34" fill="none" xmlns="http://www.w3.org/2000/svg">
<g opacity="0.5" filter="url(#filter0_d_1_10668)">
<g filter="url(#filter1_di_1_10668)">
<path d="M7 2L5.5 5L5 23H6.5L10.5 21.5L13 23L16 25L19 24L21.5 21.5H23L26.5 23H28V15.5V4L25 2H9.5H7Z" fill="url(#paint0_linear_1_10668)"/>
<path fill-rule="evenodd" clip-rule="evenodd" d="M10.6216 6.24921C10.0693 6.24921 9.62158 6.69692 9.62158 7.24921C9.62158 7.80149 10.0693 8.24921 10.6216 8.24921H22.3932C22.9454 8.24921 23.3932 7.80149 23.3932 7.24921C23.3932 6.69692 22.9454 6.24921 22.3932 6.24921H10.6216ZM12.0931 11.2486C11.5408 11.2486 11.0931 11.6963 11.0931 12.2486C11.0931 12.8009 11.5408 13.2486 12.0931 13.2486H20.9217C21.474 13.2486 21.9217 12.8009 21.9217 12.2486C21.9217 11.6963 21.474 11.2486 20.9217 11.2486H12.0931Z" fill="url(#paint1_linear_1_10668)"/>
<path opacity="0.5" d="M5.49999 22.5C7.09999 10.9 19.5 4.66667 25.5 3L16.5 2C13.3333 2.33333 6.79999 3 5.99999 3C4.49999 4 5.49999 11 5.49999 22.5Z" fill="white"/>
<path d="M12.6085 22.6487L12.6077 22.6478C12.0307 21.9944 11.3285 21.4186 10.4302 21.356C9.52179 21.2927 8.74641 21.7752 8.08015 22.3822C6.8493 23.4983 6.05748 23.5604 5.74328 23.4455C5.49386 23.3542 5 22.9161 5 21.3725V7.29921C5 4.78723 5.36799 3.62857 6.05904 3.00115C6.78507 2.34196 8.1462 2 10.9452 2H22.0694C24.8689 2 26.2292 2.34213 26.9531 3.00056C27.6416 3.62678 28.0072 4.78414 27.9999 7.29629V7.29921V21.385C27.9999 22.9243 27.5085 23.3614 27.2615 23.4519C26.9506 23.5659 26.1596 23.506 24.92 22.3825C24.2537 21.7753 23.4782 21.2927 22.5697 21.356C21.6714 21.4186 20.9691 21.9944 20.3922 22.6478L20.3914 22.6487L18.9091 24.3317C18.9086 24.3322 18.9081 24.3327 18.9076 24.3333C18.7791 24.4765 18.5051 24.6533 18.0456 24.7918C17.5997 24.9262 17.0591 25 16.4999 25C15.9408 25 15.4001 24.9262 14.9543 24.7918C14.4948 24.6533 14.2208 24.4765 14.0923 24.3333C14.0918 24.3327 14.0913 24.3322 14.0908 24.3317L12.6085 22.6487Z" stroke="url(#paint2_linear_1_10668)" stroke-width="2" stroke-linecap="round" stroke-linejoin="round"/>
</g>
</g>
<defs>
<filter id="filter0_d_1_10668" x="0" y="1" width="33" height="33" filterUnits="userSpaceOnUse" color-interpolation-filters="sRGB">
<feFlood flood-opacity="0" result="BackgroundImageFix"/>
<feColorMatrix in="SourceAlpha" type="matrix" values="0 0 0 0 0 0 0 0 0 0 0 0 0 0 0 0 0 0 127 0" result="hardAlpha"/>
<feOffset dy="4"/>
<feGaussianBlur stdDeviation="2"/>
<feComposite in2="hardAlpha" operator="out"/>
<feColorMatrix type="matrix" values="0 0 0 0 0 0 0 0 0 0 0 0 0 0 0 0 0 0 0.15 0"/>
<feBlend mode="normal" in2="BackgroundImageFix" result="effect1_dropShadow_1_10668"/>
<feBlend mode="normal" in="SourceGraphic" in2="effect1_dropShadow_1_10668" result="shape"/>
</filter>
<filter id="filter1_di_1_10668" x="4" y="0.7" width="25" height="25.3" filterUnits="userSpaceOnUse" color-interpolation-filters="sRGB">
<feFlood flood-opacity="0" result="BackgroundImageFix"/>
<feColorMatrix in="SourceAlpha" type="matrix" values="0 0 0 0 0 0 0 0 0 0 0 0 0 0 0 0 0 0 127 0" result="hardAlpha"/>
<feOffset dy="-0.3"/>
<feComposite in2="hardAlpha" operator="out"/>
<feColorMatrix type="matrix" values="0 0 0 0 1 0 0 0 0 1 0 0 0 0 1 0 0 0 1 0"/>
<feBlend mode="normal" in2="BackgroundImageFix" result="effect1_dropShadow_1_10668"/>
<feBlend mode="normal" in="SourceGraphic" in2="effect1_dropShadow_1_10668" result="shape"/>
<feColorMatrix in="SourceAlpha" type="matrix" values="0 0 0 0 0 0 0 0 0 0 0 0 0 0 0 0 0 0 127 0" result="hardAlpha"/>
<feOffset dy="-0.5"/>
<feComposite in2="hardAlpha" operator="arithmetic" k2="-1" k3="1"/>
<feColorMatrix type="matrix" values="0 0 0 0 0 0 0 0 0 0 0 0 0 0 0 0 0 0 0.25 0"/>
<feBlend mode="normal" in2="shape" result="effect2_innerShadow_1_10668"/>
</filter>
<linearGradient id="paint0_linear_1_10668" x1="16.5" y1="2" x2="16.5" y2="25" gradientUnits="userSpaceOnUse">
<stop stop-color="#F4F8F9"/>
<stop offset="0.83" stop-color="#92CFEC"/>
<stop offset="1" stop-color="#35DCE8"/>
</linearGradient>
<linearGradient id="paint1_linear_1_10668" x1="16.5074" y1="6.24921" x2="16.5074" y2="13.2486" gradientUnits="userSpaceOnUse">
<stop stop-color="#9C4A00"/>
<stop offset="0.49909" stop-color="#F2B61B"/>
<stop offset="1" stop-color="#E1770A"/>
</linearGradient>
<linearGradient id="paint2_linear_1_10668" x1="16.5" y1="1" x2="16.5" y2="26" gradientUnits="userSpaceOnUse">
<stop stop-color="#A57C15"/>
<stop offset="0.255" stop-color="#FFD568"/>
<stop offset="0.5" stop-color="#FFE9B0"/>
<stop offset="0.77" stop-color="#FFD874"/>
<stop offset="1" stop-color="#AE810E"/>
</linearGradient>
</defs>
</svg>
