<svg width="34" height="34" viewBox="0 0 34 34" fill="none" xmlns="http://www.w3.org/2000/svg">
<g id="Frame 1410113611" filter="url(#filter0_d_1_10686)">
<path id="Vector" d="M20.9 25H13.1C9.94863 25 8.00281 24.3636 6.81961 23.1804C5.6364 21.9972 5 20.0514 5 16.9V9.1C5 5.94863 5.6364 4.00281 6.81961 2.81961C8.00281 1.6364 9.94863 1 13.1 1H20.9C24.0514 1 25.9972 1.6364 27.1804 2.81961C28.3636 4.00281 29 5.94863 29 9.1V16.9C29 20.0514 28.3636 21.9972 27.1804 23.1804C25.9972 24.3636 24.0514 25 20.9 25Z" fill="url(#paint0_linear_1_10686)" stroke="url(#paint1_linear_1_10686)" stroke-width="2" stroke-linecap="round" stroke-linejoin="round"/>
<g id="Union" filter="url(#filter1_d_1_10686)">
<path fill-rule="evenodd" clip-rule="evenodd" d="M21.6562 6.0046C18.5712 9.32273 14.5961 11.4677 10.1018 12.5883C9.56593 12.7219 9.23983 13.2646 9.37345 13.8005C9.50707 14.3364 10.0498 14.6625 10.5857 14.5289C15.1825 13.3827 19.3432 11.215 22.6564 7.85186V8.8006C22.6564 9.35288 23.1041 9.8006 23.6564 9.8006C24.2087 9.8006 24.6564 9.35288 24.6564 8.8006V5.0046C24.6564 4.50494 24.29 4.09088 23.8112 4.0165C23.7549 4.00768 23.6982 4.00376 23.6418 4.0046H19.8474C19.2951 4.0046 18.8474 4.45231 18.8474 5.0046C18.8474 5.55688 19.2951 6.0046 19.8474 6.0046H21.6562ZM24.656 12.9094C24.656 12.3571 24.2083 11.9094 23.656 11.9094C23.1037 11.9094 22.656 12.3571 22.656 12.9094V20.9954C22.656 21.5477 23.1037 21.9954 23.656 21.9954C24.2083 21.9954 24.656 21.5477 24.656 20.9954V12.9094ZM16.9999 14.6129C17.5522 14.6129 17.9999 15.0606 17.9999 15.6129V20.9949C17.9999 21.5471 17.5522 21.9949 16.9999 21.9949C16.4476 21.9949 15.9999 21.5471 15.9999 20.9949V15.6129C15.9999 15.0606 16.4476 14.6129 16.9999 14.6129ZM10.3437 17.3043C10.896 17.3043 11.3437 17.752 11.3437 18.3043V20.9953C11.3437 21.5475 10.896 21.9953 10.3437 21.9953C9.79146 21.9953 9.34374 21.5475 9.34374 20.9953V18.3043C9.34374 17.752 9.79146 17.3043 10.3437 17.3043Z" fill="url(#paint2_linear_1_10686)"/>
</g>
<path id="Vector 30" opacity="0.5" d="M5.49999 21.5C7.09999 9.9 19.5 3.66667 25.5 2L16.5 1C13.3333 1.33333 6.79999 2 5.99999 2C4.49999 3 5.49999 10 5.49999 21.5Z" fill="white"/>
<path id="Vector_2" d="M20.9 25H13.1C9.94863 25 8.00281 24.3636 6.81961 23.1804C5.6364 21.9972 5 20.0514 5 16.9V9.1C5 5.94863 5.6364 4.00281 6.81961 2.81961C8.00281 1.6364 9.94863 1 13.1 1H20.9C24.0514 1 25.9972 1.6364 27.1804 2.81961C28.3636 4.00281 29 5.94863 29 9.1V16.9C29 20.0514 28.3636 21.9972 27.1804 23.1804C25.9972 24.3636 24.0514 25 20.9 25Z" stroke="url(#paint3_linear_1_10686)" stroke-width="2" stroke-linecap="round" stroke-linejoin="round"/>
</g>
<defs>
<filter id="filter0_d_1_10686" x="0" y="0" width="34" height="34" filterUnits="userSpaceOnUse" color-interpolation-filters="sRGB">
<feFlood flood-opacity="0" result="BackgroundImageFix"/>
<feColorMatrix in="SourceAlpha" type="matrix" values="0 0 0 0 0 0 0 0 0 0 0 0 0 0 0 0 0 0 127 0" result="hardAlpha"/>
<feOffset dy="4"/>
<feGaussianBlur stdDeviation="2"/>
<feComposite in2="hardAlpha" operator="out"/>
<feColorMatrix type="matrix" values="0 0 0 0 0 0 0 0 0 0 0 0 0 0 0 0 0 0 0.15 0"/>
<feBlend mode="normal" in2="BackgroundImageFix" result="effect1_dropShadow_1_10686"/>
<feBlend mode="normal" in="SourceGraphic" in2="effect1_dropShadow_1_10686" result="shape"/>
</filter>
<filter id="filter1_d_1_10686" x="9.34351" y="4.00449" width="15.3129" height="18.2909" filterUnits="userSpaceOnUse" color-interpolation-filters="sRGB">
<feFlood flood-opacity="0" result="BackgroundImageFix"/>
<feColorMatrix in="SourceAlpha" type="matrix" values="0 0 0 0 0 0 0 0 0 0 0 0 0 0 0 0 0 0 127 0" result="hardAlpha"/>
<feOffset dy="0.3"/>
<feComposite in2="hardAlpha" operator="out"/>
<feColorMatrix type="matrix" values="0 0 0 0 0 0 0 0 0 0 0 0 0 0 0 0 0 0 0.25 0"/>
<feBlend mode="normal" in2="BackgroundImageFix" result="effect1_dropShadow_1_10686"/>
<feBlend mode="normal" in="SourceGraphic" in2="effect1_dropShadow_1_10686" result="shape"/>
</filter>
<linearGradient id="paint0_linear_1_10686" x1="17" y1="0" x2="17" y2="26" gradientUnits="userSpaceOnUse">
<stop stop-color="#F4F8F9"/>
<stop offset="0.83" stop-color="#92CFEC"/>
<stop offset="1" stop-color="#35DCE8"/>
</linearGradient>
<linearGradient id="paint1_linear_1_10686" x1="17" y1="0" x2="17" y2="26" gradientUnits="userSpaceOnUse">
<stop stop-color="#A57C15"/>
<stop offset="0.255" stop-color="#FFD568"/>
<stop offset="0.5" stop-color="#FFE9B0"/>
<stop offset="0.77" stop-color="#FFD874"/>
<stop offset="1" stop-color="#AE810E"/>
</linearGradient>
<linearGradient id="paint2_linear_1_10686" x1="17" y1="4.00449" x2="17" y2="21.9953" gradientUnits="userSpaceOnUse">
<stop stop-color="#9C4A00"/>
<stop offset="0.49909" stop-color="#F2B61B"/>
<stop offset="1" stop-color="#E1770A"/>
</linearGradient>
<linearGradient id="paint3_linear_1_10686" x1="17" y1="0" x2="17" y2="26" gradientUnits="userSpaceOnUse">
<stop stop-color="#A57C15"/>
<stop offset="0.255" stop-color="#FFD568"/>
<stop offset="0.5" stop-color="#FFE9B0"/>
<stop offset="0.77" stop-color="#FFD874"/>
<stop offset="1" stop-color="#AE810E"/>
</linearGradient>
</defs>
</svg>
