<svg width="25" height="25" viewBox="0 0 25 25" fill="none" xmlns="http://www.w3.org/2000/svg">
<path fill-rule="evenodd" clip-rule="evenodd" d="M5 0C2.23858 0 0 2.23858 0 5V18.3497L7.23995 9.4062C7.86705 8.63155 8.9688 8.43683 9.82343 8.94961L15.209 12.1809C16.0495 12.6852 17.1316 12.5061 17.7647 11.7578L24.7659 3.48369C24.1238 1.46356 22.2328 0 20 0H5ZM25 7.60753L18.3408 15.126C17.6947 15.8555 16.6168 16.0131 15.7889 15.4992L10.6543 12.3122C9.80265 11.7836 8.69127 11.9671 8.05469 12.7413L0.425078 22.0206C1.20129 23.7755 2.95764 25 5 25H20C22.7614 25 25 22.7614 25 20V7.60753Z" fill="url(#paint0_linear_20_1455)"/>
<defs>
<linearGradient id="paint0_linear_20_1455" x1="12.5" y1="0" x2="12.5" y2="25" gradientUnits="userSpaceOnUse">
<stop stop-color="#E0C07F"/>
<stop offset="1" stop-color="#947034"/>
</linearGradient>
</defs>
</svg>
