<svg width="25" height="25" viewBox="0 0 25 25" fill="none" xmlns="http://www.w3.org/2000/svg">
<g id="Earn">
<g id="Group">
<g id="Group_2">
<path id="Vector" d="M7.26565 2.98831C7.7051 3.28128 8.18362 3.6719 8.55471 4.16995C8.92581 4.67776 9.6094 5.32229 9.6094 5.32229H15.1758C15.1758 5.32229 15.7617 4.75589 16.1231 4.30667C16.4746 3.85745 16.7774 3.42776 17.4512 3.02737C18.0078 2.69534 18.3008 1.87503 17.5781 1.60159C16.9531 1.36721 16.6992 1.84573 15.9766 1.8555C15.2637 1.86526 15.166 1.30862 14.4629 1.06448C13.7598 0.810574 13.3789 1.03518 12.959 1.40628C12.5391 1.78714 12.3828 1.80667 12.3828 1.80667C12.3828 1.80667 11.8848 1.53323 11.6114 1.25003C11.3379 0.957058 10.6348 0.859402 10.166 1.13284C9.57034 1.4844 9.44338 1.75784 8.9551 1.8555C8.39846 1.97268 7.51956 1.33792 7.03127 1.70901C6.54299 2.0801 6.8262 2.69534 7.26565 2.98831Z" fill="url(#paint0_linear_20_1499)"/>
<path id="Vector_2" d="M18.6524 9.89258C16.5821 8.26172 15.459 6.70898 15.459 6.70898H9.38479C9.38479 6.70898 8.22268 8.33008 6.35745 9.84375C4.21878 11.582 2.49026 14.3652 3.14456 17.6953C3.73049 20.6641 6.73831 24.0234 12.4512 24.0234C17.9785 24.0234 21.2207 21.2402 21.836 17.8418C22.5879 13.6816 20.4102 11.2793 18.6524 9.89258ZM16.2793 15.5762L11.2207 21.3184C10.7227 21.8848 10.4102 21.7383 10.5176 20.9961L11.1719 16.3965H9.04299C8.29104 16.3965 8.08596 15.9473 8.58401 15.3809L13.6426 9.63867C14.1406 9.07227 14.4531 9.21875 14.3457 9.96094L13.6914 14.5605H15.8203C16.5723 14.5605 16.7774 15.0195 16.2793 15.5762Z" fill="url(#paint1_linear_20_1499)"/>
</g>
</g>
</g>
<defs>
<linearGradient id="paint0_linear_20_1499" x1="12.391" y1="0.956177" x2="12.391" y2="5.32229" gradientUnits="userSpaceOnUse">
<stop stop-color="#E0C07F"/>
<stop offset="1" stop-color="#947034"/>
</linearGradient>
<linearGradient id="paint1_linear_20_1499" x1="12.4965" y1="6.70898" x2="12.4965" y2="24.0234" gradientUnits="userSpaceOnUse">
<stop stop-color="#E0C07F"/>
<stop offset="1" stop-color="#947034"/>
</linearGradient>
</defs>
</svg>
