<svg xmlns="http://www.w3.org/2000/svg" width="24" height="25" viewBox="0 0 24 25" fill="none">
<path fill-rule="evenodd" clip-rule="evenodd" d="M6 0C2.68681 0 0 2.68376 0 5.99799V6.03093V6.06389V6.09689V6.12991V6.16297V6.19605V6.22917V6.26231V6.29548V6.32869V6.36191V6.39517V6.42846V6.46177V6.49511V6.52848V6.56187V6.59529V6.62874V6.66221V6.69571V6.72923V6.76278V6.79636V6.82996V6.86358V6.89723V6.93091V6.9646V6.99832V7.03207V7.06583V7.09962V7.13344V7.16727V7.20113V7.23501V7.26891V7.30283V7.33677V7.37074V7.40472V7.43873V7.47275V7.5068V7.54086V7.57495V7.60905V7.64317V7.67731V7.71147V7.74565V7.77985V7.81406V7.84829V7.88254V7.91681V7.95109V7.98538V8.0197V8.05403V8.08838V8.12274V8.15711V8.19151V8.22591V8.26033V8.29477V8.32922V8.36368V8.39816V8.43265V8.46715V8.50166V8.53619V8.57073V8.60528V8.63985V8.67442V8.70901V8.7436V8.77821V8.81283V8.84746V8.8821V8.91675V8.95141V8.98607V9.02075V9.05544V9.09013V9.12483V9.15954V9.19426V9.22898V9.26372V9.29846V9.3332V9.36796V9.40272V9.43748V9.47225V9.50703V9.54181V9.5766V9.61139V9.64619V9.68099V9.71579V9.7506V9.78541V9.82023V9.85505V9.88987V9.9247V9.95952V9.99435V10.0292V10.064V10.0988V10.1337V10.1685V10.2034V10.2382V10.273V10.3079V10.3427V10.3775V10.4124V10.4472V10.482V10.5169V10.5517V10.5865V10.6213V10.6562V10.691V10.7258V10.7606V10.7954V10.8302V10.865V10.8998V10.9346V10.9694V11.0042V11.0389V11.0737V11.1085V11.1432V11.178V11.2127V11.2475V11.2822V11.3169V11.3517V11.3864V11.4211V11.4558V11.4904V11.5251V11.5598V11.5944V11.6291V11.6637V11.6983V11.733V11.7676V11.8022V11.8368V11.8713V11.9059V11.9404V11.975V12.0095V12.044V12.0785V12.113V12.1475V12.1819V12.2164V12.2508V12.2852V12.3196V12.354V12.3884V12.4228V12.4571V12.4914V12.5258V12.56V12.5943V12.6286V12.6628V12.6971V12.7313V12.7655V12.7996V12.8338V12.8679V12.9021V12.9362V12.9702V13.0043V13.0383V13.0724V13.1064V13.1404V13.1743V13.2083V13.2422V13.2761V13.3099V13.3438V13.3776V13.4114V13.4452V13.479V13.5127V13.5465V13.5801V13.6138V13.6475V13.6811V13.7147V13.7482V13.7818V13.8153V13.8488V13.8823V13.9157V13.9491V13.9825V14.0159V14.0492V14.0825V14.1158V14.1491V14.1823V14.2155V14.2487V14.2818V14.3149V14.348V14.381V14.4141V14.4471V14.48V14.5129V14.5458V14.5787V14.6116V14.6444V14.6771V14.7099V14.7426V14.7753V14.8079V14.8405V14.8731V14.9056V14.9381V14.9706V15.0031V15.0355V15.0678V15.1002V15.1325V15.1647V15.197V15.2292V15.2613V15.2935V15.3255V15.3576V15.3896V15.4216V15.4535V15.4854V15.5173V15.5491V15.5809V15.6126V15.6443V15.676V15.7076V15.7392V15.7707V15.8022V15.8337V15.8651V15.8965V15.9278V15.9591V15.9904V16.0216V16.0528V16.0839V16.115V16.146V16.177V16.208V16.2389V16.2697V16.3006V16.3313V16.3621V16.3928V16.4234V16.454V16.4845V16.515V16.5455V16.5759V16.6063V16.6366V16.6669V16.6971V16.7273V16.7574V16.7875V16.8175V16.8475V16.8774V16.9073V16.9371V16.9669V16.9966V17.0263V17.0559V17.0855V17.115V17.1445V17.1739V17.2033V17.2326V17.2619V17.2911V17.3203V17.3494V17.3784V17.4074V17.4364V17.4653V17.4941V17.5229V17.5516V17.5803V17.6089V17.6375V17.666V17.6944V17.7228V17.7512V17.7795V17.8077V17.8359V17.864V17.892V17.92V17.9479V17.9758V18.0036V18.0314V18.0591V18.0867V18.1143V18.1418V18.1693V18.1967V18.224V18.2513V18.2785V18.3057V18.3328V18.3598V18.3868V18.4137V18.4405V18.4673V18.494V18.5207V18.5473V18.5738V18.6003V18.6267V18.653V18.6793V18.7055V18.7316V18.7577V18.7837V18.8096V18.8355V18.8613V18.887V18.9127V18.9383V18.9638V18.9893V19.0147V19.04V19.0653V19.0905V19.1156V19.1407V19.1657V19.1906V19.2154V19.2402V19.2649V19.2895V19.3141V19.3386V19.363V19.3873V19.4116V19.4358V19.4599V19.484V19.508V19.5319V19.5557V19.5795V19.6032V19.6268V19.6503V19.6738V19.6972V19.7205V19.7437V19.7669V19.79V19.813V19.8359V19.8588V19.8815V19.9042V19.9269V19.9494V19.9719V19.9943V20.0166V20.0388V20.061V20.083V20.105V20.1269V20.1488V20.1705V20.1922V20.2138V20.2353V20.2567V20.2781V20.2993V20.3205V20.3416V20.3626V20.3836V20.4044V20.4252V20.4459V20.4665V20.487V20.5074V20.5278V20.548V20.5682V20.5883V20.6083V20.6282V20.6481V20.6678V20.6875V20.707V20.7265V20.7459V20.7652V20.7845V20.8036V20.8227V20.8416V20.8605V20.8793V20.898V20.9166V20.9351V20.9535V20.9718V20.9901V21.0082V21.0263V21.0443V21.0621V21.0799V21.0976V21.1152V21.1327V21.1502V21.1675V21.1847V21.2019V21.2189V21.2358V21.2527V21.2695V21.2861V21.3027V21.3192V21.3356V21.3518C0 21.8572 0.0634914 22.4578 0.334377 23.0326C0.626917 23.6533 1.03525 24.1935 1.63312 24.4454C2.28156 24.7186 2.89036 24.5486 3.3207 24.2971C3.73258 24.0564 4.06324 23.7014 4.30407 23.3894C4.55277 23.0673 4.75465 22.7268 4.89443 22.4472C5.02464 22.1868 5.1365 22.0941 5.1782 22.0673C5.20517 22.0499 5.21014 22.0529 5.21133 22.0536L5.21159 22.0537C5.22667 22.0557 5.28382 22.0696 5.3682 22.1391C5.45156 22.2078 5.53843 22.3129 5.60557 22.4472C5.98258 23.2012 6.47545 23.7714 7.0713 24.1254C7.67504 24.484 8.32711 24.5854 8.93924 24.4874C10.1182 24.2988 11.0906 23.3904 11.4487 22.3162C11.5296 22.0735 11.6173 21.986 11.6432 21.9651L11.6474 21.9617C11.6662 21.9654 11.7179 21.9806 11.7951 22.0412C11.8895 22.1154 12.0047 22.2455 12.1056 22.4472C12.589 23.414 13.1722 24.1854 13.9768 24.4228C14.9138 24.6992 15.6114 24.1352 15.9557 23.7684C16.8063 22.8621 17 21.6281 17 20.6667V12H20C22.2091 12 24 10.2091 24 8V5C24 2.23858 21.7614 0 19 0H17H16H15H6ZM15 2H6C3.79034 2 2 3.78938 2 5.99799V6.03093V6.06389V6.09689V6.12991V6.16297V6.19605V6.22917V6.26231V6.29548V6.32869V6.36191V6.39517V6.42846V6.46177V6.49511V6.52848V6.56187V6.59529V6.62874V6.66221V6.69571V6.72923V6.76278V6.79636V6.82996V6.86358V6.89723V6.93091V6.9646V6.99832V7.03207V7.06583V7.09962V7.13344V7.16727V7.20113V7.23501V7.26891V7.30283V7.33677V7.37074V7.40472V7.43873V7.47275V7.5068V7.54086V7.57495V7.60905V7.64317V7.67731V7.71147V7.74565V7.77985V7.81406V7.84829V7.88254V7.91681V7.95109V7.98538V8.0197V8.05403V8.08838V8.12274V8.15711V8.19151V8.22591V8.26033V8.29477V8.32922V8.36368V8.39816V8.43265V8.46715V8.50166V8.53619V8.57073V8.60528V8.63985V8.67442V8.70901V8.7436V8.77821V8.81283V8.84746V8.8821V8.91675V8.95141V8.98607V9.02075V9.05544V9.09013V9.12483V9.15954V9.19426V9.22898V9.26372V9.29846V9.3332V9.36796V9.40272V9.43748V9.47225V9.50703V9.54181V9.5766V9.61139V9.64619V9.68099V9.71579V9.7506V9.78541V9.82023V9.85505V9.88987V9.9247V9.95952V9.99435V10.0292V10.064V10.0988V10.1337V10.1685V10.2034V10.2382V10.273V10.3079V10.3427V10.3775V10.4124V10.4472V10.482V10.5169V10.5517V10.5865V10.6213V10.6562V10.691V10.7258V10.7606V10.7954V10.8302V10.865V10.8998V10.9346V10.9694V11.0042V11.0389V11.0737V11.1085V11.1432V11.178V11.2127V11.2475V11.2822V11.3169V11.3517V11.3864V11.4211V11.4558V11.4904V11.5251V11.5598V11.5944V11.6291V11.6637V11.6983V11.733V11.7676V11.8022V11.8368V11.8713V11.9059V11.9404V11.975V12.0095V12.044V12.0785V12.113V12.1475V12.1819V12.2164V12.2508V12.2852V12.3196V12.354V12.3884V12.4228V12.4571V12.4914V12.5258V12.56V12.5943V12.6286V12.6628V12.6971V12.7313V12.7655V12.7996V12.8338V12.8679V12.9021V12.9362V12.9702V13.0043V13.0383V13.0724V13.1064V13.1404V13.1743V13.2083V13.2422V13.2761V13.3099V13.3438V13.3776V13.4114V13.4452V13.479V13.5127V13.5465V13.5801V13.6138V13.6475V13.6811V13.7147V13.7482V13.7818V13.8153V13.8488V13.8823V13.9157V13.9491V13.9825V14.0159V14.0492V14.0825V14.1158V14.1491V14.1823V14.2155V14.2487V14.2818V14.3149V14.348V14.381V14.4141V14.4471V14.48V14.5129V14.5458V14.5787V14.6116V14.6444V14.6771V14.7099V14.7426V14.7753V14.8079V14.8405V14.8731V14.9056V14.9381V14.9706V15.0031V15.0355V15.0678V15.1002V15.1325V15.1647V15.197V15.2292V15.2613V15.2935V15.3255V15.3576V15.3896V15.4216V15.4535V15.4854V15.5173V15.5491V15.5809V15.6126V15.6443V15.676V15.7076V15.7392V15.7707V15.8022V15.8337V15.8651V15.8965V15.9278V15.9591V15.9904V16.0216V16.0528V16.0839V16.115V16.146V16.177V16.208V16.2389V16.2697V16.3006V16.3313V16.3621V16.3928V16.4234V16.454V16.4845V16.515V16.5455V16.5759V16.6063V16.6366V16.6669V16.6971V16.7273V16.7574V16.7875V16.8175V16.8475V16.8774V16.9073V16.9371V16.9669V16.9966V17.0263V17.0559V17.0855V17.115V17.1445V17.1739V17.2033V17.2326V17.2619V17.2911V17.3203V17.3494V17.3784V17.4074V17.4364V17.4653V17.4941V17.5229V17.5516V17.5803V17.6089V17.6375V17.666V17.6944V17.7228V17.7512V17.7795V17.8077V17.8359V17.864V17.892V17.92V17.9479V17.9758V18.0036V18.0314V18.0591V18.0867V18.1143V18.1418V18.1693V18.1967V18.224V18.2513V18.2785V18.3057V18.3328V18.3598V18.3868V18.4137V18.4405V18.4673V18.494V18.5207V18.5473V18.5738V18.6003V18.6267V18.653V18.6793V18.7055V18.7316V18.7577V18.7837V18.8096V18.8355V18.8613V18.887V18.9127V18.9383V18.9638V18.9893V19.0147V19.04V19.0653V19.0905V19.1156V19.1407V19.1657V19.1906V19.2154V19.2402V19.2649V19.2895V19.3141V19.3386V19.363V19.3873V19.4116V19.4358V19.4599V19.484V19.508V19.5319V19.5557V19.5795V19.6032V19.6268V19.6503V19.6738V19.6972V19.7205V19.7437V19.7669V19.79V19.813V19.8359V19.8588V19.8815V19.9042V19.9269V19.9494V19.9719V19.9943V20.0166V20.0388V20.061V20.083V20.105V20.1269V20.1488V20.1705V20.1922V20.2138V20.2353V20.2567V20.2781V20.2993V20.3205V20.3416V20.3626V20.3836V20.4044V20.4252V20.4459V20.4665V20.487V20.5074V20.5278V20.548V20.5682V20.5883V20.6083V20.6282V20.6481V20.6678V20.6875V20.707V20.7265V20.7459V20.7652V20.7845V20.8036V20.8227V20.8416V20.8605V20.8793V20.898V20.9166V20.9351V20.9535V20.9718V20.9901V21.0082V21.0263V21.0443V21.0621V21.0799V21.0976V21.1152V21.1327V21.1502V21.1675V21.1847V21.2019V21.2189V21.2358V21.2527V21.2695V21.2861V21.3027V21.3192V21.3356V21.3518C2 21.7063 2.04786 21.9769 2.14354 22.18C2.23312 22.37 2.30776 22.4796 2.35756 22.5405C2.45231 22.4731 2.57929 22.3507 2.72096 22.1672C2.87918 21.9623 3.01458 21.7348 3.10557 21.5528C3.60572 20.5525 4.45443 19.9351 5.47591 20.0713C6.36971 20.1904 7.04581 20.8556 7.39443 21.5528C7.64242 22.0488 7.89955 22.2911 8.09277 22.4059C8.27808 22.516 8.45414 22.5396 8.62326 22.5126C9.00682 22.4512 9.40939 22.1096 9.55132 21.6838C9.89508 20.6525 10.6859 19.8995 11.7601 19.9642C12.7165 20.0218 13.4781 20.7202 13.8944 21.5528C14.1053 21.9745 14.2813 22.2295 14.4123 22.3761C14.4319 22.3981 14.4497 22.4167 14.4655 22.4324C14.4754 22.4226 14.486 22.4118 14.4974 22.3997C14.8313 22.0439 15 21.4361 15 20.6667V12V11V2ZM17 2V10H20C21.1046 10 22 9.10457 22 8V5C22 3.34315 20.6569 2 19 2H17Z" fill="#645A6F"/>
<rect x="5" y="8" width="2" height="2" fill="#645A6F"/>
<rect x="5" y="12" width="2" height="2" fill="#645A6F"/>
<rect x="8" y="8" width="5" height="2" fill="#645A6F"/>
<rect x="8" y="12" width="5" height="2" fill="#645A6F"/>
</svg>