<svg xmlns="http://www.w3.org/2000/svg" width="23" height="24" viewBox="0 0 23 24" fill="none">
  <path fill-rule="evenodd" clip-rule="evenodd" d="M5.5 0C2.4627 0 0 2.46017 0 5.49799V5.53093V5.56389V5.59689V5.62991V5.66297V5.69605V5.72917V5.76231V5.79548V5.82869V5.86191V5.89517V5.92846V5.96177V5.99511V6.02848V6.06187V6.09529V6.12874V6.16221V6.19571V6.22923V6.26278V6.29636V6.32996V6.36358V6.39723V6.43091V6.4646V6.49832V6.53207V6.56583V6.59962V6.63344V6.66727V6.70113V6.73501V6.76891V6.80283V6.83677V6.87074V6.90472V6.93873V6.97275V7.0068V7.04086V7.07495V7.10905V7.14317V7.17731V7.21147V7.24565V7.27985V7.31406V7.34829V7.38254V7.41681V7.45109V7.48538V7.5197V7.55403V7.58838V7.62274V7.65711V7.69151V7.72591V7.76033V7.79477V7.82922V7.86368V7.89816V7.93265V7.96715V8.00166V8.03619V8.07073V8.10528V8.13985V8.17442V8.20901V8.2436V8.27821V8.31283V8.34746V8.3821V8.41675V8.45141V8.48607V8.52075V8.55544V8.59013V8.62483V8.65954V8.69426V8.72898V8.76372V8.79846V8.8332V8.86796V8.90272V8.93748V8.97225V9.00703V9.04181V9.0766V9.11139V9.14619V9.18099V9.21579V9.2506V9.28541V9.32023V9.35505V9.38987V9.4247V9.45952V9.49435V9.52918V9.56401V9.59885V9.63368V9.66852V9.70335V9.73819V9.77302V9.80786V9.8427V9.87753V9.91237V9.9472V9.98203V10.0169V10.0517V10.0865V10.1213V10.1562V10.191V10.2258V10.2606V10.2954V10.3302V10.365V10.3998V10.4346V10.4694V10.5042V10.5389V10.5737V10.6085V10.6432V10.678V10.7127V10.7475V10.7822V10.8169V10.8517V10.8864V10.9211V10.9558V10.9904V11.0251V11.0598V11.0944V11.1291V11.1637V11.1983V11.233V11.2676V11.3022V11.3368V11.3713V11.4059V11.4404V11.475V11.5095V11.544V11.5785V11.613V11.6475V11.6819V11.7164V11.7508V11.7852V11.8196V11.854V11.8884V11.9228V11.9571V11.9914V12.0258V12.06V12.0943V12.1286V12.1628V12.1971V12.2313V12.2655V12.2996V12.3338V12.3679V12.4021V12.4362V12.4702V12.5043V12.5383V12.5724V12.6064V12.6404V12.6743V12.7083V12.7422V12.7761V12.8099V12.8438V12.8776V12.9114V12.9452V12.979V13.0127V13.0465V13.0801V13.1138V13.1475V13.1811V13.2147V13.2482V13.2818V13.3153V13.3488V13.3823V13.4157V13.4491V13.4825V13.5159V13.5492V13.5825V13.6158V13.6491V13.6823V13.7155V13.7487V13.7818V13.8149V13.848V13.881V13.9141V13.9471V13.98V14.0129V14.0458V14.0787V14.1116V14.1444V14.1771V14.2099V14.2426V14.2753V14.3079V14.3405V14.3731V14.4056V14.4381V14.4706V14.5031V14.5355V14.5678V14.6002V14.6325V14.6647V14.697V14.7292V14.7613V14.7935V14.8255V14.8576V14.8896V14.9216V14.9535V14.9854V15.0173V15.0491V15.0809V15.1126V15.1443V15.176V15.2076V15.2392V15.2707V15.3022V15.3337V15.3651V15.3965V15.4278V15.4591V15.4904V15.5216V15.5528V15.5839V15.615V15.646V15.677V15.708V15.7389V15.7697V15.8006V15.8313V15.8621V15.8928V15.9234V15.954V15.9845V16.015V16.0455V16.0759V16.1063V16.1366V16.1669V16.1971V16.2273V16.2574V16.2875V16.3175V16.3475V16.3774V16.4073V16.4371V16.4669V16.4966V16.5263V16.5559V16.5855V16.615V16.6445V16.6739V16.7033V16.7326V16.7619V16.7911V16.8203V16.8494V16.8784V16.9074V16.9364V16.9653V16.9941V17.0229V17.0516V17.0803V17.1089V17.1375V17.166V17.1944V17.2228V17.2512V17.2795V17.3077V17.3359V17.364V17.392V17.42V17.4479V17.4758V17.5036V17.5314V17.5591V17.5867V17.6143V17.6418V17.6693V17.6967V17.724V17.7513V17.7785V17.8057V17.8328V17.8598V17.8868V17.9137V17.9405V17.9673V17.994V18.0207V18.0473V18.0738V18.1003V18.1267V18.153V18.1793V18.2055V18.2316V18.2577V18.2837V18.3096V18.3355V18.3613V18.387V18.4127V18.4383V18.4638V18.4893V18.5147V18.54V18.5653V18.5905V18.6156V18.6407V18.6657V18.6906V18.7154V18.7402V18.7649V18.7895V18.8141V18.8386V18.863V18.8873V18.9116V18.9358V18.9599V18.984V19.008V19.0319V19.0557V19.0795V19.1032V19.1268V19.1503V19.1738V19.1972V19.2205V19.2437V19.2669V19.29V19.313V19.3359V19.3588V19.3815V19.4042V19.4269V19.4494V19.4719V19.4943V19.5166V19.5388V19.561V19.583V19.605V19.6269V19.6488V19.6705V19.6922V19.7138V19.7353V19.7567V19.7781V19.7993V19.8205V19.8416V19.8626V19.8836V19.9044V19.9252V19.9459V19.9665V19.987V20.0074V20.0278V20.048V20.0682V20.0883V20.1083V20.1282V20.1481V20.1678V20.1875V20.207V20.2265V20.2459V20.2652V20.2845V20.3036V20.3227V20.3416V20.3605V20.3793V20.398V20.4166V20.4351V20.4535V20.4718V20.4901V20.5082V20.5263V20.5443V20.5621V20.5799V20.5976V20.6152V20.6327V20.6502V20.6675V20.6847V20.7019V20.7189V20.7358V20.7527V20.7695V20.7861V20.8027V20.8192V20.8356V20.8518C0 21.3195 0.0595832 21.8376 0.286666 22.3194C0.556173 22.8913 0.893816 23.302 1.32725 23.4847C1.78597 23.6779 2.2259 23.5656 2.5684 23.3655C2.90168 23.1707 3.18615 22.8716 3.40829 22.5839C3.63438 22.291 3.81963 21.9788 3.94721 21.7236C4.25964 21.0988 4.58528 21.0325 4.77767 21.0581C5.03389 21.0923 5.35209 21.3222 5.55279 21.7236C5.89754 22.4131 6.33148 22.9013 6.82666 23.1955C7.3258 23.492 7.85887 23.5739 8.36024 23.4937C9.34034 23.3369 10.1703 22.5702 10.4743 21.6581C10.6775 21.0488 10.982 20.9501 11.1699 20.9615C11.4166 20.9763 11.7858 21.1897 12.0528 21.7236C12.5288 22.6757 13.0304 23.2698 13.6183 23.4432C14.2723 23.6361 14.7822 23.2553 15.0911 22.9262C15.8126 22.1575 16 21.0801 16 20.1667V11H19.5C21.433 11 23 9.433 23 7.5V4.5C23 2.01472 20.9853 0 18.5 0H16H15.5H15H5.5ZM15 1H5.5C3.01446 1 1 3.01297 1 5.49799V5.53093V5.56389V5.59689V5.62991V5.66297V5.69605V5.72917V5.76231V5.79548V5.82869V5.86191V5.89517V5.92846V5.96177V5.99511V6.02848V6.06187V6.09529V6.12874V6.16221V6.19571V6.22923V6.26278V6.29636V6.32996V6.36358V6.39723V6.43091V6.4646V6.49832V6.53207V6.56583V6.59962V6.63344V6.66727V6.70113V6.73501V6.76891V6.80283V6.83677V6.87074V6.90472V6.93873V6.97275V7.0068V7.04086V7.07495V7.10905V7.14317V7.17731V7.21147V7.24565V7.27985V7.31406V7.34829V7.38254V7.41681V7.45109V7.48538V7.5197V7.55403V7.58838V7.62274V7.65711V7.69151V7.72591V7.76033V7.79477V7.82922V7.86368V7.89816V7.93265V7.96715V8.00166V8.03619V8.07073V8.10528V8.13985V8.17442V8.20901V8.2436V8.27821V8.31283V8.34746V8.3821V8.41675V8.45141V8.48607V8.52075V8.55544V8.59013V8.62483V8.65954V8.69426V8.72898V8.76372V8.79846V8.8332V8.86796V8.90272V8.93748V8.97225V9.00703V9.04181V9.0766V9.11139V9.14619V9.18099V9.21579V9.2506V9.28541V9.32023V9.35505V9.38987V9.4247V9.45952V9.49435V9.52918V9.56401V9.59885V9.63368V9.66852V9.70335V9.73819V9.77302V9.80786V9.8427V9.87753V9.91237V9.9472V9.98203V10.0169V10.0517V10.0865V10.1213V10.1562V10.191V10.2258V10.2606V10.2954V10.3302V10.365V10.3998V10.4346V10.4694V10.5042V10.5389V10.5737V10.6085V10.6432V10.678V10.7127V10.7475V10.7822V10.8169V10.8517V10.8864V10.9211V10.9558V10.9904V11.0251V11.0598V11.0944V11.1291V11.1637V11.1983V11.233V11.2676V11.3022V11.3368V11.3713V11.4059V11.4404V11.475V11.5095V11.544V11.5785V11.613V11.6475V11.6819V11.7164V11.7508V11.7852V11.8196V11.854V11.8884V11.9228V11.9571V11.9914V12.0258V12.06V12.0943V12.1286V12.1628V12.1971V12.2313V12.2655V12.2996V12.3338V12.3679V12.4021V12.4362V12.4702V12.5043V12.5383V12.5724V12.6064V12.6404V12.6743V12.7083V12.7422V12.7761V12.8099V12.8438V12.8776V12.9114V12.9452V12.979V13.0127V13.0465V13.0801V13.1138V13.1475V13.1811V13.2147V13.2482V13.2818V13.3153V13.3488V13.3823V13.4157V13.4491V13.4825V13.5159V13.5492V13.5825V13.6158V13.6491V13.6823V13.7155V13.7487V13.7818V13.8149V13.848V13.881V13.9141V13.9471V13.98V14.0129V14.0458V14.0787V14.1116V14.1444V14.1771V14.2099V14.2426V14.2753V14.3079V14.3405V14.3731V14.4056V14.4381V14.4706V14.5031V14.5355V14.5678V14.6002V14.6325V14.6647V14.697V14.7292V14.7613V14.7935V14.8255V14.8576V14.8896V14.9216V14.9535V14.9854V15.0173V15.0491V15.0809V15.1126V15.1443V15.176V15.2076V15.2392V15.2707V15.3022V15.3337V15.3651V15.3965V15.4278V15.4591V15.4904V15.5216V15.5528V15.5839V15.615V15.646V15.677V15.708V15.7389V15.7697V15.8006V15.8313V15.8621V15.8928V15.9234V15.954V15.9845V16.015V16.0455V16.0759V16.1063V16.1366V16.1669V16.1971V16.2273V16.2574V16.2875V16.3175V16.3475V16.3774V16.4073V16.4371V16.4669V16.4966V16.5263V16.5559V16.5855V16.615V16.6445V16.6739V16.7033V16.7326V16.7619V16.7911V16.8203V16.8494V16.8784V16.9074V16.9364V16.9653V16.9941V17.0229V17.0516V17.0803V17.1089V17.1375V17.166V17.1944V17.2228V17.2512V17.2795V17.3077V17.3359V17.364V17.392V17.42V17.4479V17.4758V17.5036V17.5314V17.5591V17.5867V17.6143V17.6418V17.6693V17.6967V17.724V17.7513V17.7785V17.8057V17.8328V17.8598V17.8868V17.9137V17.9405V17.9673V17.994V18.0207V18.0473V18.0738V18.1003V18.1267V18.153V18.1793V18.2055V18.2316V18.2577V18.2837V18.3096V18.3355V18.3613V18.387V18.4127V18.4383V18.4638V18.4893V18.5147V18.54V18.5653V18.5905V18.6156V18.6407V18.6657V18.6906V18.7154V18.7402V18.7649V18.7895V18.8141V18.8386V18.863V18.8873V18.9116V18.9358V18.9599V18.984V19.008V19.0319V19.0557V19.0795V19.1032V19.1268V19.1503V19.1738V19.1972V19.2205V19.2437V19.2669V19.29V19.313V19.3359V19.3588V19.3815V19.4042V19.4269V19.4494V19.4719V19.4943V19.5166V19.5388V19.561V19.583V19.605V19.6269V19.6488V19.6705V19.6922V19.7138V19.7353V19.7567V19.7781V19.7993V19.8205V19.8416V19.8626V19.8836V19.9044V19.9252V19.9459V19.9665V19.987V20.0074V20.0278V20.048V20.0682V20.0883V20.1083V20.1282V20.1481V20.1678V20.1875V20.207V20.2265V20.2459V20.2652V20.2845V20.3036V20.3227V20.3416V20.3605V20.3793V20.398V20.4166V20.4351V20.4535V20.4718V20.4901V20.5082V20.5263V20.5443V20.5621V20.5799V20.5976V20.6152V20.6327V20.6502V20.6675V20.6847V20.7019V20.7189V20.7358V20.7527V20.7695V20.7861V20.8027V20.8192V20.8356V20.8518C1 21.244 1.05177 21.5972 1.19125 21.8931C1.41468 22.3672 1.61095 22.5191 1.71552 22.5631C1.79481 22.5965 1.89699 22.5996 2.06382 22.5021C2.23987 22.3992 2.43196 22.2121 2.61674 21.9728C2.79758 21.7385 2.9496 21.4828 3.05279 21.2764C3.49036 20.4012 4.16472 19.9675 4.90983 20.0669C5.59111 20.1577 6.14791 20.6778 6.44721 21.2764C6.72746 21.8369 7.04352 22.1612 7.3374 22.3358C7.62732 22.508 7.92238 22.5511 8.20226 22.5063C8.78466 22.4131 9.32969 21.9298 9.52566 21.3419C9.82254 20.4512 10.4513 19.9164 11.23 19.9633C11.9499 20.0067 12.5807 20.5433 12.9472 21.2764C13.4086 22.1992 13.7469 22.4385 13.9012 22.484C13.9894 22.51 14.1239 22.4954 14.3619 22.2418C14.8251 21.7484 15 20.9841 15 20.1667V11V10.5V1ZM16 1V10H19.5C20.8807 10 22 8.88071 22 7.5V4.5C22 2.567 20.433 1 18.5 1H16Z" fill="#226764"/>
  <rect x="4.5" y="7.5" width="2" height="2" fill="#226764"/>
  <rect x="4.5" y="11.5" width="2" height="2" fill="#226764"/>
  <rect x="7.5" y="7.5" width="5" height="2" fill="#226764"/>
  <rect x="7.5" y="11.5" width="5" height="2" fill="#226764"/>
</svg>