<svg xmlns="http://www.w3.org/2000/svg" width="18" height="18" viewBox="0 0 18 18" fill="none">
  <path fill-rule="evenodd" clip-rule="evenodd" d="M18 9C18 13.9706 13.9706 18 9 18C4.02944 18 0 13.9706 0 9C0 4.02944 4.02944 0 9 0C13.9706 0 18 4.02944 18 9ZM16.1053 8.99999C16.1053 12.9241 12.9241 16.1053 8.99999 16.1053C5.07586 16.1053 1.89473 12.9241 1.89473 8.99999C1.89473 5.07586 5.07586 1.89473 8.99999 1.89473C12.9241 1.89473 16.1053 5.07586 16.1053 8.99999ZM9 13.5C11.4853 13.5 13.5 11.4853 13.5 9C13.5 6.51472 11.4853 4.5 9 4.5C6.51472 4.5 4.5 6.51472 4.5 9C4.5 11.4853 6.51472 13.5 9 13.5Z" fill="url(#paint0_linear_1_6180)"/>
  <defs>
    <linearGradient id="paint0_linear_1_6180" x1="9" y1="0" x2="9" y2="18" gradientUnits="userSpaceOnUse">
      <stop stop-color="#E0C07F"/>
      <stop offset="1" stop-color="#947034"/>
    </linearGradient>
  </defs>
</svg>