<svg width="16" height="17" viewBox="0 0 16 17" fill="none" xmlns="http://www.w3.org/2000/svg">
<g id="Group 7">
<circle id="Ellipse 826" cx="7.99961" cy="8.99985" r="6.4" fill="#1B191A"/>
<g id="Subtract" filter="url(#filter0_di_1_15011)">
<path fill-rule="evenodd" clip-rule="evenodd" d="M8 17C12.4183 17 16 13.4183 16 9C16 4.58172 12.4183 1 8 1C3.58172 1 0 4.58172 0 9C0 13.4183 3.58172 17 8 17ZM8.00017 14.6002C11.093 14.6002 13.6002 12.093 13.6002 9.00017C13.6002 5.90738 11.093 3.40017 8.00017 3.40017C4.90738 3.40017 2.40017 5.90738 2.40017 9.00017C2.40017 12.093 4.90738 14.6002 8.00017 14.6002Z" fill="url(#paint0_linear_1_15011)"/>
</g>
<circle id="Ellipse 828" cx="7.99998" cy="9.00004" r="3.52" fill="url(#paint1_radial_1_15011)"/>
</g>
<defs>
<filter id="filter0_di_1_15011" x="0" y="0.8" width="16" height="16.2" filterUnits="userSpaceOnUse" color-interpolation-filters="sRGB">
<feFlood flood-opacity="0" result="BackgroundImageFix"/>
<feColorMatrix in="SourceAlpha" type="matrix" values="0 0 0 0 0 0 0 0 0 0 0 0 0 0 0 0 0 0 127 0" result="hardAlpha"/>
<feOffset dy="-0.2"/>
<feComposite in2="hardAlpha" operator="out"/>
<feColorMatrix type="matrix" values="0 0 0 0 1 0 0 0 0 1 0 0 0 0 1 0 0 0 1 0"/>
<feBlend mode="normal" in2="BackgroundImageFix" result="effect1_dropShadow_1_15011"/>
<feBlend mode="normal" in="SourceGraphic" in2="effect1_dropShadow_1_15011" result="shape"/>
<feColorMatrix in="SourceAlpha" type="matrix" values="0 0 0 0 0 0 0 0 0 0 0 0 0 0 0 0 0 0 127 0" result="hardAlpha"/>
<feOffset dy="-0.5"/>
<feComposite in2="hardAlpha" operator="arithmetic" k2="-1" k3="1"/>
<feColorMatrix type="matrix" values="0 0 0 0 0 0 0 0 0 0 0 0 0 0 0 0 0 0 0.25 0"/>
<feBlend mode="normal" in2="shape" result="effect2_innerShadow_1_15011"/>
</filter>
<linearGradient id="paint0_linear_1_15011" x1="8" y1="1" x2="8" y2="17" gradientUnits="userSpaceOnUse">
<stop stop-color="#A57C15"/>
<stop offset="0.255" stop-color="#FFD568"/>
<stop offset="0.5" stop-color="#FFE9B0"/>
<stop offset="0.77" stop-color="#FFD874"/>
<stop offset="1" stop-color="#AE810E"/>
</linearGradient>
<radialGradient id="paint1_radial_1_15011" cx="0" cy="0" r="1" gradientUnits="userSpaceOnUse" gradientTransform="translate(7.99998 9.00004) rotate(90) scale(3.52)">
<stop stop-color="#FFE9B0"/>
<stop offset="0.645" stop-color="#FFD874"/>
<stop offset="1" stop-color="#AE810E"/>
</radialGradient>
</defs>
</svg>
