<svg xmlns="http://www.w3.org/2000/svg" width="26" height="26" viewBox="0 0 26 26" fill="none">
  <g filter="url(#filter0_d_1_12726)">
    <path d="M4.33672 4.73281C3.78828 4.79375 3.28047 4.84453 3.22969 4.84453C3.11797 4.84453 3.11797 4.85469 3.11797 5.57578V6.29687H2.07187H1.01562V13.2742V20.2516L5.97187 20.2617L10.918 20.2719L11.9641 20.8203L13 21.3687L14.0461 20.8203L15.082 20.2719L20.018 20.2516L24.9539 20.2312L24.9641 13.2641L24.9742 6.30703H23.918H22.8617V5.58594C22.8617 5.0375 22.8516 4.86484 22.8008 4.86484C22.7703 4.86484 22.232 4.81406 21.6125 4.74297C20.3836 4.62109 19.1547 4.59062 18.2203 4.67187C16.6359 4.81406 14.8688 5.27109 13.4875 5.88047L12.9797 6.11406L12.4719 5.89062C11.8219 5.59609 11.0094 5.32187 10.2375 5.11875C8.86641 4.76328 8.16563 4.67187 6.58125 4.65156C5.50469 4.62109 5.22031 4.6414 4.33672 4.73281ZM7.56641 6.5C8.99844 6.63203 10.5727 7.03828 11.7203 7.55625L12.0555 7.70859V13.2539V18.7891L11.6391 18.6062C10.6438 18.1797 9.48594 17.8547 8.2875 17.6617C7.72891 17.5703 7.43437 17.5602 6.30703 17.55H4.98672V12.0148V6.5L5.28125 6.47968C5.96172 6.43906 7.06875 6.44922 7.56641 6.5ZM20.5766 6.46953L21.0031 6.5V12.0352V17.5805L20.0586 17.55C18.6875 17.5094 17.55 17.6312 16.2805 17.9562C15.6609 18.1086 14.7672 18.4133 14.2797 18.6367L13.9344 18.7891V13.2437V7.69844L14.2797 7.54609C15.3867 7.03828 17.0117 6.62187 18.3625 6.48984C18.8906 6.43906 20.018 6.43906 20.5766 6.46953ZM3.11797 13.2742V19.175H2.57969H2.04141V13.2742V7.38359H2.57969H3.11797V13.2742ZM23.9586 13.2742V19.175H23.4203H22.882V13.2742V7.38359H23.4203H23.9586V13.2742Z" fill="url(#paint0_linear_1_12726)"/>
  </g>
  <defs>
    <filter id="filter0_d_1_12726" x="1.01562" y="4.62653" width="23.9585" height="17.2422" filterUnits="userSpaceOnUse" color-interpolation-filters="sRGB">
      <feFlood flood-opacity="0" result="BackgroundImageFix"/>
      <feColorMatrix in="SourceAlpha" type="matrix" values="0 0 0 0 0 0 0 0 0 0 0 0 0 0 0 0 0 0 127 0" result="hardAlpha"/>
      <feOffset dy="0.5"/>
      <feComposite in2="hardAlpha" operator="out"/>
      <feColorMatrix type="matrix" values="0 0 0 0 0 0 0 0 0 0 0 0 0 0 0 0 0 0 0.25 0"/>
      <feBlend mode="normal" in2="BackgroundImageFix" result="effect1_dropShadow_1_12726"/>
      <feBlend mode="normal" in="SourceGraphic" in2="effect1_dropShadow_1_12726" result="shape"/>
    </filter>
    <linearGradient id="paint0_linear_1_12726" x1="12.9949" y1="4.62653" x2="12.9949" y2="21.3687" gradientUnits="userSpaceOnUse">
      <stop stop-color="#A57C15"/>
      <stop offset="0.255" stop-color="#FFD568"/>
      <stop offset="0.5" stop-color="#FFE9B0"/>
      <stop offset="0.77" stop-color="#FFD874"/>
      <stop offset="1" stop-color="#AE810E"/>
    </linearGradient>
  </defs>
</svg>