<svg xmlns="http://www.w3.org/2000/svg" width="25" height="19" viewBox="0 0 25 19" fill="none">
  <path d="M19.574 0.0254345C16.7974 0.216193 14.4977 0.979228 12.802 2.26155L12.4311 2.54769L12.2086 2.35693C11.5621 1.80585 10.3116 1.1276 9.34718 0.809665C7.69394 0.258584 6.33743 0.0678251 4.1861 0.0678251C2.58584 0.0678251 1.3777 0.163205 0.275541 0.396354L0 0.438745V8.44002V16.4413L0.37092 16.2717C1.47308 15.7736 3.00975 15.3603 4.47223 15.1802C5.30945 15.0848 6.84612 15.0636 7.66215 15.159C9.02925 15.3073 10.4811 15.6677 11.7317 16.1763L12.4205 16.4625L13.014 16.2187C14.8156 15.4769 16.5854 15.1802 18.8003 15.2437C20.284 15.2861 21.6087 15.4769 23.0288 15.8372C23.5799 15.9856 24.5761 16.2929 24.9152 16.4307C24.9894 16.4625 25 16.0598 25 8.46121C25 0.873252 25 0.449343 24.9152 0.428147C24.5125 0.311573 23.0712 0.120814 22.128 0.0572276C21.4816 -0.00635868 20.1145 -0.0169563 19.574 0.0254345ZM13.0458 9.22425V16.081L12.7279 16.2187L12.4099 16.3565L12.1556 16.2505L11.9118 16.1446V9.27724V2.40992L12.1344 2.56888C12.2616 2.65367 12.3675 2.74905 12.3781 2.77024C12.3887 2.79144 12.5371 2.70666 12.7067 2.59008C12.8762 2.46291 13.014 2.36753 13.0246 2.36753C13.0352 2.36753 13.0458 5.45146 13.0458 9.22425ZM9.49555 3.59686V3.79822H5.90292H2.3209V3.59686V3.39551H5.90292H9.48495L9.49555 3.59686ZM22.5837 3.62866L22.5731 3.81942H19.0123H15.4515L15.4409 3.62866L15.4303 3.4485H19.0229H22.6155L22.5837 3.62866ZM9.49555 5.17592V5.37728H5.90292H2.3209V5.17592V4.98516H5.90292H9.48495L9.49555 5.17592ZM22.5837 5.21831L22.5731 5.40907L19.0017 5.41967L15.4303 5.43027V5.22891V5.02755H19.0229H22.6049L22.5837 5.21831ZM9.49555 6.76558V6.96694H5.90292H2.3209V6.76558V6.56422H5.90292H9.48495L9.49555 6.76558ZM22.5837 6.79737L22.5731 6.98813L19.0017 6.99873L15.4303 7.00933V6.80797V6.60661H19.0229H22.6049L22.5837 6.79737ZM9.49555 8.34464V8.54599H5.90292H2.3209V8.34464V8.14328H5.90292H9.48495L9.49555 8.34464ZM22.5837 8.37643L22.5731 8.56719L19.0017 8.57779L15.4303 8.58839V8.38703V8.18567H19.0229H22.6049L22.5837 8.37643ZM9.49555 9.9237V10.1251H5.90292H2.3209V9.9237V9.72234H5.90292H9.48495L9.49555 9.9237ZM22.5837 9.95549L22.5731 10.1462L19.0017 10.1568L15.4303 10.1674V9.96609V9.76473H19.0229H22.6049L22.5837 9.95549ZM9.49555 11.5028V11.7041H5.90292H2.3209V11.5028V11.3014H5.90292H9.48495L9.49555 11.5028ZM22.5837 11.5451L22.5731 11.7359L19.0017 11.7465L15.4303 11.7571V11.5557V11.3544H19.0229H22.6049L22.5837 11.5451Z" fill="url(#paint0_linear_1_2856)"/>
  <path d="M5.48973 15.9325C4.30279 16.0279 3.41258 16.1869 2.427 16.473C1.72755 16.6743 0.402832 17.183 0.402832 17.2572C0.402832 17.3314 0.805545 18.4442 0.847936 18.4866C0.869131 18.5078 1.03869 18.4548 1.22945 18.3594C2.20444 17.8613 3.60334 17.3526 4.76909 17.0665C7.0264 16.5048 9.01877 16.473 10.8204 16.9393C11.1171 17.0135 11.3503 17.0771 11.3609 17.0665C11.3821 17.0453 10.6508 16.7379 10.1103 16.5578C9.45328 16.3352 8.59486 16.1233 7.85302 16.0279C7.33373 15.9537 5.89245 15.9007 5.48973 15.9325Z" fill="url(#paint1_linear_1_2856)"/>
  <path d="M17.3484 16.081C16.384 16.1976 15.5574 16.3671 14.8262 16.6003C14.3493 16.7486 13.2789 17.1937 13.3001 17.2149C13.3107 17.2255 13.5015 17.1726 13.7346 17.109C15.2077 16.6851 17.1047 16.6215 18.9063 16.95C20.3688 17.2149 21.9055 17.713 23.315 18.3807L23.9084 18.6668L24.1416 18.0204C24.2687 17.66 24.3535 17.3633 24.3323 17.3421C24.2581 17.2785 23.1772 16.8652 22.5943 16.6851C21.969 16.4837 21.1424 16.2929 20.4218 16.1764C19.9661 16.1022 17.7723 16.0386 17.3484 16.081Z" fill="url(#paint2_linear_1_2856)"/>
  <defs>
    <linearGradient id="paint0_linear_1_2856" x1="12.5" y1="0" x2="12.5" y2="16.4625" gradientUnits="userSpaceOnUse">
      <stop stop-color="#E0C07F"/>
      <stop offset="1" stop-color="#947034"/>
    </linearGradient>
    <linearGradient id="paint1_linear_1_2856" x1="5.88207" y1="15.9231" x2="5.88207" y2="18.4912" gradientUnits="userSpaceOnUse">
      <stop stop-color="#E0C07F"/>
      <stop offset="1" stop-color="#947034"/>
    </linearGradient>
    <linearGradient id="paint2_linear_1_2856" x1="18.8177" y1="16.0674" x2="18.8177" y2="18.6668" gradientUnits="userSpaceOnUse">
      <stop stop-color="#E0C07F"/>
      <stop offset="1" stop-color="#947034"/>
    </linearGradient>
  </defs>
</svg>