<svg width="32" height="32" viewBox="0 0 32 32" fill="none" xmlns="http://www.w3.org/2000/svg">
<path d="M2.6665 10.0003C2.6665 9.11627 3.01769 8.26842 3.64281 7.6433C4.26794 7.01818 5.11578 6.66699 5.99984 6.66699H25.9998C26.8839 6.66699 27.7317 7.01818 28.3569 7.6433C28.982 8.26842 29.3332 9.11627 29.3332 10.0003V11.667H2.6665V10.0003ZM2.6665 15.0003V23.3337C2.6665 24.2177 3.01769 25.0656 3.64281 25.6907C4.26794 26.3158 5.11578 26.667 5.99984 26.667H25.9998C26.8839 26.667 27.7317 26.3158 28.3569 25.6907C28.982 25.0656 29.3332 24.2177 29.3332 23.3337V15.0003H2.6665ZM7.6665 18.3337H9.33317C9.7752 18.3337 10.1991 18.5093 10.5117 18.8218C10.8242 19.1344 10.9998 19.5583 10.9998 20.0003V21.667C10.9998 22.109 10.8242 22.5329 10.5117 22.8455C10.1991 23.1581 9.7752 23.3337 9.33317 23.3337H7.6665C7.22448 23.3337 6.80055 23.1581 6.48799 22.8455C6.17543 22.5329 5.99984 22.109 5.99984 21.667V20.0003C5.99984 19.5583 6.17543 19.1344 6.48799 18.8218C6.80055 18.5093 7.22448 18.3337 7.6665 18.3337Z" fill="#82A9F9"/>
</svg>
