<svg xmlns="http://www.w3.org/2000/svg" width="52" height="52" viewBox="0 0 52 52" fill="none">
  <path d="M22.2167 37.7167L40.4292 19.5042L36.8125 15.8875L22.2167 30.4833L14.8542 23.1208L11.2375 26.7375L22.2167 37.7167ZM25.8333 51.6667C22.2597 51.6667 18.9014 50.9885 15.7583 49.6323C12.6153 48.276 9.88125 46.4354 7.55625 44.1104C5.23125 41.7854 3.39063 39.0514 2.03437 35.9083C0.678125 32.7653 0 29.4069 0 25.8333C0 22.2597 0.678125 18.9014 2.03437 15.7583C3.39063 12.6153 5.23125 9.88125 7.55625 7.55625C9.88125 5.23125 12.6153 3.39063 15.7583 2.03437C18.9014 0.678125 22.2597 0 25.8333 0C29.4069 0 32.7653 0.678125 35.9083 2.03437C39.0514 3.39063 41.7854 5.23125 44.1104 7.55625C46.4354 9.88125 48.276 12.6153 49.6323 15.7583C50.9885 18.9014 51.6667 22.2597 51.6667 25.8333C51.6667 29.4069 50.9885 32.7653 49.6323 35.9083C48.276 39.0514 46.4354 41.7854 44.1104 44.1104C41.7854 46.4354 39.0514 48.276 35.9083 49.6323C32.7653 50.9885 29.4069 51.6667 25.8333 51.6667Z" fill="url(#paint0_linear_1_3653)"/>
  <defs>
    <linearGradient id="paint0_linear_1_3653" x1="25.8333" y1="0" x2="25.8333" y2="51.6667" gradientUnits="userSpaceOnUse">
      <stop stop-color="#E0C07F"/>
      <stop offset="1" stop-color="#947034"/>
    </linearGradient>
  </defs>
</svg>