<svg width="24" height="24" viewBox="0 0 24 24" fill="none" xmlns="http://www.w3.org/2000/svg">
    <path opacity="0.4"
          d="M2 7.81L2 16.19C2 19.83 4.17 22 7.81 22H16.18C19.83 22 22 19.83 22 16.19V7.82C22 4.18 19.83 2.01 16.19 2.01H7.81C4.17 2 2 4.17 2 7.81Z"
          fill="#82A9F9"/>
    <path d="M13.5301 6.14941C13.3501 6.22941 13.2001 6.36941 13.1201 6.55941C13.0801 6.64941 13.0601 6.74941 13.0601 6.84941V17.1494C13.0601 17.5594 13.4001 17.8994 13.8101 17.8994C14.2201 17.8994 14.5601 17.5594 14.5601 17.1494V8.64941L16.3201 10.4094C16.6101 10.6994 17.0901 10.6994 17.3801 10.4094C17.5301 10.2594 17.6001 10.0694 17.6001 9.87941C17.6001 9.68941 17.5301 9.49941 17.3801 9.34941L14.3401 6.30941C14.2701 6.23941 14.1901 6.18941 14.1001 6.14941C13.9201 6.07941 13.7101 6.07941 13.5301 6.14941Z"
          fill="#82A9F9"/>
    <path d="M10.4698 17.8498C10.6498 17.7698 10.7998 17.6298 10.8798 17.4398C10.9198 17.3498 10.9398 17.2498 10.9398 17.1498V6.83984C10.9398 6.42984 10.5998 6.08984 10.1898 6.08984C9.77984 6.08984 9.43984 6.42984 9.43984 6.83984V15.3398L7.67984 13.5798C7.38984 13.2898 6.90984 13.2898 6.61984 13.5798C6.32984 13.8698 6.32984 14.3498 6.61984 14.6398L9.64984 17.6798C9.71984 17.7498 9.80984 17.8098 9.89984 17.8498C10.0798 17.9198 10.2898 17.9198 10.4698 17.8498Z"
          fill="#82A9F9"/>
</svg>
