<svg xmlns="http://www.w3.org/2000/svg" width="26" height="26" viewBox="0 0 26 26" fill="none">
  <g filter="url(#filter0_d_1_12705)">
    <path d="M24.9439 2.28517C24.9439 2.26486 24.9541 2.24454 24.9541 2.22423C24.9541 2.21407 24.9541 2.21407 24.9541 2.20392C24.9541 2.18361 24.9642 2.17345 24.9642 2.15314V2.14298C24.9642 2.12267 24.9642 2.10236 24.9642 2.0922C24.9642 2.08204 24.9642 2.08204 24.9642 2.07189C24.9642 2.05157 24.9642 2.03126 24.9642 2.02111C24.9642 2.02111 24.9642 2.02111 24.9642 2.01095C24.9642 1.99064 24.9642 1.97032 24.9642 1.95001V1.93986C24.9642 1.91954 24.9642 1.89923 24.9541 1.87892C24.9541 1.85861 24.9439 1.83829 24.9439 1.80782C24.9439 1.78751 24.9337 1.7672 24.9236 1.73673C24.9134 1.69611 24.8931 1.65548 24.8728 1.6047C24.8728 1.6047 24.8728 1.6047 24.8728 1.59454C24.8525 1.55392 24.8322 1.51329 24.8119 1.48282C24.8119 1.48282 24.8119 1.47267 24.8017 1.47267C24.7916 1.46251 24.7814 1.4422 24.7712 1.43204C24.7712 1.43204 24.7712 1.42189 24.7611 1.42189C24.7611 1.42189 24.7611 1.42189 24.7611 1.41173C24.7509 1.40157 24.7408 1.38126 24.7205 1.37111C24.7103 1.36095 24.69 1.34064 24.6798 1.32032C24.5783 1.21876 24.4564 1.13751 24.3244 1.09689C24.3041 1.08673 24.2837 1.08673 24.2634 1.07657C24.2431 1.07657 24.2228 1.06642 24.2025 1.05626H24.1923C24.172 1.05626 24.1619 1.04611 24.1416 1.04611C24.1416 1.04611 24.1314 1.04611 24.1213 1.04611C24.1009 1.04611 24.0806 1.04611 24.0603 1.03595C24.0502 1.03595 24.0502 1.03595 24.04 1.03595C24.0298 1.03595 24.0095 1.03595 23.9994 1.03595C23.9892 1.03595 23.9892 1.03595 23.9791 1.03595C23.9587 1.03595 23.9384 1.03595 23.9181 1.03595H23.908C23.8877 1.03595 23.8775 1.03595 23.8572 1.03595H23.847C23.7759 1.04611 23.6947 1.06642 23.6236 1.09689L1.67594 9.06954C1.35094 9.19142 1.11734 9.45548 1.04625 9.79064C0.975156 10.1258 1.07672 10.4711 1.31031 10.7149L6.01266 15.4172V22.9938C6.01266 23.0039 6.01266 23.0039 6.01266 23.0141C6.01266 23.0242 6.01266 23.0344 6.01266 23.0445C6.01266 23.136 6.03297 23.2375 6.07359 23.3188C6.07359 23.3289 6.08375 23.3391 6.08375 23.3492V23.3594C6.08375 23.3695 6.09391 23.3797 6.09391 23.3797C6.09391 23.3899 6.09391 23.3899 6.10406 23.4C6.10406 23.4 6.10406 23.4102 6.11422 23.4203C6.11422 23.4305 6.12437 23.4406 6.12437 23.4508C6.12437 23.4508 6.12437 23.4508 6.12437 23.461C6.165 23.5422 6.22594 23.6133 6.28687 23.6742C6.28687 23.6742 6.28687 23.6742 6.29703 23.6844L6.30719 23.6945C6.31734 23.7047 6.3275 23.7149 6.33766 23.7149C6.34781 23.725 6.35797 23.7352 6.36812 23.7453C6.39859 23.7656 6.41891 23.7859 6.44937 23.8063C6.45953 23.8063 6.45953 23.8164 6.46969 23.8164C6.46969 23.8164 6.47984 23.8164 6.47984 23.8266C6.49 23.8266 6.50016 23.8367 6.51031 23.8367C6.51031 23.8367 6.52047 23.8367 6.52047 23.8469C6.53062 23.8469 6.54078 23.857 6.55094 23.857C6.55094 23.857 6.56109 23.857 6.56109 23.8672C6.57125 23.8672 6.58141 23.8774 6.59156 23.8774H6.60172C6.61187 23.8774 6.62203 23.8875 6.63219 23.8875H6.64234C6.6525 23.8875 6.66266 23.8977 6.67281 23.8977H6.68297C6.69312 23.8977 6.71344 23.9078 6.72359 23.9078C6.73375 23.9078 6.75406 23.918 6.77437 23.918H6.78453C6.79469 23.918 6.80484 23.918 6.815 23.9281H6.82516C6.83531 23.9281 6.84547 23.9281 6.85562 23.9281C6.85562 23.9281 6.86578 23.9281 6.87594 23.9281C6.88609 23.9281 6.89625 23.9281 6.90641 23.9281H6.91656C6.92672 23.9281 6.94703 23.9281 6.96734 23.9281C6.98766 23.9281 7.00797 23.9281 7.01812 23.9281C7.03844 23.9281 7.04859 23.9281 7.06891 23.9281C7.08922 23.9281 7.09937 23.9281 7.11969 23.918C7.14 23.918 7.15016 23.918 7.17047 23.9078C7.17047 23.9078 7.17047 23.9078 7.18062 23.9078C7.19078 23.9078 7.21109 23.8977 7.22125 23.8977H7.23141C7.24156 23.8977 7.26187 23.8875 7.27203 23.8875H7.28219C7.29234 23.8875 7.3025 23.8774 7.32281 23.8774H7.33297C7.34312 23.8774 7.35328 23.8672 7.36344 23.8672C7.37359 23.8672 7.37359 23.8672 7.38375 23.857C7.39391 23.857 7.40406 23.8469 7.40406 23.8469C7.41422 23.8469 7.41422 23.8367 7.42437 23.8367C7.45484 23.8266 7.47516 23.8063 7.50562 23.7859C7.51578 23.7758 7.52594 23.7758 7.53609 23.7656C7.53609 23.7656 7.54625 23.7656 7.54625 23.7555C7.55641 23.7453 7.56656 23.7453 7.57672 23.7352L7.58687 23.725C7.59703 23.7149 7.59703 23.7149 7.60719 23.7047C7.61734 23.7047 7.61734 23.6945 7.6275 23.6844C7.6275 23.6844 7.63766 23.6742 7.64781 23.6641C7.67828 23.6336 7.69859 23.6133 7.71891 23.5828L10.5931 20.0281L15.2142 24.6594C15.4072 24.8524 15.6611 24.9539 15.9252 24.9539C15.9962 24.9539 16.0673 24.9438 16.1384 24.9336C16.4736 24.8625 16.7377 24.6188 16.8595 24.3039L24.8423 2.33595C24.9338 2.32579 24.9338 2.30548 24.9439 2.28517ZM18.2002 5.1797L7.09937 13.6703L3.82906 10.4102L18.2002 5.1797ZM8.00328 20.1703V17.4078L9.24234 18.6469L8.00328 20.1703ZM15.59 22.1711L11.2837 17.8649L8.52125 15.1024L21.8767 4.88517L15.59 22.1711Z" fill="url(#paint0_linear_1_12705)"/>
  </g>
  <defs>
    <filter id="filter0_d_1_12705" x="1.02393" y="1.03595" width="23.9404" height="24.418" filterUnits="userSpaceOnUse" color-interpolation-filters="sRGB">
      <feFlood flood-opacity="0" result="BackgroundImageFix"/>
      <feColorMatrix in="SourceAlpha" type="matrix" values="0 0 0 0 0 0 0 0 0 0 0 0 0 0 0 0 0 0 127 0" result="hardAlpha"/>
      <feOffset dy="0.5"/>
      <feComposite in2="hardAlpha" operator="out"/>
      <feColorMatrix type="matrix" values="0 0 0 0 0 0 0 0 0 0 0 0 0 0 0 0 0 0 0.25 0"/>
      <feBlend mode="normal" in2="BackgroundImageFix" result="effect1_dropShadow_1_12705"/>
      <feBlend mode="normal" in="SourceGraphic" in2="effect1_dropShadow_1_12705" result="shape"/>
    </filter>
    <linearGradient id="paint0_linear_1_12705" x1="12.9941" y1="1.03595" x2="12.9941" y2="24.9539" gradientUnits="userSpaceOnUse">
      <stop stop-color="#A57C15"/>
      <stop offset="0.255" stop-color="#FFD568"/>
      <stop offset="0.5" stop-color="#FFE9B0"/>
      <stop offset="0.77" stop-color="#FFD874"/>
      <stop offset="1" stop-color="#AE810E"/>
    </linearGradient>
  </defs>
</svg>