<svg xmlns="http://www.w3.org/2000/svg" width="27" height="25" viewBox="0 0 27 25" fill="none">
  <path d="M25.9546 19.2692H23.5034V16.818C23.5034 16.3641 23.1403 16.001 22.6863 16.001H21.8693C21.4153 16.001 21.0522 16.3641 21.0522 16.818V19.2692H18.601C18.1471 19.2692 17.7839 19.6324 17.7839 20.0863V20.9147C17.7839 21.3687 18.1471 21.7318 18.601 21.7318H21.0522V24.183C21.0522 24.6369 21.4153 25.0001 21.8693 25.0001H22.6863C23.1403 25.0001 23.5034 24.6369 23.5034 24.183V21.7318H25.9546C26.4085 21.7318 26.7717 21.3687 26.7717 20.9147V20.0863C26.7717 19.6437 26.4085 19.2692 25.9546 19.2692Z" fill="url(#paint0_linear_1_2838)"/>
  <path d="M16.4904 23.6609H1.19312H0.807283H0.500882C0.500882 23.6609 -0.0324814 23.2864 0.0015631 23.1049C0.0129113 23.0027 0.0356076 22.9006 0.0583039 22.7985C0.137741 22.4467 0.217178 22.1062 0.319312 21.7658C1.42008 18.1911 4.23443 15.2973 7.66157 14.1171C5.44868 12.8688 3.92803 10.3836 3.92803 7.61462C3.92803 3.46119 7.38922 0 11.5426 0C15.6961 0 19.1573 3.46119 19.1573 7.61462C19.1573 10.3836 17.6366 12.8688 15.4237 14.1171C17.3416 14.7526 19.0324 15.8988 20.3488 17.3854H17.8749C17.1146 17.3854 16.4904 17.9982 16.4904 18.7699V23.6609Z" fill="url(#paint1_linear_1_2838)"/>
  <defs>
    <linearGradient id="paint0_linear_1_2838" x1="22.2778" y1="16.001" x2="22.2778" y2="25.0001" gradientUnits="userSpaceOnUse">
      <stop stop-color="#E0C07F"/>
      <stop offset="1" stop-color="#947034"/>
    </linearGradient>
    <linearGradient id="paint1_linear_1_2838" x1="10.1744" y1="0" x2="10.1744" y2="23.6609" gradientUnits="userSpaceOnUse">
      <stop stop-color="#E0C07F"/>
      <stop offset="1" stop-color="#947034"/>
    </linearGradient>
  </defs>
</svg>