<svg xmlns="http://www.w3.org/2000/svg" width="56" height="56" viewBox="0 0 56 56" fill="none">
  <circle cx="28" cy="28" r="28" fill="#D8E4FE" fill-opacity="0.5"/>
  <mask id="mask0_1_4223" style="mask-type:alpha" maskUnits="userSpaceOnUse" x="10" y="10" width="35" height="35">
    <rect x="10" y="10" width="35" height="35" fill="#D9D9D9"/>
  </mask>
  <g mask="url(#mask0_1_4223)">
    <path d="M30.4167 28.9583H37.7084V26.0416H30.4167V28.9583ZM30.4167 24.5833H37.7084V21.6666H30.4167V24.5833ZM17.2917 33.3333H28.9584V32.5312C28.9584 31.4374 28.4237 30.5685 27.3542 29.9244C26.2848 29.2803 24.8751 28.9583 23.1251 28.9583C21.3751 28.9583 19.9654 29.2803 18.8959 29.9244C17.8265 30.5685 17.2917 31.4374 17.2917 32.5312V33.3333ZM23.1251 27.4999C23.9272 27.4999 24.6138 27.2143 25.185 26.6431C25.7562 26.072 26.0417 25.3853 26.0417 24.5833C26.0417 23.7812 25.7562 23.0945 25.185 22.5234C24.6138 21.9522 23.9272 21.6666 23.1251 21.6666C22.323 21.6666 21.6364 21.9522 21.0652 22.5234C20.494 23.0945 20.2084 23.7812 20.2084 24.5833C20.2084 25.3853 20.494 26.072 21.0652 26.6431C21.6364 27.2143 22.323 27.4999 23.1251 27.4999ZM15.8334 39.1666C15.0313 39.1666 14.3447 38.881 13.7735 38.3098C13.2023 37.7386 12.9167 37.052 12.9167 36.2499V18.7499C12.9167 17.9478 13.2023 17.2612 13.7735 16.69C14.3447 16.1188 15.0313 15.8333 15.8334 15.8333H39.1667C39.9688 15.8333 40.6555 16.1188 41.2266 16.69C41.7978 17.2612 42.0834 17.9478 42.0834 18.7499V36.2499C42.0834 37.052 41.7978 37.7386 41.2266 38.3098C40.6555 38.881 39.9688 39.1666 39.1667 39.1666H15.8334Z" fill="url(#paint0_linear_1_4223)" stroke="white" stroke-width="0.5"/>
  </g>
  <defs>
    <linearGradient id="paint0_linear_1_4223" x1="27.5001" y1="15.8333" x2="27.5001" y2="39.1666" gradientUnits="userSpaceOnUse">
      <stop stop-color="#E3FF43"/>
      <stop offset="1" stop-color="#27797F"/>
    </linearGradient>
  </defs>
</svg>