<svg width="64" height="64" viewBox="0 0 64 64" fill="none" xmlns="http://www.w3.org/2000/svg">
<circle cx="32" cy="32" r="32" fill="#82A9F9" fill-opacity="0.15"/>
<g clip-path="url(#clip0_1860_5318)">
<path d="M42.5 18H21.5C17.65 18 14.5 21.15 14.5 25V39C14.5 42.85 17.65 46 21.5 46H42.5C46.35 46 49.5 42.85 49.5 39V25C49.5 21.15 46.35 18 42.5 18ZM26.75 22.97C28.99 22.97 30.8275 24.8075 30.8275 27.0475C30.8275 29.305 28.99 31.125 26.75 31.125C24.51 31.125 22.6725 29.305 22.6725 27.0475C22.6725 24.8075 24.51 22.97 26.75 22.97ZM32.875 41.4675C32.1575 41.4675 31.5625 40.8725 31.5625 40.155C31.5625 37.7225 29.41 35.7625 26.75 35.7625C24.09 35.7625 21.9375 37.7225 21.9375 40.155C21.9375 40.8725 21.3425 41.4675 20.625 41.4675C19.9075 41.4675 19.3125 40.8725 19.3125 40.155C19.3125 36.2875 22.655 33.1375 26.75 33.1375C30.845 33.1375 34.1875 36.2875 34.1875 40.155C34.1875 40.8725 33.5925 41.4675 32.875 41.4675ZM41.625 34.1875H36.375C35.6575 34.1875 35.0625 33.5925 35.0625 32.875C35.0625 32.1575 35.6575 31.5625 36.375 31.5625H41.625C42.3425 31.5625 42.9375 32.1575 42.9375 32.875C42.9375 33.5925 42.3425 34.1875 41.625 34.1875ZM43.375 28.0625H36.375C35.6575 28.0625 35.0625 27.4675 35.0625 26.75C35.0625 26.0325 35.6575 25.4375 36.375 25.4375H43.375C44.0925 25.4375 44.6875 26.0325 44.6875 26.75C44.6875 27.4675 44.0925 28.0625 43.375 28.0625Z" fill="#82A9F9"/>
</g>
<defs>
<clipPath id="clip0_1860_5318">
<rect width="42" height="42" fill="white" transform="translate(11 11)"/>
</clipPath>
</defs>
</svg>
