<svg xmlns="http://www.w3.org/2000/svg" width="84" height="84" viewBox="0 0 84 84" fill="none">
  <g opacity="0.3">
    <g filter="url(#filter0_d_1_14972)">
      <path fill-rule="evenodd" clip-rule="evenodd" d="M34.2563 12.8625C34.9125 10.0078 37.3734 7.61251 40.3266 6.98907C41.6063 6.69376 42.2953 6.69376 43.6406 6.95626C46.6594 7.61251 49.0875 9.9422 49.7766 12.8625L49.7767 12.863C49.8751 13.2894 49.9734 13.7157 50.0062 13.8141C50.0391 13.9781 50.8594 14.0109 53.3859 14.0109H56.7V17.2594V20.5078H68.7094H80.7188V48.8578V77.2078H42H3.28125V48.8578V20.5078H15.2906H27.3328V17.2594V14.0109H30.6469C33.1734 14.0109 33.9937 13.9781 34.0266 13.8141C34.0444 13.7605 34.0818 13.5997 34.128 13.4009L34.128 13.4008C34.1666 13.2346 34.2114 13.0418 34.2563 12.8625ZM73.9266 70.2844L73.8937 48.825L73.7953 27.3656L42.0328 27.3328C24.5766 27.3 10.2047 27.3328 10.1719 27.3984C10.1062 27.4641 10.0734 37.1109 10.0734 48.8906V70.2844H42H73.9266ZM19.9501 33.8624C20.3767 32.6812 21.7876 31.2703 22.9361 30.8109C24.0845 30.3843 25.7907 30.3843 26.972 30.8437C28.0548 31.2703 29.3017 32.4187 29.8595 33.5343C30.2532 34.289 30.2861 34.5515 30.2861 35.8968C30.2861 37.7015 29.9579 38.489 28.7767 39.6703C27.5954 40.8515 26.8079 41.1796 25.0032 41.1796C23.6251 41.1796 23.3954 41.114 22.6079 40.7203C21.4923 40.1624 20.3439 38.9156 19.9501 37.8328C19.4907 36.6843 19.5236 35.0109 19.9501 33.8624ZM38.8172 37.8326V41.2451H53.4844H68.1516V37.8326V34.4201H53.4844H38.8172V37.8326ZM16.1438 46.4951C16.8328 44.3623 18.6375 42.7217 20.9016 42.2295C22.2141 41.9342 27.6938 41.9342 29.0391 42.2295C31.3688 42.7217 33.1406 44.3623 33.8625 46.5936C34.0922 47.3483 34.125 48.0373 34.125 51.3186V55.1904L32.3531 55.1576L30.5813 55.1248L30.5484 51.6139L30.5156 48.103H29.9578H29.4328L29.4 51.6139L29.3672 55.1248H24.9703H20.5734L20.5406 51.6139L20.5078 48.103H19.9828H19.4578L19.425 51.6139L19.3922 55.1248L17.6203 55.1576L15.8484 55.1904V51.3186C15.8484 47.9061 15.8813 47.3811 16.1438 46.4951ZM38.8172 49.6123V53.0248H53.4844H68.1516V49.6123V46.1998H53.4844H38.8172V49.6123ZM15.8484 64.6733V61.2608V57.8483H42H68.1516V61.2608V64.6733H42H15.8484Z" fill="url(#paint0_linear_1_14972)"/>
    </g>
  </g>
  <defs>
    <filter id="filter0_d_1_14972" x="3.28125" y="6.76331" width="77.4375" height="70.9445" filterUnits="userSpaceOnUse" color-interpolation-filters="sRGB">
      <feFlood flood-opacity="0" result="BackgroundImageFix"/>
      <feColorMatrix in="SourceAlpha" type="matrix" values="0 0 0 0 0 0 0 0 0 0 0 0 0 0 0 0 0 0 127 0" result="hardAlpha"/>
      <feOffset dy="0.5"/>
      <feComposite in2="hardAlpha" operator="out"/>
      <feColorMatrix type="matrix" values="0 0 0 0 0 0 0 0 0 0 0 0 0 0 0 0 0 0 0.25 0"/>
      <feBlend mode="normal" in2="BackgroundImageFix" result="effect1_dropShadow_1_14972"/>
      <feBlend mode="normal" in="SourceGraphic" in2="effect1_dropShadow_1_14972" result="shape"/>
    </filter>
    <linearGradient id="paint0_linear_1_14972" x1="3.28125" y1="41.9856" x2="80.7188" y2="41.9856" gradientUnits="userSpaceOnUse">
      <stop stop-color="#EC008C"/>
      <stop offset="1" stop-color="#FC6767"/>
    </linearGradient>
  </defs>
</svg>
