<svg xmlns="http://www.w3.org/2000/svg" width="26" height="26" viewBox="0 0 26 26" fill="none">
  <g filter="url(#filter0_d_1_12735)">
    <path d="M18.2305 15.4172H22.2828C22.5062 14.3609 22.618 13.5586 22.618 13C22.618 12.4414 22.5062 11.6289 22.2828 10.5828H18.2305C18.3422 11.375 18.4031 12.1773 18.4031 13C18.4031 13.8227 18.3422 14.6352 18.2305 15.4172ZM16.0977 22.0594C18.3828 21.3078 20.1297 19.8859 21.3281 17.7836H17.7836C17.4078 19.2766 16.8492 20.7086 16.0977 22.0594ZM15.8133 15.4172C15.925 14.625 15.9859 13.8227 15.9859 13C15.9859 12.1773 15.925 11.3648 15.8133 10.5828H10.1867C10.075 11.375 10.0141 12.1773 10.0141 13C10.0141 13.8227 10.075 14.6352 10.1867 15.4172H15.8133ZM13 22.5672C14.0562 21.0336 14.818 19.4391 15.3055 17.7836H10.6945C11.182 19.4289 11.9438 21.0234 13 22.5672ZM8.21641 8.21641C8.59219 6.71328 9.15078 5.29141 9.90234 3.94062C7.61719 4.69219 5.88047 6.11406 4.67188 8.21641H8.21641ZM4.67188 17.7836C5.87031 19.8859 7.61719 21.3078 9.90234 22.0594C9.15078 20.7086 8.59219 19.2867 8.21641 17.7836H4.67188ZM3.71719 15.4172H7.76953C7.65781 14.625 7.59688 13.8227 7.59688 13C7.59688 12.1773 7.65781 11.3648 7.76953 10.5828H3.71719C3.49375 11.6391 3.38203 12.4414 3.38203 13C3.38203 13.5586 3.49375 14.3711 3.71719 15.4172ZM13 3.43281C11.9438 4.96641 11.182 6.56094 10.6945 8.21641H15.3055C14.818 6.56094 14.0562 4.96641 13 3.43281ZM21.3281 8.21641C20.1297 6.11406 18.3828 4.69219 16.0977 3.94062C16.8492 5.29141 17.4078 6.71328 17.7836 8.21641H21.3281ZM13 1.01562C16.3008 1.01562 19.1242 2.18359 21.4703 4.52969C23.8164 6.87578 24.9844 9.69922 24.9844 13C24.9844 16.3008 23.8164 19.1242 21.4703 21.4703C19.1242 23.8164 16.3008 24.9844 13 24.9844C9.69922 24.9844 6.87578 23.8164 4.52969 21.4703C2.18359 19.1242 1.01562 16.3008 1.01562 13C1.01562 9.69922 2.18359 6.87578 4.52969 4.52969C6.87578 2.18359 9.69922 1.01562 13 1.01562Z" fill="url(#paint0_linear_1_12735)"/>
  </g>
  <defs>
    <filter id="filter0_d_1_12735" x="1.01562" y="1.01562" width="23.9688" height="24.4688" filterUnits="userSpaceOnUse" color-interpolation-filters="sRGB">
      <feFlood flood-opacity="0" result="BackgroundImageFix"/>
      <feColorMatrix in="SourceAlpha" type="matrix" values="0 0 0 0 0 0 0 0 0 0 0 0 0 0 0 0 0 0 127 0" result="hardAlpha"/>
      <feOffset dy="0.5"/>
      <feComposite in2="hardAlpha" operator="out"/>
      <feColorMatrix type="matrix" values="0 0 0 0 0 0 0 0 0 0 0 0 0 0 0 0 0 0 0.25 0"/>
      <feBlend mode="normal" in2="BackgroundImageFix" result="effect1_dropShadow_1_12735"/>
      <feBlend mode="normal" in="SourceGraphic" in2="effect1_dropShadow_1_12735" result="shape"/>
    </filter>
    <linearGradient id="paint0_linear_1_12735" x1="13" y1="1.01563" x2="13" y2="24.9844" gradientUnits="userSpaceOnUse">
      <stop stop-color="#A57C15"/>
      <stop offset="0.255" stop-color="#FFD568"/>
      <stop offset="0.5" stop-color="#FFE9B0"/>
      <stop offset="0.77" stop-color="#FFD874"/>
      <stop offset="1" stop-color="#AE810E"/>
    </linearGradient>
  </defs>
</svg>
