<svg xmlns="http://www.w3.org/2000/svg" width="25" height="25" viewBox="0 0 25 25" fill="none">
  <path d="M16.5572 7.1822C17.0233 8.5911 17.6483 9.6822 18.75 10.7733C19.6822 9.83051 20.3178 8.58051 20.7839 7.1822H16.5572ZM6.25 15H10.3072L8.2839 9.5339L6.25 15ZM21.875 0H3.125C1.4089 0 0 1.4089 0 3.125V21.875C0 23.5911 1.4089 25 3.125 25H21.875C23.5911 25 25 23.5911 25 21.875V3.125C25 1.4089 23.75 0 21.875 0ZM14.2161 20.1589C13.8983 20.4767 13.5911 20.4767 13.2839 20.4767C13.125 20.4767 12.8178 20.4767 12.6589 20.3178C12.5 20.1589 12.3517 20.3178 12.3517 20.1589C12.3517 20 12.1928 19.8517 12.0445 19.5339C11.8856 19.2161 11.8856 19.0678 11.7267 18.75L11.1017 17.0339H5.625L5 18.75C4.6822 19.375 4.5339 19.8411 4.375 20.1589C4.2161 20.4767 3.9089 20.4767 3.4322 20.4767C3.11441 20.4767 2.8072 20.3178 2.48941 20.1589C2.17161 19.8517 2.02331 19.6928 2.02331 19.375C2.02331 19.2161 2.02331 19.0572 2.1822 18.75C2.3411 18.4322 2.3411 18.2839 2.5 17.9661L5.9322 9.2161C6.0911 8.9089 6.0911 8.5911 6.25 8.2839C6.4089 7.9661 6.5678 7.6589 6.7161 7.5C6.875 7.3411 7.0339 7.0339 7.3411 6.875C7.64831 6.7161 7.9661 6.7161 8.2839 6.7161C8.5911 6.7161 8.9089 6.7161 9.2161 6.875C9.5339 7.0339 9.6822 7.1822 9.8411 7.5C10 7.6589 10.1589 7.9661 10.3072 8.2839C10.4661 8.5911 10.625 8.9089 10.7733 9.375L14.2055 17.9661C14.5233 18.5911 14.6716 19.0572 14.6716 19.375C14.5339 19.5339 14.375 19.8411 14.2161 20.1589ZM22.8178 14.0678C21.1017 13.4428 19.8517 12.6589 18.75 11.7267C17.6589 12.8178 16.25 13.6017 14.5339 14.0678L14.0678 13.2839C15.7839 12.8178 17.1928 12.1928 18.2839 11.1017C17.1928 10.0106 16.25 8.6017 15.9428 7.0339H14.375V6.4089H18.5911C18.2733 5.9428 17.9661 5.3178 17.6483 4.8411L18.1144 4.6822C18.4322 5.14831 18.8983 5.77331 19.2055 6.39831H23.1144V7.1822H21.5572C21.0911 8.75 20.3072 10.1483 19.3644 11.0911C20.4555 12.0339 21.7055 12.8072 23.4216 13.2733L22.8178 14.0678Z" fill="url(#paint0_linear_1_2876)"/>
  <defs>
    <linearGradient id="paint0_linear_1_2876" x1="12.5" y1="0" x2="12.5" y2="25" gradientUnits="userSpaceOnUse">
      <stop stop-color="#E0C07F"/>
      <stop offset="1" stop-color="#947034"/>
    </linearGradient>
  </defs>
</svg>
