<svg width="20" height="20" viewBox="0 0 20 20" fill="none" xmlns="http://www.w3.org/2000/svg">
<path d="M14.19 0H5.81C2.17 0 0 2.17 0 5.81V14.18C0 17.83 2.17 20 5.81 20H14.18C17.82 20 19.99 17.83 19.99 14.19V5.81C20 2.17 17.83 0 14.19 0ZM15 15.47C13.29 15.47 11.69 14.73 10.41 13.36C8.96 14.67 7.07 15.47 5 15.47C4.59 15.47 4.25 15.13 4.25 14.72C4.25 14.31 4.59 13.97 5 13.97C8.47 13.97 11.34 11.22 11.71 7.7H10H5.01C4.6 7.7 4.26 7.36 4.26 6.95C4.26 6.54 4.6 6.21 5.01 6.21H9.25V5.28C9.25 4.87 9.59 4.53 10 4.53C10.41 4.53 10.75 4.87 10.75 5.28V6.21H12.44C12.46 6.21 12.48 6.2 12.5 6.2C12.52 6.2 12.54 6.21 12.56 6.21H14.99C15.4 6.21 15.74 6.55 15.74 6.96C15.74 7.37 15.4 7.71 14.99 7.71H13.21C13.06 9.42 12.42 10.99 11.44 12.27C12.44 13.38 13.69 13.98 15 13.98C15.41 13.98 15.75 14.32 15.75 14.73C15.75 15.14 15.41 15.47 15 15.47Z" fill="#82A9F9"/>
</svg>
