<svg xmlns="http://www.w3.org/2000/svg" width="26" height="26" viewBox="0 0 26 26" fill="none">
  <g filter="url(#filter0_d_1_12680)">
    <path d="M13 24.9844C6.38828 24.9844 1.01562 19.6117 1.01562 13C1.01562 6.38828 6.38828 1.01562 13 1.01562C19.6117 1.01562 24.9844 6.38828 24.9844 13C24.9844 19.6117 19.6117 24.9844 13 24.9844ZM13 3.5C6.87578 3.5 1.89922 6.87578 1.89922 13C1.89922 19.1242 6.87578 22.5 13 22.5C19.1242 22.5 24.1008 19.1242 24.1008 13C24.1008 6.87578 19.1242 3.5 13 3.5Z" fill="url(#paint0_linear_1_12680)"/>
  </g>
  <g filter="url(#filter1_di_1_12680)">
    <path d="M16.8593 15.1812C16.8593 13.4953 15.7116 12.4289 13.4163 12.0023C12.0757 11.7383 11.446 11.3523 11.5374 10.8344C11.578 10.225 12.0554 9.9 12.9694 9.85938C13.7515 9.85938 14.2694 10.3367 14.5233 11.2914L16.6054 10.6414C16.2499 9.11797 15.3358 8.21406 13.8835 7.90937V6H12.1062V7.84844C10.4101 8.12266 9.50615 9.13828 9.38428 10.8953C9.29287 12.5813 10.4913 13.6477 12.9593 14.0742C14.0866 14.2469 14.6452 14.6125 14.6452 15.1812C14.6452 15.9633 14.1069 16.3492 13.0202 16.3492C12.0655 16.3898 11.4358 15.7602 11.1413 14.4703L9.13037 15.0594C9.63818 16.9078 10.6335 17.9539 12.1062 18.2281V20.0867H13.8835V18.2281C15.7929 17.9437 16.7882 16.9281 16.8593 15.1812Z" fill="url(#paint1_linear_1_12680)"/>
  </g>
  <defs>
    <filter id="filter0_d_1_12680" x="1.01562" y="0.715625" width="23.9688" height="24.2688" filterUnits="userSpaceOnUse" color-interpolation-filters="sRGB">
      <feFlood flood-opacity="0" result="BackgroundImageFix"/>
      <feColorMatrix in="SourceAlpha" type="matrix" values="0 0 0 0 0 0 0 0 0 0 0 0 0 0 0 0 0 0 127 0" result="hardAlpha"/>
      <feOffset dy="-0.3"/>
      <feComposite in2="hardAlpha" operator="out"/>
      <feColorMatrix type="matrix" values="0 0 0 0 1 0 0 0 0 1 0 0 0 0 1 0 0 0 1 0"/>
      <feBlend mode="normal" in2="BackgroundImageFix" result="effect1_dropShadow_1_12680"/>
      <feBlend mode="normal" in="SourceGraphic" in2="effect1_dropShadow_1_12680" result="shape"/>
    </filter>
    <filter id="filter1_di_1_12680" x="9.13037" y="5.8" width="7.729" height="14.2867" filterUnits="userSpaceOnUse" color-interpolation-filters="sRGB">
      <feFlood flood-opacity="0" result="BackgroundImageFix"/>
      <feColorMatrix in="SourceAlpha" type="matrix" values="0 0 0 0 0 0 0 0 0 0 0 0 0 0 0 0 0 0 127 0" result="hardAlpha"/>
      <feOffset dy="-0.2"/>
      <feComposite in2="hardAlpha" operator="out"/>
      <feColorMatrix type="matrix" values="0 0 0 0 1 0 0 0 0 1 0 0 0 0 1 0 0 0 1 0"/>
      <feBlend mode="normal" in2="BackgroundImageFix" result="effect1_dropShadow_1_12680"/>
      <feBlend mode="normal" in="SourceGraphic" in2="effect1_dropShadow_1_12680" result="shape"/>
      <feColorMatrix in="SourceAlpha" type="matrix" values="0 0 0 0 0 0 0 0 0 0 0 0 0 0 0 0 0 0 127 0" result="hardAlpha"/>
      <feOffset dy="-0.5"/>
      <feComposite in2="hardAlpha" operator="arithmetic" k2="-1" k3="1"/>
      <feColorMatrix type="matrix" values="0 0 0 0 0 0 0 0 0 0 0 0 0 0 0 0 0 0 0.25 0"/>
      <feBlend mode="normal" in2="shape" result="effect2_innerShadow_1_12680"/>
    </filter>
    <linearGradient id="paint0_linear_1_12680" x1="13" y1="1.01563" x2="13" y2="24.9844" gradientUnits="userSpaceOnUse">
      <stop stop-color="#A57C15"/>
      <stop offset="0.255" stop-color="#FFD568"/>
      <stop offset="0.5" stop-color="#FFE9B0"/>
      <stop offset="0.77" stop-color="#FFD874"/>
      <stop offset="1" stop-color="#AE810E"/>
    </linearGradient>
    <linearGradient id="paint1_linear_1_12680" x1="12.9948" y1="6" x2="12.9948" y2="20.0867" gradientUnits="userSpaceOnUse">
      <stop stop-color="#A57C15"/>
      <stop offset="0.255" stop-color="#FFD568"/>
      <stop offset="0.5" stop-color="#FFE9B0"/>
      <stop offset="0.77" stop-color="#FFD874"/>
      <stop offset="1" stop-color="#AE810E"/>
    </linearGradient>
  </defs>
</svg>
