<svg xmlns="http://www.w3.org/2000/svg" width="22" height="21" viewBox="0 0 22 21" fill="none">
  <path d="M20.558 19.2593L20.6872 19.2945H20.8211C20.8656 19.2945 20.907 19.3116 20.9406 19.3445C20.9724 19.3758 20.9864 19.4107 20.9888 19.4408C20.9843 19.5242 20.9159 19.5899 20.8312 19.5899H1.18906C1.1015 19.5899 1.03125 19.5196 1.03125 19.432C1.03125 19.401 1.04091 19.3725 1.06271 19.3452C1.08644 19.3155 1.1215 19.2919 1.16112 19.2814L1.23646 19.2614L1.30779 19.23C2.25406 18.8132 2.97105 17.9809 3.23575 16.9688H3.34687V16.1008V15.9688V9.94543L3.35649 9.65408C3.47262 6.13439 6.06428 3.24422 9.44544 2.65386L10.2734 2.50929V1.66876V1.53673C10.2734 1.29223 10.4701 1.09454 10.7156 1.09454C10.9601 1.09454 11.1578 1.29125 11.1578 1.53673V1.66876V2.50929L11.9858 2.65386C15.367 3.24422 17.9586 6.13439 18.0748 9.65408L18.0844 9.94544V15.9789V15.979V15.9792V15.9793V15.9794V15.9795V15.9796V15.9797V15.9799V15.98V15.9801V15.9802V15.9803V15.9804V15.9806V15.9807V15.9808V15.9809V15.981V15.9811V15.9813V15.9814V15.9815V15.9816V15.9817V15.9818V15.9819V15.9821V15.9822V15.9823V15.9824V15.9825V15.9826V15.9827V15.9828V15.983V15.9831V15.9832V15.9833V15.9834V15.9835V15.9836V15.9837V15.9838V15.9839V15.9841V15.9842V15.9843V15.9844V15.9845V15.9846V15.9847V15.9848V15.9849V15.985V15.9851V15.9852V15.9854V15.9855V15.9856V15.9857V15.9858V15.9859V15.986V15.9861V15.9862V15.9863V15.9864V15.9865V15.9866V15.9867V15.9868V15.9869V15.987V15.9872V15.9873V15.9874V15.9875V15.9876V15.9877V15.9878V15.9879V15.988V15.9881V15.9882V15.9883V15.9884V15.9885V15.9886V15.9887V15.9888V15.9889V15.989V15.9891V15.9892V15.9893V15.9894V15.9895V15.9896V15.9897V15.9898V15.9899V15.99V15.9901V15.9902V15.9903V15.9904V15.9905V15.9906V15.9907V15.9908V15.9909V15.991V15.9911V15.9912V15.9913V15.9914V15.9915V15.9916V15.9917V15.9918V15.9919V15.992V15.9921V15.9922V15.9923V15.9924V15.9925V15.9926V15.9927V15.9928V15.9929V15.993V15.9931V15.9931V15.9932V15.9933V15.9934V15.9935V15.9936V15.9937V15.9938V15.9939V15.994V15.9941V15.9942V15.9943V15.9944V15.9945V15.9946V15.9947V15.9948V15.9949V15.995V15.995V15.9951V15.9952V15.9953V15.9954V15.9955V15.9956V15.9957V15.9958V15.9959V15.996V15.9961V15.9962V15.9963V15.9964V15.9964V15.9965V15.9966V15.9967V15.9968V15.9969V15.997V15.9971V15.9972V15.9973V15.9974V15.9975V15.9976V15.9976V15.9977V15.9978V15.9979V15.998V15.9981V15.9982V15.9983V15.9984V15.9985V15.9986V15.9986V15.9987V15.9988V15.9989V15.999V15.9991V15.9992V15.9993V15.9994V15.9995V15.9996V15.9996V15.9997V15.9998V15.9999V16V16.0001V16.0002V16.0003V16.0004V16.0005V16.0006V16.0006V16.0007V16.0008V16.0009V16.001V16.0011V16.0012V16.0013V16.0014V16.0014V16.0015V16.0016V16.0017V16.0018V16.0019V16.002V16.0021V16.0022V16.0023V16.0023V16.0024V16.0025V16.0026V16.0027V16.0028V16.0029V16.003V16.0031V16.0031V16.0032V16.0033V16.0034V16.0035V16.0036V16.0037V16.0038V16.0039V16.004V16.004V16.0041V16.0042V16.0043V16.0044V16.0045V16.0046V16.0047V16.0048V16.0048V16.0049V16.005V16.0051V16.0052V16.0053V16.0054V16.0055V16.0056V16.0057V16.0057V16.0058V16.0059V16.006V16.0061V16.0062V16.0063V16.0064V16.0065V16.0065V16.0066V16.0067V16.0068V16.0069V16.007V16.0071V16.0072V16.0073V16.0074V16.0074V16.0075V16.0076V16.0077V16.0078V16.0079V16.008V16.0081V16.0082V16.0083V16.0083V16.0084V16.0085V16.0086V16.0087V16.0088V16.0089V16.009V16.0091V16.0092V16.0092V16.0093V16.0094V16.0095V16.0096V16.0097V16.0098V16.0099V16.01V16.0101V16.0102V16.0102V16.0103V16.0104V16.0105V16.0106V16.0107V16.0108V16.0109V16.011V16.0111V16.0112V16.0113V16.0113V16.0114V16.0115V16.0116V16.0117V16.0118V16.0119V16.012V16.0121V16.0122V16.0123V16.0124V16.0125V16.0125V16.0126V16.0127V16.0128V16.0129V16.013V16.0131V16.0132V16.0133V16.0134V16.0135V16.0136V16.0137V16.0138V16.0139V16.014V16.014V16.0141V16.0142V16.0143V16.0144V16.0145V16.0146V16.0147V16.0148V16.0149V16.015V16.0151V16.0152V16.0153V16.0154V16.0155V16.0156V16.0157V16.0158V16.0159V16.016V16.0161V16.0162V16.0162V16.0163V16.0164V16.0165V16.0166V16.0167V16.0168V16.0169V16.017V16.0171V16.0172V16.0173V16.0174V16.0175V16.0176V16.0177V16.0178V16.0179V16.018V16.0181V16.0182V16.0183V16.0184V16.0185V16.0186V16.0187V16.0188V16.0189V16.019V16.0191V16.0192V16.0193V16.0194V16.0195V16.0196V16.0197V16.0198V16.0199V16.02V16.0201V16.0202V16.0203V16.0204V16.0205V16.0206V16.0207V16.0208V16.021V16.0211V16.0212V16.0213V16.0214V16.0215V16.0216V16.0217V16.0218V16.0219V16.022V16.0221V16.0222V16.0223V16.0224V16.0225V16.0226V16.0227V16.0228V16.0229V16.0231V16.0232V16.0233V16.0234V16.0235V16.0236V16.0237V16.0238V16.0239V16.024V16.0241V16.0242V16.0243V16.0245V16.0246V16.0247V16.0248V16.0249V16.025V16.0251V16.0252V16.0253V16.0254V16.0256V16.0257V16.0258V16.0259V16.026V16.0261V16.0262V16.0263V16.0265V16.0266V16.0267V16.0268V16.0269V16.027V16.0271V16.0273V16.0274V16.0275V16.0276V16.0277V16.0278V16.0279V16.0281V16.0282V16.0283V16.0284V16.0285V16.0286V16.0288V16.0289V16.029V16.0291V16.0292V16.0293V16.0295V16.0296V16.0297C18.0844 17.5831 19.1328 18.8706 20.558 19.2593Z" stroke="url(#paint0_linear_1_12699)" stroke-width="2"/>
  <defs>
    <linearGradient id="paint0_linear_1_12699" x1="11.0102" y1="0.0945435" x2="11.0102" y2="20.5899" gradientUnits="userSpaceOnUse">
      <stop stop-color="#A57C15"/>
      <stop offset="0.255" stop-color="#FFD568"/>
      <stop offset="0.5" stop-color="#FFE9B0"/>
      <stop offset="0.77" stop-color="#FFD874"/>
      <stop offset="1" stop-color="#AE810E"/>
    </linearGradient>
  </defs>
</svg>
