<svg width="24" height="24" viewBox="0 0 24 24" fill="none" xmlns="http://www.w3.org/2000/svg">
<g clip-path="url(#clip0_106_2468)">
<path d="M11.9998 0C10.0903 0 8.25893 0.758569 6.90867 2.10883C5.55841 3.45909 4.79984 5.29044 4.79984 7.2V11.5032L3.95144 12.3516C3.78367 12.5194 3.66942 12.7332 3.62314 12.966C3.57686 13.1987 3.60062 13.4399 3.69143 13.6592C3.78223 13.8784 3.936 14.0658 4.13329 14.1977C4.33058 14.3295 4.56254 14.3999 4.79984 14.4H19.1998C19.4371 14.3999 19.6691 14.3295 19.8664 14.1977C20.0637 14.0658 20.2175 13.8784 20.3083 13.6592C20.3991 13.4399 20.4228 13.1987 20.3765 12.966C20.3303 12.7332 20.216 12.5194 20.0482 12.3516L19.1998 11.5032V7.2C19.1998 5.29044 18.4413 3.45909 17.091 2.10883C15.7407 0.758569 13.9094 0 11.9998 0ZM11.9998 19.2C11.0451 19.2 10.1294 18.8207 9.45426 18.1456C8.77913 17.4705 8.39984 16.5548 8.39984 15.6H15.5998C15.5998 16.5548 15.2206 17.4705 14.5454 18.1456C13.8703 18.8207 12.9546 19.2 11.9998 19.2Z" fill="#82A9F9"/>
</g>
<defs>
<clipPath id="clip0_106_2468">
<rect width="24" height="24" fill="white"/>
</clipPath>
</defs>
</svg>
