<svg xmlns="http://www.w3.org/2000/svg" width="30" height="30" viewBox="0 0 30 30" fill="none">
  <rect x="7.5" y="8.75" width="15" height="11.25" fill="#161F40"/>
  <mask id="mask0_1_2867" style="mask-type:alpha" maskUnits="userSpaceOnUse" x="0" y="0" width="30" height="30">
    <rect width="30" height="30" fill="#D9D9D9"/>
  </mask>
  <g mask="url(#mask0_1_2867)">
    <path d="M13.6873 19.4375L20.7498 12.375L18.9685 10.5938L13.6873 15.875L11.0623 13.25L9.28101 15.0313L13.6873 19.4375ZM14.9998 27.5C12.1039 26.7708 9.7133 25.1094 7.82788 22.5156C5.94246 19.9219 4.99976 17.0417 4.99976 13.875V6.25L14.9998 2.5L24.9998 6.25V13.875C24.9998 17.0417 24.057 19.9219 22.1716 22.5156C20.2862 25.1094 17.8956 26.7708 14.9998 27.5Z" fill="url(#paint0_linear_1_2867)"/>
  </g>
  <defs>
    <linearGradient id="paint0_linear_1_2867" x1="14.9998" y1="2.5" x2="14.9998" y2="27.5" gradientUnits="userSpaceOnUse">
      <stop stop-color="#E0C07F"/>
      <stop offset="1" stop-color="#947034"/>
    </linearGradient>
  </defs>
</svg>