<svg width="190" height="190" viewBox="0 0 190 190" fill="none" xmlns="http://www.w3.org/2000/svg">
<g id="3_gift_bag_present_b 1">
<g id="Group">
<path id="Vector" d="M31.0234 72.8828H158.977C164.023 72.8828 168.105 76.8164 168.105 81.7148V173.82C168.105 178.719 164.023 182.652 158.977 182.652H31.0234C25.9766 182.652 21.8945 178.719 21.8945 173.82V81.7148C21.8945 76.8164 25.9766 72.8828 31.0234 72.8828Z" fill="#E71F39"/>
<path id="Vector_2" d="M155.934 72.8828V152.148C155.934 168.996 142.352 182.578 125.504 182.578H159.051C164.098 182.578 168.18 178.645 168.18 173.746V81.7148C168.18 76.8164 164.098 72.8828 159.051 72.8828H155.934ZM27.1641 181.688C28.3516 182.207 29.6875 182.578 31.0234 182.578H34.0664C31.7656 182.578 29.3906 182.281 27.1641 181.688Z" fill="#C91525"/>
<path id="Vector_3" d="M62.418 113.48L59.5234 111.699L56.6289 113.48L57.4453 110.215L54.8477 108.063L58.1875 107.84L59.4492 104.723L60.7109 107.84L64.0508 108.063L61.4531 110.215L62.418 113.48ZM44.6055 102.496L40.3008 99.8242L35.9961 102.496L37.1836 97.5977L33.3242 94.332L38.3711 93.9609L40.2266 89.2852L42.1562 93.9609L47.2031 94.332L43.3438 97.5977L44.6055 102.496ZM44.6055 128.918L40.3008 126.246L35.9961 128.918L37.1836 124.02L33.3242 120.754L38.3711 120.383L40.2266 115.707L42.1562 120.383L47.2031 120.754L43.3438 124.02L44.6055 128.918ZM44.6055 153.113L40.3008 150.441L35.9961 153.113L37.1836 148.215L33.3242 144.949L38.3711 144.578L40.2266 139.902L42.1562 144.578L47.2031 144.949L43.3438 148.215L44.6055 153.113ZM44.6055 179.461L40.3008 176.789L35.9961 179.461L37.1836 174.562L33.3242 171.297L38.3711 170.926L40.2266 166.25L42.1562 170.926L47.2031 171.297L43.3438 174.562L44.6055 179.461ZM62.418 164.098L59.5234 162.316L56.6289 164.098L57.4453 160.832L54.8477 158.68L58.1875 158.457L59.4492 155.34L60.7109 158.457L64.0508 158.68L61.4531 160.832L62.418 164.098ZM62.418 138.789L59.5234 137.008L56.6289 138.789L57.4453 135.523L54.8477 133.371L58.1875 133.148L59.4492 130.031L60.7109 133.148L64.0508 133.371L61.4531 135.523L62.418 138.789ZM102.051 113.48L99.1562 111.699L96.3359 113.48L97.1523 110.215L94.5547 108.063L97.8945 107.84L99.1562 104.723L100.418 107.84L103.758 108.063L101.16 110.215L102.051 113.48ZM79.8594 102.496L75.5547 99.8242L71.25 102.496L72.4375 97.5977L68.5781 94.332L73.625 93.9609L75.4805 89.2852L77.3359 93.9609L82.3828 94.332L78.5234 97.5977L79.8594 102.496ZM79.8594 128.918L75.5547 126.246L71.25 128.918L72.4375 124.02L68.5781 120.754L73.625 120.383L75.4805 115.707L77.3359 120.383L82.3828 120.754L78.5234 124.02L79.8594 128.918ZM79.8594 153.113L75.5547 150.441L71.25 153.113L72.4375 148.215L68.5781 144.949L73.625 144.578L75.4805 139.902L77.3359 144.578L82.3828 144.949L78.5234 148.215L79.8594 153.113ZM79.8594 179.461L75.5547 176.789L71.25 179.461L72.4375 174.562L68.5781 171.297L73.625 170.926L75.4805 166.25L77.3359 170.926L82.3828 171.297L78.5234 174.562L79.8594 179.461ZM102.051 164.098L99.1562 162.316L96.3359 164.098L97.1523 160.832L94.5547 158.68L97.8945 158.457L99.1562 155.34L100.418 158.457L103.758 158.68L101.16 160.832L102.051 164.098ZM102.051 138.789L99.1562 137.008L96.3359 138.789L97.1523 135.523L94.5547 133.371L97.8945 133.148L99.1562 130.031L100.418 133.148L103.758 133.371L101.16 135.523L102.051 138.789ZM141.609 113.48L138.715 111.699L135.82 113.48L136.637 110.215L134.039 108.063L137.379 107.84L138.641 104.723L139.902 107.84L143.242 108.063L140.645 110.215L141.609 113.48ZM123.797 102.496L119.492 99.8242L115.188 102.496L116.375 97.5977L112.516 94.332L117.562 93.9609L119.418 89.2852L121.348 93.9609L126.395 94.332L122.535 97.5977L123.797 102.496ZM123.797 128.918L119.492 126.246L115.188 128.918L116.375 124.02L112.516 120.754L117.562 120.383L119.418 115.707L121.348 120.383L126.395 120.754L122.535 124.02L123.797 128.918ZM123.797 153.113L119.492 150.441L115.188 153.113L116.375 148.215L112.516 144.949L117.562 144.578L119.418 139.902L121.348 144.578L126.395 144.949L122.535 148.215L123.797 153.113ZM123.797 179.461L119.492 176.789L115.188 179.461L116.375 174.562L112.516 171.297L117.562 170.926L119.418 166.25L121.348 170.926L126.395 171.297L122.535 174.562L123.797 179.461ZM141.609 164.098L138.715 162.316L135.82 164.098L136.637 160.832L134.039 158.68L137.379 158.457L138.641 155.34L139.902 158.457L143.242 158.68L140.645 160.832L141.609 164.098ZM141.609 138.789L138.715 137.008L135.82 138.789L136.637 135.523L134.039 133.371L137.379 133.148L138.641 130.031L139.902 133.148L143.242 133.371L140.645 135.523L141.609 138.789ZM159.051 102.496L154.746 99.8242L150.441 102.496L151.703 97.5977L147.844 94.332L152.891 93.9609L154.746 89.2852L156.602 93.9609L161.648 94.332L157.789 97.5977L159.051 102.496ZM159.051 128.918L154.746 126.246L150.441 128.918L151.703 124.02L147.844 120.754L152.891 120.383L154.746 115.707L156.602 120.383L161.648 120.754L157.789 124.02L159.051 128.918Z" fill="#F4A424"/>
<path id="Vector_4" d="M155.934 92.2539V100.566L159.051 102.496L157.863 97.5977L161.723 94.332L156.676 93.9609L155.934 92.2539ZM155.934 118.676V126.914L159.051 128.844L157.863 123.945L161.723 120.68L156.676 120.309L155.934 118.676ZM155.934 142.871V151.184L159.051 153.113L157.863 148.215L161.723 144.949L156.676 144.578L155.934 142.871ZM155.934 169.219V173.746C155.934 174.934 155.711 176.047 155.266 177.086L159.051 179.461L157.863 174.562L161.723 171.297L156.676 170.926L155.934 169.219Z" fill="#F0861B"/>
<path id="Vector_5" d="M159.051 153.113L154.746 150.441L150.441 153.113L151.703 148.215L147.844 144.949L152.891 144.578L154.746 139.902L156.602 144.578L161.648 144.949L157.789 148.215L159.051 153.113Z" fill="#F4A424"/>
<path id="Vector_6" d="M159.051 179.461L154.746 176.789L150.441 179.461L151.703 174.562L147.844 171.297L152.891 170.926L154.746 166.25L156.602 170.926L161.648 171.297L157.789 174.562L159.051 179.461Z" fill="#F0861B"/>
<path id="Vector_7" d="M21.8945 48.5391H168.105C171.445 48.5391 174.191 51.2852 174.191 54.625V78.9687C174.191 82.3086 171.445 85.0547 168.105 85.0547H21.8945C18.5547 85.0547 15.8086 82.3086 15.8086 78.9687V54.625C15.8086 51.2852 18.4805 48.5391 21.8945 48.5391Z" fill="#C91525"/>
<path id="Vector_8" d="M155.934 48.5391C159.273 48.5391 162.02 51.2852 162.02 54.625V78.9687C162.02 82.3086 159.273 85.0547 155.934 85.0547H168.105C171.445 85.0547 174.191 82.3086 174.191 78.9687V54.625C174.191 51.2852 171.445 48.5391 168.105 48.5391H155.934Z" fill="#B71C22"/>
<path id="Vector_9" d="M30.7266 80.8984L26.4219 78.2266L22.1172 80.8984L23.3047 76L19.5195 72.7344L24.5664 72.3633L26.4219 67.6875L28.2773 72.3633L33.3984 72.7344L29.5391 76L30.7266 80.8984ZM34.7344 60.7852L37.6289 59.0039L40.5234 60.7852L39.707 57.5195L42.3047 55.3672L38.9648 55.1445L37.5547 51.9531L36.293 55.0703L32.9531 55.293L35.5508 57.4453L34.7344 60.7852ZM66.6484 62.9375L62.3438 60.2656L58.0391 62.9375L59.3008 58.0391L55.4414 54.7734L60.4883 54.4023L62.3438 49.7266L64.1992 54.4023L69.2461 54.7734L65.3867 58.0391L66.6484 62.9375ZM48.2422 80.8984L51.1367 79.1172L54.0313 80.8984L53.2148 77.6328L55.8125 75.4805L52.4727 75.2578L51.2109 72.1406L49.9492 75.2578L46.6094 75.4805L49.207 77.6328L48.2422 80.8984ZM82.9023 80.8984L78.5977 78.2266L74.293 80.8984L75.4805 76L71.6211 72.7344L76.668 72.3633L78.5234 67.6875L80.4531 72.3633L85.5 72.7344L81.6406 76L82.9023 80.8984ZM86.8359 60.7852L89.7305 59.0039L92.5508 60.7852L91.7344 57.5195L94.332 55.3672L90.9922 55.1445L89.7305 52.0273L88.4688 55.1445L85.1289 55.3672L87.7266 57.5195L86.8359 60.7852ZM118.75 62.9375L114.445 60.2656L110.141 62.9375L111.402 58.0391L107.543 54.7734L112.59 54.4023L114.445 49.7266L116.301 54.4023L121.348 54.7734L117.488 58.0391L118.75 62.9375ZM100.344 80.8984L103.238 79.1172L106.133 80.8984L105.316 77.6328L107.914 75.4805L104.574 75.2578L103.312 72.1406L102.051 75.2578L98.7109 75.4805L101.309 77.6328L100.344 80.8984ZM136.34 80.8984L132.035 78.2266L127.73 80.8984L128.992 76L125.133 72.7344L130.18 72.3633L132.035 67.6875L133.891 72.3633L138.938 72.7344L135.078 76L136.34 80.8984ZM140.348 60.7852L143.242 59.0039L146.063 60.7852L145.246 57.5195L147.844 55.3672L144.504 55.1445L143.242 52.0273L141.98 55.1445L138.641 55.3672L141.238 57.5195L140.348 60.7852ZM153.855 80.8984L156.75 79.1172L159.57 80.8984L158.754 77.6328L161.352 75.4805L158.012 75.2578L156.75 72.1406L155.488 75.2578L152.148 75.4805L154.746 77.6328L153.855 80.8984ZM15.8086 57.5937V57.7422L19.2969 54.7734L15.8086 54.5508V57.5937ZM15.8086 59.4492V62.418L16.6992 62.9375L15.8086 59.4492Z" fill="#F3961A"/>
<path id="Vector_10" d="M88.9141 48.4648V182.578H101.086V48.4648H88.9141Z" fill="#337BC0"/>
<path id="Vector_11" d="M90.5469 36.3672C72.7344 36.3672 58.1133 50.9883 58.1133 68.8008L65.4609 62.1211L70.3594 68.8008C70.2852 57.668 79.3398 48.6133 90.4727 48.5391C90.5469 48.5391 90.6211 48.5391 90.6211 48.5391V36.3672H90.5469ZM99.4531 36.3672C117.266 36.3672 131.887 50.9883 131.887 68.8008L125.207 62.7148L119.715 68.8008C119.789 57.668 110.809 48.6133 99.6758 48.5391C99.6016 48.5391 99.5273 48.5391 99.4531 48.5391V36.3672Z" fill="#337BC0"/>
<path id="Vector_12" d="M90.5469 36.3672C77.7812 36.3672 66.7227 43.8633 61.4531 54.625H76.0742C79.8594 50.6914 85.1289 48.5391 90.5469 48.5391V36.3672ZM99.4531 36.3672V48.5391C105.168 48.5391 110.289 50.8398 113.926 54.625H128.547C123.277 43.8633 112.219 36.3672 99.4531 36.3672Z" fill="#2B67B2"/>
<path id="Vector_13" d="M172.262 62.9375L167.957 60.2656L163.652 62.9375L164.84 58.0391L160.98 54.7734L166.027 54.4023L167.883 49.7266L169.738 54.4023L174.117 54.6992V55.293L170.926 57.9648L172.262 62.9375Z" fill="#F0861B"/>
<path id="Vector_14" d="M70.6562 7.42188C59.1523 7.42188 49.3555 16.5508 49.3555 27.9805C49.3555 39.4102 59.1523 48.5391 70.6562 48.5391H95C98.3398 48.5391 101.086 45.793 101.086 42.4531C101.086 41.8594 101.012 41.3398 100.863 40.8203C98.8594 33.8438 97.4492 26.2734 93.6641 19.5938C89.8789 12.9141 82.457 7.49609 72.4375 7.49609L70.6562 7.42188ZM70.6562 19.5938H72.5117C78.9687 19.5938 80.75 21.375 83.125 25.5313C84.4609 27.9805 85.5742 32.4336 86.6875 36.293H70.6562C65.3125 36.293 61.5273 32.5078 61.5273 27.9062C61.5273 23.3047 65.3125 19.5938 70.6562 19.5938Z" fill="#337BC0"/>
<path id="Vector_15" d="M117.563 7.42188C107.543 7.42188 100.121 12.8398 96.336 19.5195C92.5508 26.1992 91.0665 33.7695 89.1368 40.7461C88.2461 44.0117 90.1016 47.3516 93.3672 48.2422C93.8868 48.3906 94.4805 48.4648 95 48.4648H119.344C130.848 48.4648 140.645 39.3359 140.645 27.9062C140.645 16.4766 130.848 7.34766 119.344 7.34766H117.563V7.42188ZM117.563 19.5938H119.418C124.762 19.5938 128.547 23.3789 128.547 27.9805C128.547 32.582 124.762 36.3672 119.418 36.3672H103.461C104.574 32.5078 105.613 27.9805 107.023 25.6055C109.324 21.375 111.106 19.5938 117.563 19.5938Z" fill="#337BC0"/>
</g>
</g>
</svg>
