<svg width="200" height="200" viewBox="0 0 200 200" fill="none" xmlns="http://www.w3.org/2000/svg">
<g filter="url(#filter0_ii_45_1128)">
<rect width="200" height="200" rx="100" fill="white" fill-opacity="0.3"/>
<g filter="url(#filter1_d_45_1128)">
<path d="M63.6093 42.1487C57.1644 42.9419 53.0496 47.7013 53 54.3941C53 60.7398 57.1148 66.4907 64.2042 69.8123C67.8233 71.4979 71.4424 72.2415 80.9114 73.0843C83.539 73.2826 87.8025 73.5801 90.3805 73.6792C94.5449 73.8775 95.1398 73.9767 96.6767 74.6708C99.0068 75.811 102.18 75.811 104.311 74.6708C105.7 73.9767 106.146 73.8775 110.756 73.6792C119.779 73.3322 130.339 72.0928 133.71 70.9525C138.866 69.1678 143.625 65.4496 145.856 61.2852C148.781 55.8814 147.74 48.5936 143.477 44.8258C138.866 40.7606 129.595 41.1572 122.258 45.7182C118.689 47.9492 115.218 51.3203 111.153 56.4267C109.219 58.8064 107.484 60.9877 107.336 61.186C107.088 61.4835 106.691 61.3843 105.402 60.5415C102.874 58.8559 100.792 58.4593 98.0153 59.3021C97.222 59.55 95.9826 60.1945 95.2886 60.7894C94.5945 61.3347 93.9996 61.8305 93.9004 61.8305C93.8013 61.8305 92.2644 59.9962 90.5292 57.7157C83.2415 48.4945 77.4907 44.0326 70.8475 42.5949C68.3686 42 65.7907 41.8513 63.6093 42.1487ZM69.5585 47.1064C75.4085 48.5441 79.3746 51.7169 86.6127 60.6407C88.8932 63.5161 91.1242 66.1932 91.4712 66.6394C91.8182 67.036 92.1157 67.8292 92.1653 68.2754V69.1182L88.9428 68.9199C79.672 68.3746 70.9962 67.2839 68.0712 66.3419C61.9733 64.2102 58.1559 60.1945 57.8585 55.3856C57.6602 52.7085 58.3047 50.428 59.6432 48.8911C61.6758 46.4123 64.7 45.8669 69.5585 47.1064ZM138.618 47.1064C142.436 48.6432 143.923 54.8898 141.494 59.4013C139.907 62.3758 136.586 64.8547 132.322 66.2924C129.347 67.2839 121.267 68.2754 111.797 68.8703L108.575 69.0686L108.773 67.8788C108.972 66.4907 108.674 66.8873 113.83 60.5911C118.391 54.989 121.465 51.9153 124.192 50.0809C129.199 46.8089 134.9 45.6191 138.618 47.1064ZM102.279 64.2102C103.617 65.053 104.311 66.6394 103.865 68.0771C102.675 72.0432 96.9741 71.2996 96.9741 67.1847C96.9741 64.3589 99.8496 62.7725 102.279 64.2102Z" fill="url(#paint0_linear_45_1128)"/>
<path d="M61.8246 78.2402C61.1802 78.5376 60.2878 79.1821 59.8912 79.5787C59.1475 80.3719 59.1475 80.4215 59.0484 86.8169L58.9492 93.2122H68.5174H78.1352V85.4287V77.6948H70.5996C63.8573 77.6948 62.8657 77.7444 61.8246 78.2402Z" fill="url(#paint1_linear_45_1128)"/>
<path d="M82.8943 85.4287V93.2122H111.599H140.304V87.0152C140.304 79.9753 140.105 79.1325 138.221 78.2402C137.23 77.7444 135.247 77.6948 110.062 77.6948H82.8943V85.4287Z" fill="url(#paint2_linear_45_1128)"/>
<path d="M58.999 126.28C58.999 153.497 59.0486 154.588 59.5444 155.678C60.2384 157.067 61.23 157.959 62.6181 158.554C63.5105 158.901 65.0969 159 70.9469 159H78.1355V128.511V98.0212H68.5672H58.999V126.28Z" fill="url(#paint3_linear_45_1128)"/>
<path d="M82.8943 128.511V159L110.211 158.95L137.527 158.851L138.37 158.108C140.056 156.571 140.304 155.53 140.304 149.184V143.433H130.091C118.54 143.433 118.44 143.384 112.789 140.905C111.252 140.211 107.831 138.823 105.303 137.781C102.774 136.74 100.494 135.699 100.296 135.402C99.5519 134.509 100.543 131.733 101.733 131.336C102.031 131.237 103.964 131.832 106.096 132.725C108.228 133.567 110.112 134.311 110.36 134.41C110.558 134.509 110.707 134.311 110.707 133.865C110.707 133.22 110.062 132.923 103.964 130.444C96.9739 127.717 96.0816 127.123 96.0816 125.586C96.0816 124.545 97.321 123.404 98.4612 123.404C99.1057 123.404 106.493 126.131 110.905 128.064C111.103 128.164 111.351 127.866 111.549 127.47C111.896 126.775 111.896 126.775 104.658 123.85C97.1723 120.876 96.0816 120.231 96.0816 118.744C96.0816 117.703 97.321 116.513 98.4612 116.513C98.957 116.513 103.022 118 107.435 119.736C115.317 122.958 115.515 122.958 116.259 122.462L117.052 121.967L111.45 119.636C103.072 116.166 102.774 116.017 102.427 114.976C101.882 113.34 102.923 111.903 104.559 111.903C105.104 111.952 109.616 113.638 114.574 115.72L123.646 119.488L125.629 119.141C126.72 118.942 128.157 118.744 128.752 118.595L129.942 118.397L124.836 113.39C119.234 107.837 119.035 107.54 120.572 105.953C122.258 104.268 122.654 104.516 127.81 109.92C130.339 112.597 133.809 116.067 135.544 117.604C137.279 119.141 139.064 120.727 139.56 121.173L140.353 121.967V109.969V98.0212H111.649H82.8943V128.511Z" fill="url(#paint4_linear_45_1128)"/>
</g>
<circle cx="47" cy="177" r="5" fill="url(#paint5_linear_45_1128)"/>
<circle cx="132.5" cy="171.5" r="1.5" fill="url(#paint6_linear_45_1128)"/>
<circle cx="70.5" cy="126.5" r="1.5" fill="url(#paint7_linear_45_1128)"/>
<circle cx="32.5" cy="73.5" r="3.5" fill="url(#paint8_linear_45_1128)"/>
<circle cx="120.5" cy="20.5" r="2.5" fill="url(#paint9_linear_45_1128)"/>
</g>
<defs>
<filter id="filter0_ii_45_1128" x="0" y="0" width="200" height="200" filterUnits="userSpaceOnUse" color-interpolation-filters="sRGB">
<feFlood flood-opacity="0" result="BackgroundImageFix"/>
<feBlend mode="normal" in="SourceGraphic" in2="BackgroundImageFix" result="shape"/>
<feColorMatrix in="SourceAlpha" type="matrix" values="0 0 0 0 0 0 0 0 0 0 0 0 0 0 0 0 0 0 127 0" result="hardAlpha"/>
<feOffset dy="7"/>
<feComposite in2="hardAlpha" operator="arithmetic" k2="-1" k3="1"/>
<feColorMatrix type="matrix" values="0 0 0 0 1 0 0 0 0 1 0 0 0 0 1 0 0 0 0.25 0"/>
<feBlend mode="normal" in2="shape" result="effect1_innerShadow_45_1128"/>
<feColorMatrix in="SourceAlpha" type="matrix" values="0 0 0 0 0 0 0 0 0 0 0 0 0 0 0 0 0 0 127 0" result="hardAlpha"/>
<feOffset dy="-7"/>
<feComposite in2="hardAlpha" operator="arithmetic" k2="-1" k3="1"/>
<feColorMatrix type="matrix" values="0 0 0 0 0 0 0 0 0 0 0 0 0 0 0 0 0 0 0.25 0"/>
<feBlend mode="normal" in2="effect1_innerShadow_45_1128" result="effect2_innerShadow_45_1128"/>
</filter>
<filter id="filter1_d_45_1128" x="52" y="42" width="102.514" height="125" filterUnits="userSpaceOnUse" color-interpolation-filters="sRGB">
<feFlood flood-opacity="0" result="BackgroundImageFix"/>
<feColorMatrix in="SourceAlpha" type="matrix" values="0 0 0 0 0 0 0 0 0 0 0 0 0 0 0 0 0 0 127 0" result="hardAlpha"/>
<feOffset dx="3" dy="4"/>
<feGaussianBlur stdDeviation="2"/>
<feComposite in2="hardAlpha" operator="out"/>
<feColorMatrix type="matrix" values="0 0 0 0 0 0 0 0 0 0 0 0 0 0 0 0 0 0 0.25 0"/>
<feBlend mode="normal" in2="BackgroundImageFix" result="effect1_dropShadow_45_1128"/>
<feBlend mode="normal" in="SourceGraphic" in2="effect1_dropShadow_45_1128" result="shape"/>
</filter>
<linearGradient id="paint0_linear_45_1128" x1="72.3874" y1="34.2172" x2="129.419" y2="58.4483" gradientUnits="userSpaceOnUse">
<stop stop-color="#D7FFC5"/>
<stop offset="0.775" stop-color="#72FF62"/>
<stop offset="1" stop-color="#5CFF4E"/>
</linearGradient>
<linearGradient id="paint1_linear_45_1128" x1="62.8848" y1="74.0926" x2="76.0933" y2="76.5539" gradientUnits="userSpaceOnUse">
<stop stop-color="#D7FFC5"/>
<stop offset="0.775" stop-color="#72FF62"/>
<stop offset="1" stop-color="#5CFF4E"/>
</linearGradient>
<linearGradient id="paint2_linear_45_1128" x1="94.6706" y1="74.0926" x2="125.867" y2="91.4872" gradientUnits="userSpaceOnUse">
<stop stop-color="#D7FFC5"/>
<stop offset="0.775" stop-color="#72FF62"/>
<stop offset="1" stop-color="#5CFF4E"/>
</linearGradient>
<linearGradient id="paint3_linear_45_1128" x1="62.9244" y1="83.8654" x2="76.5258" y2="84.5087" gradientUnits="userSpaceOnUse">
<stop stop-color="#D7FFC5"/>
<stop offset="0.775" stop-color="#72FF62"/>
<stop offset="1" stop-color="#5CFF4E"/>
</linearGradient>
<linearGradient id="paint4_linear_45_1128" x1="94.6807" y1="83.8654" x2="134.802" y2="89.5632" gradientUnits="userSpaceOnUse">
<stop stop-color="#D7FFC5"/>
<stop offset="0.775" stop-color="#72FF62"/>
<stop offset="1" stop-color="#5CFF4E"/>
</linearGradient>
<linearGradient id="paint5_linear_45_1128" x1="47" y1="172" x2="47" y2="182" gradientUnits="userSpaceOnUse">
<stop stop-color="#E3FF43"/>
<stop offset="1" stop-color="#27797F"/>
</linearGradient>
<linearGradient id="paint6_linear_45_1128" x1="132.5" y1="170" x2="132.5" y2="173" gradientUnits="userSpaceOnUse">
<stop stop-color="#E3FF43"/>
<stop offset="1" stop-color="#27797F"/>
</linearGradient>
<linearGradient id="paint7_linear_45_1128" x1="70.5" y1="125" x2="70.5" y2="128" gradientUnits="userSpaceOnUse">
<stop stop-color="#E3FF43"/>
<stop offset="1" stop-color="#27797F"/>
</linearGradient>
<linearGradient id="paint8_linear_45_1128" x1="32.5" y1="70" x2="32.5" y2="77" gradientUnits="userSpaceOnUse">
<stop stop-color="#E3FF43"/>
<stop offset="1" stop-color="#27797F"/>
</linearGradient>
<linearGradient id="paint9_linear_45_1128" x1="120.5" y1="18" x2="120.5" y2="23" gradientUnits="userSpaceOnUse">
<stop stop-color="#E3FF43"/>
<stop offset="1" stop-color="#27797F"/>
</linearGradient>
</defs>
</svg>
