<svg width="24" height="24" viewBox="0 0 24 24" fill="none" xmlns="http://www.w3.org/2000/svg">
    <circle cx="8" cy="16" r="8" fill="#82A9F9" fill-opacity="0.3"/>
    <path d="M11.9998 20.9587C11.3498 20.9587 10.7165 20.6253 10.2832 20.042L9.4415 18.917C9.2665 18.6837 9.03317 18.5503 8.78317 18.5337C8.53317 18.5253 8.28317 18.6337 8.08317 18.842L7.60817 18.417L8.0665 18.842C6.8665 20.1253 5.9415 20.0253 5.49984 19.8503C5.04984 19.6753 4.2915 19.1003 4.2915 17.2503V7.86699C4.2915 4.16699 5.35817 3.04199 8.84984 3.04199H15.1498C18.6415 3.04199 19.7082 4.16699 19.7082 7.86699V17.2503C19.7082 19.092 18.9498 19.667 18.4998 19.8503C18.0582 20.0253 17.1415 20.1253 15.9332 18.842C15.7332 18.6253 15.4832 18.5087 15.2248 18.5337C14.9748 18.5503 14.7332 18.6837 14.5582 18.917L13.7165 20.042C13.2832 20.6253 12.6498 20.9587 11.9998 20.9587ZM8.73317 17.2753C8.7665 17.2753 8.80817 17.2753 8.8415 17.2753C9.45817 17.3087 10.0415 17.6337 10.4332 18.1587L11.2748 19.2837C11.6832 19.8253 12.3082 19.8253 12.7165 19.2837L13.5582 18.1587C13.9582 17.6337 14.5332 17.3087 15.1582 17.2753C15.7748 17.242 16.3915 17.5003 16.8415 17.9837C17.4748 18.6587 17.8832 18.742 18.0332 18.6837C18.2332 18.6003 18.4498 18.117 18.4498 17.2503V7.86699C18.4498 4.85866 17.9248 4.29199 15.1415 4.29199H8.84984C6.0665 4.29199 5.5415 4.85866 5.5415 7.86699V17.2503C5.5415 18.1253 5.75817 18.6087 5.95817 18.6837C6.09984 18.742 6.5165 18.6587 7.14984 17.9837C7.59984 17.5253 8.15817 17.2753 8.73317 17.2753Z"
          fill="#82A9F9"/>
    <path d="M15.5252 11.792H10.9419C10.6002 11.792 10.3169 11.5087 10.3169 11.167C10.3169 10.8253 10.6002 10.542 10.9419 10.542H15.5252C15.8669 10.542 16.1502 10.8253 16.1502 11.167C16.1502 11.5087 15.8669 11.792 15.5252 11.792Z"
          fill="#82A9F9"/>
    <path d="M15.5252 8.45801H10.9419C10.6002 8.45801 10.3169 8.17467 10.3169 7.83301C10.3169 7.49134 10.6002 7.20801 10.9419 7.20801H15.5252C15.8669 7.20801 16.1502 7.49134 16.1502 7.83301C16.1502 8.17467 15.8669 8.45801 15.5252 8.45801Z"
          fill="#82A9F9"/>
    <path d="M8.48324 8.66667C8.0249 8.66667 7.6499 8.29167 7.6499 7.83333C7.6499 7.375 8.0249 7 8.48324 7C8.94157 7 9.31657 7.375 9.31657 7.83333C9.31657 8.29167 8.94157 8.66667 8.48324 8.66667Z"
          fill="#82A9F9"/>
    <path d="M8.48324 11.9997C8.0249 11.9997 7.6499 11.6247 7.6499 11.1663C7.6499 10.708 8.0249 10.333 8.48324 10.333C8.94157 10.333 9.31657 10.708 9.31657 11.1663C9.31657 11.6247 8.94157 11.9997 8.48324 11.9997Z"
          fill="#82A9F9"/>
</svg>
