<svg xmlns="http://www.w3.org/2000/svg" width="19" height="23" viewBox="0 0 19 23" fill="none">
  <path d="M7.6001 8.36011L15.2001 8.36011" stroke="url(#paint0_linear_1_2805)" stroke-linecap="square" stroke-linejoin="round"/>
  <path d="M3.80005 8.36011L4.56005 8.36011" stroke="url(#paint1_linear_1_2805)" stroke-linecap="square" stroke-linejoin="round"/>
  <path d="M7.6001 5L15.2001 5" stroke="url(#paint2_linear_1_2805)" stroke-linecap="square" stroke-linejoin="round"/>
  <path d="M3.7998 5L4.5598 5" stroke="url(#paint3_linear_1_2805)" stroke-linecap="square" stroke-linejoin="round"/>
  <path d="M7.6001 12.1599L15.2001 12.1599" stroke="url(#paint4_linear_1_2805)" stroke-linecap="square" stroke-linejoin="round"/>
  <path d="M3.80005 12.1599L4.56005 12.1599" stroke="url(#paint5_linear_1_2805)" stroke-linecap="square" stroke-linejoin="round"/>
  <path d="M6.37524 20.0506L6.37489 20.0501L3.61211 20.1755L3.24392 19.8372C3.24374 19.8374 3.24357 19.8376 3.24339 19.8378C2.77683 20.3454 2.35837 20.6532 2.0119 20.8051C1.67056 20.9547 1.43098 20.9419 1.26477 20.8689C1.09359 20.7938 0.902826 20.6121 0.75036 20.2304C0.597533 19.8479 0.5 19.3013 0.5 18.5797V5.74488C0.5 3.43947 0.775995 2.19215 1.42236 1.48793C2.0546 0.799092 3.16728 0.5 5.27838 0.5H13.7327C15.844 0.5 16.9563 0.79918 17.587 1.4876C18.2318 2.19134 18.5055 3.4382 18.4999 5.74366V5.74488V18.5911C18.4999 19.31 18.403 19.8553 18.2509 20.2373C18.0991 20.6186 17.9092 20.7999 17.739 20.8748C17.5739 20.9474 17.3351 20.9605 16.9932 20.8102C16.646 20.6576 16.2259 20.3484 15.7562 19.8375C15.2804 19.3171 14.7474 18.9241 14.1242 18.9762C13.5141 19.0272 13.037 19.4902 12.625 20.0501L12.6247 20.0506L11.4969 21.5871C11.4966 21.5875 11.4963 21.5879 11.496 21.5883C11.3462 21.7894 11.086 21.9702 10.7239 22.1011C10.365 22.231 9.9373 22.3 9.49996 22.3C9.06261 22.3 8.63496 22.231 8.27599 22.1011C7.91392 21.9701 7.65371 21.7894 7.50388 21.5883C7.5036 21.5879 7.50332 21.5875 7.50305 21.5871L6.37524 20.0506Z" stroke="url(#paint6_linear_1_2805)" stroke-linecap="round" stroke-linejoin="round"/>
  <defs>
    <linearGradient id="paint0_linear_1_2805" x1="11.4001" y1="8.36011" x2="11.4001" y2="9.36011" gradientUnits="userSpaceOnUse">
      <stop stop-color="#E0C07F"/>
      <stop offset="1" stop-color="#947034"/>
    </linearGradient>
    <linearGradient id="paint1_linear_1_2805" x1="4.18005" y1="8.36011" x2="4.18005" y2="9.36011" gradientUnits="userSpaceOnUse">
      <stop stop-color="#E0C07F"/>
      <stop offset="1" stop-color="#947034"/>
    </linearGradient>
    <linearGradient id="paint2_linear_1_2805" x1="11.4001" y1="5" x2="11.4001" y2="6" gradientUnits="userSpaceOnUse">
      <stop stop-color="#E0C07F"/>
      <stop offset="1" stop-color="#947034"/>
    </linearGradient>
    <linearGradient id="paint3_linear_1_2805" x1="4.1798" y1="5" x2="4.1798" y2="6" gradientUnits="userSpaceOnUse">
      <stop stop-color="#E0C07F"/>
      <stop offset="1" stop-color="#947034"/>
    </linearGradient>
    <linearGradient id="paint4_linear_1_2805" x1="11.4001" y1="12.1599" x2="11.4001" y2="13.1599" gradientUnits="userSpaceOnUse">
      <stop stop-color="#E0C07F"/>
      <stop offset="1" stop-color="#947034"/>
    </linearGradient>
    <linearGradient id="paint5_linear_1_2805" x1="4.18005" y1="12.1599" x2="4.18005" y2="13.1599" gradientUnits="userSpaceOnUse">
      <stop stop-color="#E0C07F"/>
      <stop offset="1" stop-color="#947034"/>
    </linearGradient>
    <linearGradient id="paint6_linear_1_2805" x1="9.5" y1="0" x2="9.5" y2="22.8" gradientUnits="userSpaceOnUse">
      <stop stop-color="#E0C07F"/>
      <stop offset="1" stop-color="#947034"/>
    </linearGradient>
  </defs>
</svg>
