<svg width="37" height="24" viewBox="0 0 37 24" fill="none" xmlns="http://www.w3.org/2000/svg">
<path d="M25.782 2.27488C25.782 1.0237 24.7583 0 23.5071 0H2.27488C1.0237 0 0 1.0237 0 2.27488V4.01896H25.782V2.27488Z" fill="white"/>
<path d="M25.1754 9.28928C25.3649 9.28928 25.5924 9.28928 25.782 9.28928V6.63525H0V15.8485C0 17.0997 1.0237 18.1234 2.27488 18.1234H13.0427C14.673 13.0428 19.4882 9.28928 25.1754 9.28928ZM9.09953 14.9386H4.09479C3.63981 14.9386 3.29858 14.5594 3.29858 14.1424C3.29858 13.6874 3.67773 13.3462 4.09479 13.3462H9.06161C9.51659 13.3462 9.85782 13.7253 9.85782 14.1424C9.89573 14.5973 9.51659 14.9386 9.09953 14.9386ZM12.019 11.4504H4.09479C3.63981 11.4504 3.29858 11.1092 3.29858 10.6542C3.29858 10.1992 3.67773 9.858 4.09479 9.858H12.019C12.436 9.858 12.8152 10.1992 12.8152 10.6542C12.8152 11.1092 12.436 11.4504 12.019 11.4504Z" fill="white"/>
<path d="M24.1894 11.2227C21.9525 11.4122 19.8671 12.3222 18.2368 13.6871L20.8908 16.3411C21.8387 15.6208 22.9762 15.1279 24.1894 14.9762V11.2227Z" fill="white"/>
<path d="M14.3315 21.081H18.0851C18.2747 19.8678 18.7296 18.7303 19.45 17.7824L16.796 15.1284C15.4311 16.7587 14.559 18.8061 14.3315 21.081Z" fill="white"/>
<path d="M26.1611 11.2227V14.9762C27.3744 15.1658 28.5118 15.6208 29.4597 16.3411L32.1137 13.6871C30.4834 12.3222 28.436 11.4122 26.1611 11.2227Z" fill="white"/>
<path d="M33.5544 15.0898L30.9004 17.7439C31.6208 18.6917 32.1137 19.8292 32.2653 21.0425H36.0189C35.8293 18.8055 34.9193 16.7581 33.5544 15.0898Z" fill="white"/>
<path d="M24.796 16.986C24.1894 18.3889 23.0898 21.0429 23.0898 21.877C23.0898 23.0524 24.0377 24.0002 25.2131 24.0002C26.3884 24.0002 27.3363 23.0524 27.3363 21.877C27.3363 21.0429 26.2368 18.3889 25.6301 16.986C25.4406 16.6069 24.9477 16.6069 24.796 16.986Z" fill="white"/>
</svg>
