<svg width="24" height="24" viewBox="0 0 24 24" fill="none" xmlns="http://www.w3.org/2000/svg">
<path d="M15.0134 12.6569C13.563 12.789 11.0001 12.0651 11.1455 13.6605L11.3136 15.17C11.4588 16.7637 12.7268 17.9797 14.1753 17.8505C14.1775 17.853 14.1806 17.8581 14.1814 17.8669L14.3196 19.3837C14.3686 19.9221 15.0359 20.188 15.3447 19.679L16.5874 17.6307L18.6378 17.4439C20.0881 17.3117 21.1178 15.8853 20.9725 14.2898L20.7464 11.8086C20.601 10.2132 19.3304 8.99633 17.8801 9.12849L15.0134 12.6569Z" fill="#82A9F9"/>
<path fill-rule="evenodd" clip-rule="evenodd" d="M3 8.17839C3 5.89313 4.78511 4 7.0362 4H13.9554C16.2065 4 17.9916 5.89313 17.9916 8.17839V11.7324C17.9916 14.0177 16.2065 15.9108 13.9554 15.9108H10.7729L8.57283 18.6597C8.02609 19.3428 7.0362 18.8788 7.0362 18.1075V15.9348C7.0362 15.9222 7.03223 15.9146 7.02916 15.9108C4.78139 15.9069 3 14.0153 3 11.7324V8.17839ZM13.3788 10.0515C13.3788 10.5289 12.9916 10.916 12.5139 10.916C12.0362 10.916 11.649 10.5289 11.649 10.0515C11.649 9.57401 12.0362 9.18696 12.5139 9.18696C12.9916 9.18696 13.3788 9.57401 13.3788 10.0515ZM8.4777 10.916C8.95538 10.916 9.3426 10.5289 9.3426 10.0515C9.3426 9.57401 8.95538 9.18696 8.4777 9.18696C8.00003 9.18696 7.6128 9.57401 7.6128 10.0515C7.6128 10.5289 8.00003 10.916 8.4777 10.916Z" fill="#82A9F9"/>
</svg>
