<svg xmlns="http://www.w3.org/2000/svg" width="25" height="27" viewBox="0 0 25 27" fill="none">
  <path d="M6.875 22.5H21.25L25 26.25V13.125C25 11.7479 23.8771 10.625 22.5 10.625H6.875C5.49788 10.625 4.375 11.7479 4.375 13.125V20C4.375 21.3771 5.49788 22.5 6.875 22.5Z" fill="url(#paint0_linear_1_2846)"/>
  <path d="M15.4979 17.998H13.2521L12.8178 19.3115H11.4407L13.75 13.0615H14.9364L17.2458 19.3115H15.8686L15.4979 17.998ZM13.5593 17.0022H15.1165L14.3644 14.6293L13.5593 17.0022Z" fill="#0C0C0C"/>
  <path d="M18.125 13.125H3.75L0 16.875V2.5C0 1.12288 1.12288 0 2.5 0H18.125C19.5021 0 20.625 1.12288 20.625 2.5V10.625C20.625 12.0021 19.5021 13.125 18.125 13.125Z" fill="url(#paint1_linear_1_2846)"/>
  <path d="M13.3793 6.3772C13.3793 7.0022 13.2522 7.50008 13.0721 7.9344C12.8814 8.36873 12.6378 8.75008 12.2564 8.99373L13.3158 9.8094L12.5001 10.5615L11.123 9.5022C10.9958 9.5022 10.8158 9.56576 10.6251 9.56576C10.2543 9.56576 9.87297 9.5022 9.5022 9.37508C9.195 9.24796 8.87721 9.00432 8.62297 8.75008C8.36873 8.49584 8.18865 8.12508 8.06153 7.75432C7.93441 7.38356 7.87085 6.93864 7.87085 6.44076V6.18652C7.87085 5.68864 7.93441 5.24373 8.06153 4.87296C8.18865 4.5022 8.36873 4.12085 8.62297 3.8772C8.87721 3.62296 9.12085 3.37932 9.5022 3.2522C9.82 3.12508 10.1908 3.06152 10.6251 3.06152C10.9958 3.06152 11.3772 3.12508 11.748 3.2522C12.0658 3.37932 12.373 3.62296 12.6272 3.8772C12.8814 4.13144 13.0615 4.5022 13.1886 4.87296C13.3158 5.24373 13.3793 5.68864 13.3793 6.18652V6.3772ZM12.0022 6.0594C12.0022 5.37085 11.8751 4.87296 11.6314 4.55517C11.3772 4.1844 11.07 4.05729 10.6357 4.05729C10.2014 4.05729 9.82 4.24796 9.63992 4.55517C9.38568 4.92593 9.26915 5.4344 9.26915 6.0594V6.3772C9.26915 6.6844 9.33271 7.0022 9.39627 7.25644C9.45983 7.51068 9.52339 7.75432 9.65051 7.88144C9.77763 8.07212 9.90475 8.19923 10.0848 8.2522C10.2755 8.31576 10.4556 8.37932 10.6463 8.37932C11.0806 8.37932 11.462 8.18864 11.642 7.88144C11.8963 7.51068 12.0128 7.0022 12.0128 6.32423V6.0594H12.0022Z" fill="white"/>
  <defs>
    <linearGradient id="paint0_linear_1_2846" x1="14.6875" y1="10.625" x2="14.6875" y2="26.25" gradientUnits="userSpaceOnUse">
      <stop stop-color="#E0C07F"/>
      <stop offset="1" stop-color="#947034"/>
    </linearGradient>
    <linearGradient id="paint1_linear_1_2846" x1="10.3125" y1="0" x2="10.3125" y2="16.875" gradientUnits="userSpaceOnUse">
      <stop stop-color="#E0C07F"/>
      <stop offset="1" stop-color="#947034"/>
    </linearGradient>
  </defs>
</svg>
