<svg width="69" height="69" viewBox="0 0 69 69" fill="none" xmlns="http://www.w3.org/2000/svg">
<g id="image 1">
<g id="Group" filter="url(#filter0_di_1_14862)">
<g id="Group_2">
<g id="Group_3">
<path id="Vector" d="M3.93516 10.2961C3.39609 10.5386 2.83008 11.2125 2.74922 11.7515C2.69531 11.9672 2.69531 22.3711 2.69531 34.8773C2.72227 57.5718 2.72227 57.5988 3.01875 57.9492C3.15352 58.1379 3.45 58.4343 3.66563 58.5961L4.01602 58.8656H34.527H65.0379L65.3883 58.5961C65.577 58.4613 65.8734 58.1648 66.0352 57.9492L66.3047 57.5988V34.5269V11.4281L66.0352 11.0777C65.9004 10.889 65.6039 10.5926 65.3883 10.4308L65.0379 10.1613L34.6887 10.1343C9.64922 10.1074 4.25859 10.1344 3.93516 10.2961ZM61.9113 14.5547C62.1 14.7433 62.127 16.7379 62.127 34.5539C62.127 49.7824 62.1 54.3914 61.9652 54.4992C61.7496 54.7148 55.766 54.7148 55.4426 54.4992C55.3348 54.4183 52.2621 50.1597 48.6504 45.0926C43.9605 38.5429 41.993 35.8746 41.8043 35.8746C41.5078 35.8746 37.3031 41.6965 37.3031 42.1277C37.3031 42.2894 39.1898 45.0386 41.5617 48.3539C43.9066 51.6152 45.8203 54.3914 45.8203 54.4722C45.8203 54.607 45.443 54.6609 43.9875 54.6609C42.9633 54.6609 42.0469 54.634 41.9391 54.5801C41.8313 54.5531 37.0336 47.9226 31.2926 39.8636C24.7969 30.7804 20.7539 25.2011 20.6191 25.2011C20.5113 25.2011 20.2957 25.3629 20.1609 25.5515C19.2176 27.007 7.19648 42.4511 7.08867 42.3703C7.03477 42.3433 6.98086 36.1172 6.98086 28.5164C6.98086 16.1719 7.00781 14.7164 7.19648 14.5277C7.38516 14.339 10.0535 14.3121 34.5809 14.3121C59.0543 14.339 61.7227 14.366 61.9113 14.5547Z" fill="url(#paint0_linear_1_14862)"/>
<path id="Vector_2" d="M49.6207 18.8402C46.4133 19.8644 44.4996 23.2605 45.3352 26.4679C45.9551 28.8668 47.8957 30.7265 50.2676 31.2117C53.1785 31.8047 56.386 30.0527 57.491 27.2496C57.9223 26.1175 58.0032 24.3386 57.6258 23.1527C56.7633 20.3496 54.3645 18.5976 51.4535 18.6246C50.8067 18.5976 50.0789 18.7054 49.6207 18.8402Z" fill="url(#paint1_linear_1_14862)"/>
</g>
</g>
</g>
</g>
<defs>
<filter id="filter0_di_1_14862" x="0.695312" y="10.1252" width="67.6094" height="52.7404" filterUnits="userSpaceOnUse" color-interpolation-filters="sRGB">
<feFlood flood-opacity="0" result="BackgroundImageFix"/>
<feColorMatrix in="SourceAlpha" type="matrix" values="0 0 0 0 0 0 0 0 0 0 0 0 0 0 0 0 0 0 127 0" result="hardAlpha"/>
<feOffset dy="2"/>
<feGaussianBlur stdDeviation="1"/>
<feComposite in2="hardAlpha" operator="out"/>
<feColorMatrix type="matrix" values="0 0 0 0 0 0 0 0 0 0 0 0 0 0 0 0 0 0 0.25 0"/>
<feBlend mode="normal" in2="BackgroundImageFix" result="effect1_dropShadow_1_14862"/>
<feBlend mode="normal" in="SourceGraphic" in2="effect1_dropShadow_1_14862" result="shape"/>
<feColorMatrix in="SourceAlpha" type="matrix" values="0 0 0 0 0 0 0 0 0 0 0 0 0 0 0 0 0 0 127 0" result="hardAlpha"/>
<feOffset dy="-0.5"/>
<feComposite in2="hardAlpha" operator="arithmetic" k2="-1" k3="1"/>
<feColorMatrix type="matrix" values="0 0 0 0 0 0 0 0 0 0 0 0 0 0 0 0 0 0 0.25 0"/>
<feBlend mode="normal" in2="shape" result="effect2_innerShadow_1_14862"/>
</filter>
<linearGradient id="paint0_linear_1_14862" x1="2.69531" y1="34.4954" x2="66.3047" y2="34.4954" gradientUnits="userSpaceOnUse">
<stop stop-color="#FF8008"/>
<stop offset="1" stop-color="#FFC837"/>
</linearGradient>
<linearGradient id="paint1_linear_1_14862" x1="45.1393" y1="24.9737" x2="57.867" y2="24.9737" gradientUnits="userSpaceOnUse">
<stop stop-color="#FF8008"/>
<stop offset="1" stop-color="#FFC837"/>
</linearGradient>
</defs>
</svg>
