<svg xmlns="http://www.w3.org/2000/svg" width="46" height="43" viewBox="0 0 46 43" fill="none">
  <path d="M0.858252 0.858449H3.75455C3.74929 2.81214 3.76245 -1.09528 3.74665 0.85841C17.4172 0.85841 31.0904 0.861043 44.7609 0.85841C44.7688 13.5416 44.7583 26.2247 44.7662 38.9079C42.8362 38.9079 46.6962 38.9053 44.7662 38.9079L44.7662 41.8016C42.8362 41.8016 46.6961 41.7989 44.7662 41.8016C44.7609 43.7553 44.7635 39.8479 44.7635 41.8016H41.8014C41.8014 39.8453 41.804 43.7474 41.8014 41.791C28.1467 41.8279 14.4919 41.7673 0.837189 41.8226C0.892482 29.1316 0.834556 16.4405 0.868785 3.75208C-1.08753 3.75471 2.81375 3.75208 0.857434 3.75208L0.858252 0.858449C2.8172 0.866348 -1.0849 0.842611 0.87405 0.874207C0.842454 -1.08475 0.866151 2.8174 0.858252 0.858449ZM3.72822 3.72838C3.76772 15.461 3.77035 27.1963 3.72822 38.9316C16.4272 38.8895 29.1288 38.8895 41.8277 38.9316C41.7856 27.1963 41.7856 15.4637 41.8277 3.73101C29.1288 3.76788 16.4272 3.77051 3.72822 3.72838Z" fill="url(#paint0_linear_1_3952)"/>
  <path d="M12.4777 9.89739C13.702 9.48927 15.0633 9.60249 16.2034 10.2002C17.7174 11.1402 18.71 12.9833 18.323 14.7763C17.9649 17.3198 14.9948 19.0839 12.5988 18.1334C10.1949 17.3777 8.93368 14.3946 10.0527 12.1381C10.603 11.1744 11.4034 10.266 12.4777 9.89739Z" fill="url(#paint1_linear_1_3952)"/>
  <path d="M25.2924 29.4317C27.5884 25.7192 30.0002 22.0778 32.2962 18.3652C34.5263 24.1657 36.6749 30.0005 38.905 35.8036C28.1808 35.8694 17.4513 36.1011 6.72974 35.8141C9.05468 31.8278 11.4744 27.8941 13.7414 23.8735C17.5803 25.7508 21.4429 27.5755 25.2924 29.4317Z" fill="url(#paint2_linear_1_3952)"/>
  <defs>
    <linearGradient id="paint0_linear_1_3952" x1="22.813" y1="0.294434" x2="22.813" y2="42.3656" gradientUnits="userSpaceOnUse">
      <stop stop-color="#E0C07F"/>
      <stop offset="1" stop-color="#947034"/>
    </linearGradient>
    <linearGradient id="paint1_linear_1_3952" x1="14.0237" y1="9.65552" x2="14.0237" y2="18.3945" gradientUnits="userSpaceOnUse">
      <stop stop-color="#E0C07F"/>
      <stop offset="1" stop-color="#947034"/>
    </linearGradient>
    <linearGradient id="paint2_linear_1_3952" x1="22.8174" y1="18.3652" x2="22.8174" y2="35.9544" gradientUnits="userSpaceOnUse">
      <stop stop-color="#E0C07F"/>
      <stop offset="1" stop-color="#947034"/>
    </linearGradient>
  </defs>
</svg>