<svg width="28" height="28" viewBox="0 0 28 28" fill="none" xmlns="http://www.w3.org/2000/svg">
<path opacity="0.4" d="M12.7866 2.40351L6.36994 4.80684C5.14494 5.27351 4.1416 6.72018 4.1416 8.03851V17.4885C4.1416 18.4335 4.75993 19.6818 5.51827 20.2418L11.9349 25.0368C13.0666 25.8885 14.9216 25.8885 16.0533 25.0368L22.4699 20.2418C23.2283 19.6702 23.8466 18.4335 23.8466 17.4885V8.03851C23.8466 6.73184 22.8433 5.27351 21.6183 4.81851L15.2016 2.41518C14.5483 2.15851 13.4516 2.15851 12.7866 2.40351Z" fill="#e1e1e1"/>
<path d="M12.4365 16.6016C12.2148 16.6016 11.9931 16.52 11.8181 16.345L9.93979 14.4666C9.60145 14.1283 9.60145 13.5683 9.93979 13.23C10.2781 12.8916 10.8381 12.8916 11.1765 13.23L12.4365 14.49L16.8348 10.0916C17.1731 9.75331 17.7331 9.75331 18.0715 10.0916C18.4098 10.43 18.4098 10.99 18.0715 11.3283L13.0548 16.345C12.8798 16.52 12.6581 16.6016 12.4365 16.6016Z" fill="#82A9F9"/>
</svg>
