<svg xmlns="http://www.w3.org/2000/svg" width="25" height="26" viewBox="0 0 25 26" fill="none">
  <path d="M0.592004 5.78034L0.592009 5.78034L0.591261 5.77819C0.470295 5.43142 0.468782 4.88078 0.59151 4.51807C0.788956 3.96307 1.34531 3.29029 2.12291 2.76826C3.41267 1.91552 5.4219 1.26726 7.53346 1.06035C7.83493 1.0387 8.16427 1.00682 8.27138 0.996108C8.50377 0.973416 9.15141 0.976878 9.86434 0.997017C10.5587 1.01663 11.2612 1.05025 11.5984 1.0803C13.3766 1.31844 14.8976 1.7881 16.0374 2.40295C17.1888 3.02412 17.8954 3.76165 18.1506 4.5057L18.1506 4.50571L18.1524 4.51098C18.2838 4.88052 18.2826 5.41755 18.1537 5.77201L18.1535 5.77196L18.1498 5.78288C17.931 6.43099 17.3506 7.08944 16.4083 7.67005C15.473 8.24641 14.2238 8.71836 12.7531 9.01147C11.5076 9.25851 10.8837 9.31959 9.37666 9.31959C7.98954 9.31959 7.5834 9.28921 6.47188 9.10395L6.47031 9.1037C4.89703 8.84663 3.53582 8.37371 2.50934 7.77503C1.47383 7.17109 0.829058 6.46995 0.592004 5.78034ZM12.9728 2.74479C12.4055 2.41887 11.62 2.22192 10.6075 2.11108V2.03439V1.53439H10.1075H9.37666H8.6458H8.1458V2.03439V2.12698C7.53736 2.19411 6.92701 2.30315 6.61504 2.4067C5.83869 2.65841 5.19085 3.08942 5.00965 3.70598C4.91196 4.03836 4.96879 4.37499 5.15537 4.66628C5.33303 4.94365 5.61512 5.16247 5.9532 5.33037C6.14343 5.42727 6.32743 5.50406 6.56453 5.57543L6.17308 5.61457C5.8732 5.64137 5.59296 5.67098 5.38404 5.69693C5.28018 5.70983 5.18908 5.72242 5.12045 5.73389C5.08762 5.73937 5.05088 5.74608 5.01755 5.7541C5.0027 5.75768 4.97435 5.76482 4.94268 5.77651C4.92792 5.78195 4.89685 5.79399 4.86099 5.81463C4.86056 5.81488 4.86003 5.81519 4.8594 5.81554C4.84681 5.8227 4.7968 5.85113 4.74449 5.90677C4.63997 6.01712 4.61057 6.14416 4.60483 6.22636C4.59916 6.30743 4.61344 6.37299 4.62331 6.40938C4.64317 6.48257 4.67472 6.54208 4.69394 6.57581C4.73637 6.6503 4.79248 6.72527 4.8459 6.78985C4.95144 6.91744 5.10159 7.07051 5.25609 7.18207C5.62736 7.46249 6.00618 7.62083 6.48861 7.76668L6.48856 7.76683L6.50072 7.77018C6.90392 7.88106 7.62954 8.00591 8.1493 8.04981L8.15661 8.29843L8.17088 8.78373H8.65639H9.38725H10.1181H10.6036L10.6179 8.29843L10.6254 8.04342L10.6591 8.04123L10.6591 8.04124L10.6624 8.041C11.5019 7.98064 12.2252 7.84195 12.7932 7.6219C13.3502 7.40608 13.8285 7.08377 14.0622 6.60831L14.063 6.60673C14.2084 6.30832 14.2589 5.97581 14.1394 5.64471C14.0254 5.32868 13.7836 5.09091 13.505 4.90954L13.5038 4.90875C13.157 4.68433 12.801 4.53783 12.2288 4.40038L12.346 4.38195L12.3489 4.38148C12.6148 4.33806 12.8625 4.29182 13.0497 4.25328C13.1428 4.23411 13.224 4.21621 13.2864 4.20099C13.317 4.19353 13.3479 4.18556 13.3752 4.17746C13.3885 4.17353 13.4064 4.16798 13.4255 4.16098L13.4266 4.16058C13.4365 4.15701 13.4878 4.13848 13.5413 4.10279L13.5825 4.07532L13.6175 4.04032C13.7533 3.90454 13.7841 3.7341 13.7713 3.60577C13.7602 3.49426 13.7178 3.40876 13.6909 3.36178C13.6353 3.26483 13.5584 3.18359 13.4963 3.12493C13.3634 2.99921 13.1795 2.86631 12.9773 2.74737L12.9773 2.74735L12.9728 2.74479ZM7.866 5.8859L7.82808 5.84798C8.25936 5.92315 8.80078 6.00957 9.49989 6.11899C9.758 6.16011 9.96231 6.19585 10.124 6.22813C10.0106 6.24306 9.86786 6.2557 9.70298 6.26292C9.39044 6.27662 9.05788 6.26865 8.80928 6.24061C8.239 6.17281 8.03354 6.05976 7.87261 5.89264L7.87267 5.89257L7.866 5.8859ZM9.48258 3.84781C9.93101 3.84781 10.2774 3.93172 10.5624 4.08916C10.4229 4.06665 10.2762 4.04333 10.1217 4.01902L10.1194 4.01867C9.70082 3.95476 9.38986 3.90457 9.15487 3.86167C9.25501 3.85278 9.36451 3.84781 9.48258 3.84781ZM8.52318 4.02665C8.52254 4.0273 8.52218 4.02761 8.52217 4.0276L8.52318 4.02665Z" stroke="url(#paint0_linear_1_2814)"/>
  <path d="M7.32197 11.037C8.41886 11.1539 9.74116 11.1584 10.9555 11.0627C10.5292 11.462 10.1423 11.8918 9.83886 12.3128L9.83883 12.3128L9.83542 12.3177L9.71307 12.4918L8.93269 12.476C7.84185 12.4448 7.40859 12.4042 6.45886 12.2494L6.45873 12.2493C5.13508 12.0339 3.93735 11.6531 2.96782 11.1677C1.99279 10.6795 1.28038 10.1018 0.884414 9.51087C0.72654 9.27149 0.636136 9.08794 0.581849 8.91126C0.548059 8.80129 0.525294 8.68432 0.512974 8.54648C2.08366 9.86273 4.57248 10.7538 7.32197 11.037Z" stroke="url(#paint1_linear_1_2814)"/>
  <path d="M18.2349 8.65241C18.1916 8.64855 18.1419 8.64474 18.0873 8.6411C18.1457 8.59656 18.2018 8.55291 18.2548 8.5107C18.2501 8.55895 18.2434 8.60636 18.2349 8.65241Z" stroke="url(#paint2_linear_1_2814)"/>
  <path d="M14.5568 19.0913C14.31 19.1557 14.0846 19.2174 13.9174 19.2646C13.8339 19.2881 13.7639 19.3084 13.7125 19.3237C13.6871 19.3313 13.6644 19.3382 13.6462 19.3439C13.6374 19.3468 13.6272 19.3501 13.6172 19.3535C13.6123 19.3552 13.6051 19.3578 13.5969 19.3609L13.5966 19.3611C13.5915 19.363 13.572 19.3705 13.5489 19.382L13.4764 19.4183L13.419 19.4756C13.3018 19.5928 13.2779 19.7283 13.2714 19.7719C13.2627 19.8303 13.2646 19.8806 13.2667 19.9108C13.2712 19.9732 13.2835 20.0341 13.2946 20.081C13.3177 20.1797 13.3543 20.2961 13.3946 20.4113C13.4757 20.6432 13.5895 20.9202 13.6961 21.1332L13.696 21.1332L13.6994 21.1397C14.2047 22.1143 15.0376 22.7285 16.1324 22.9513V23.2504V23.9495V24.4495H16.6324H17.215H17.7975H18.2975V23.9495V23.2504V22.9507L18.3166 22.9468C18.3171 22.9467 18.3176 22.9466 18.3181 22.9465C19.1435 22.7859 19.8361 22.4188 20.3347 21.8533C20.8338 21.2872 21.1086 20.5563 21.1565 19.721C21.2169 18.7282 20.9337 17.8858 20.2729 17.2123L20.2729 17.2123L20.2695 17.2089C19.8278 16.7672 19.176 16.4293 17.9993 15.9735L17.9987 15.9732C17.6285 15.8304 17.3525 15.7194 17.1434 15.6235C16.9309 15.526 16.815 15.4562 16.7494 15.4036C16.6969 15.3615 16.6897 15.3412 16.6866 15.3325C16.6865 15.3322 16.6864 15.3319 16.6863 15.3316C16.6776 15.3075 16.6664 15.2549 16.6664 15.1157C16.6664 14.7914 16.884 14.5671 17.2256 14.5671C17.4221 14.5671 17.5682 14.6165 17.6928 14.7071C17.8247 14.8031 17.9639 14.9685 18.0995 15.2487L18.1032 15.2564L18.1071 15.2638C18.1573 15.3592 18.2023 15.4492 18.2341 15.5153C18.2362 15.5197 18.2383 15.524 18.2402 15.528V15.63L18.3867 15.7764C18.4705 15.8603 18.5614 15.8923 18.6067 15.9049C18.6561 15.9187 18.6973 15.9219 18.7203 15.9229C18.766 15.925 18.8021 15.9202 18.8166 15.9182C18.8495 15.9135 18.8767 15.9064 18.8887 15.9032C18.9172 15.8957 18.9467 15.886 18.971 15.8777C19.0227 15.8601 19.0898 15.8351 19.1658 15.8057C19.3186 15.7465 19.5242 15.6626 19.7497 15.566C20.0764 15.4311 20.3001 15.3339 20.4417 15.2565C20.5081 15.2203 20.5998 15.1658 20.6758 15.0868C20.7709 14.9879 20.8649 14.8227 20.8346 14.6107L20.8327 14.597L20.8299 14.5834C20.8178 14.5229 20.7937 14.4592 20.7823 14.4294C20.7657 14.3858 20.7447 14.3344 20.7211 14.2792C20.674 14.1693 20.612 14.0342 20.5443 13.8987C20.0844 12.9563 19.3109 12.3283 18.3001 12.1056L18.2974 11.9706L18.2975 11.9706L18.2972 11.9619L18.276 11.39L18.2582 10.9085H17.7764H17.1938H16.6112H16.1207L16.1113 11.3988L16.1007 11.9496L16.0978 12.0995C15.8368 12.1595 15.5582 12.271 15.3117 12.3976C15.0418 12.5362 14.767 12.7151 14.5735 12.9085L14.5735 12.9085L14.5698 12.9123C13.9835 13.5111 13.6523 14.2818 13.5915 15.1441L13.5915 15.1441L13.5912 15.1492C13.5306 16.1553 13.8263 17.008 14.5065 17.6901C14.8281 18.0239 15.0469 18.1498 15.5233 18.3825L15.5232 18.3825L15.5312 18.3863C15.864 18.5416 16.3964 18.7588 16.7251 18.8793L16.7251 18.8793L16.7311 18.8815C17.0939 19.0092 17.3992 19.1364 17.6269 19.2503C17.7409 19.3073 17.8293 19.3579 17.8932 19.4002C17.953 19.4398 17.9746 19.4612 17.9758 19.4621L17.9811 19.4682C18.0625 19.5621 18.1022 19.7136 18.0593 19.893C18.0165 20.0719 17.9015 20.227 17.7477 20.3067L17.7477 20.3067L17.7447 20.3082C17.678 20.3434 17.6543 20.3495 17.6212 20.3546C17.5641 20.3635 17.4764 20.3672 17.2679 20.3672C17.0328 20.3672 16.9665 20.3625 16.9217 20.353C16.8879 20.3458 16.8531 20.3337 16.6891 20.2518C16.4319 20.1191 16.2708 19.9282 16.1683 19.5892L16.1647 19.5773L16.1606 19.5657C16.1385 19.5037 16.1175 19.4366 16.1001 19.3779C16.0914 19.3489 16.084 19.3232 16.0776 19.3011L16.0764 19.2971C16.0716 19.2807 16.0642 19.2551 16.0581 19.2368C15.9969 19.053 15.8575 18.9684 15.7901 18.9369C15.7208 18.9045 15.6594 18.8948 15.6304 18.8911C15.5688 18.8832 15.5137 18.8865 15.4842 18.8888C15.4171 18.8941 15.3389 18.9073 15.2597 18.9228C15.0958 18.955 14.8615 19.0111 14.5568 19.0913ZM14.5568 19.0913C14.5566 19.0913 14.5564 19.0914 14.5562 19.0914L14.6835 19.575L14.5573 19.0912C14.5571 19.0912 14.557 19.0912 14.5568 19.0913ZM9.99428 19.0429L9.99422 19.0426C9.8483 18.313 9.84828 17.0559 9.99417 16.3262C10.293 14.8423 10.9668 13.5661 12.0168 12.5155C12.6171 11.9255 13.1984 11.503 13.9186 11.1477C14.7365 10.7489 15.6236 10.4901 16.4975 10.3907C16.6927 10.3691 17.0893 10.3695 17.5215 10.3918C17.9525 10.4141 18.3601 10.4551 18.5747 10.4998L18.5747 10.4998L18.5815 10.5012C21.1887 11.0067 23.2913 12.8597 24.1453 15.382L24.1453 15.382L24.1463 15.385C24.4216 16.1813 24.5002 16.7073 24.5002 17.6896C24.5002 18.6667 24.4124 19.1955 24.145 19.9979C23.2711 22.5686 21.1408 24.4121 18.4483 24.9089L18.4468 24.9092C18.152 24.9645 17.6842 24.996 17.1938 24.996C16.7034 24.996 16.2355 24.9645 15.9407 24.9092L15.9402 24.9091C12.8991 24.3426 10.6003 22.0829 9.99428 19.0429Z" stroke="url(#paint3_linear_1_2814)"/>
  <path d="M0.581849 12.0469C0.54835 11.9379 0.525687 11.822 0.513295 11.6857C2.2024 13.1179 4.86368 14.0034 7.94757 14.2372C8.19826 14.2593 8.50674 14.2764 8.76076 14.2852C8.60625 14.6743 8.45251 15.1487 8.34022 15.5987C6.55562 15.4815 4.94354 15.127 3.64721 14.6045C2.3309 14.0739 1.38433 13.3883 0.884068 12.646C0.726408 12.4069 0.636096 12.2235 0.581849 12.0469Z" stroke="url(#paint4_linear_1_2814)"/>
  <path d="M8.10283 17.4575C8.09541 17.8295 8.11733 18.3093 8.15791 18.7104C6.44085 18.5817 4.89416 18.2337 3.64339 17.729C2.32882 17.1986 1.38456 16.5132 0.884072 15.7705C0.726409 15.5314 0.636097 15.348 0.581849 15.1714C0.547856 15.0608 0.525021 14.9431 0.512753 14.8042C2.23535 16.2375 5.02319 17.1486 8.03954 17.3517L8.03954 17.3517L8.04377 17.3519L8.10468 17.3555L8.10284 17.4572C8.10283 17.4573 8.10283 17.4574 8.10283 17.4575Z" stroke="url(#paint5_linear_1_2814)"/>
  <path d="M8.57217 20.5984C8.68991 20.96 8.90121 21.4517 9.11729 21.8757C9.0369 21.873 8.95327 21.8699 8.86771 21.8665C8.27328 21.8427 7.61941 21.8035 7.32808 21.7691C5.73117 21.5726 4.33952 21.197 3.23286 20.6941C2.1215 20.1891 1.32903 19.5703 0.884452 18.9064C0.726554 18.667 0.63614 18.4835 0.581849 18.3068C0.548421 18.198 0.525783 18.0823 0.513374 17.9464C2.23058 19.3641 5.06135 20.3147 7.95162 20.4663L7.95161 20.4664L7.95996 20.4667C8.16633 20.474 8.39078 20.4924 8.54295 20.5059L8.57081 20.5942L8.5708 20.5942L8.57217 20.5984Z" stroke="url(#paint6_linear_1_2814)"/>
  <path d="M0.856161 21.9813C0.646407 21.6597 0.552963 21.4126 0.524058 21.0748C1.31659 21.7459 2.26364 22.2623 3.48417 22.7129L3.48601 22.7136C5.23418 23.3513 7.69131 23.7304 9.73061 23.6652C9.7311 23.6652 9.73158 23.6651 9.73207 23.6651L10.3159 23.6498L10.6066 23.9474C10.9289 24.2832 11.2776 24.5992 11.6305 24.877C9.35037 25.1668 7.04262 25.0014 5.11329 24.4906C3.06864 23.9494 1.54154 23.0464 0.857826 21.9839L0.857834 21.9839L0.856161 21.9813Z" stroke="url(#paint7_linear_1_2814)"/>
  <defs>
    <linearGradient id="paint0_linear_1_2814" x1="9.37533" y1="0.480469" x2="9.37533" y2="9.81959" gradientUnits="userSpaceOnUse">
      <stop stop-color="#E0C07F"/>
      <stop offset="1" stop-color="#947034"/>
    </linearGradient>
    <linearGradient id="paint1_linear_1_2814" x1="6.31743" y1="7.49976" x2="6.31743" y2="12.9971" gradientUnits="userSpaceOnUse">
      <stop stop-color="#E0C07F"/>
      <stop offset="1" stop-color="#947034"/>
    </linearGradient>
    <linearGradient id="paint2_linear_1_2814" x1="17.6708" y1="7.55103" x2="17.6708" y2="9.1947" gradientUnits="userSpaceOnUse">
      <stop stop-color="#E0C07F"/>
      <stop offset="1" stop-color="#947034"/>
    </linearGradient>
    <linearGradient id="paint3_linear_1_2814" x1="17.1925" y1="9.87476" x2="17.1925" y2="25.496" gradientUnits="userSpaceOnUse">
      <stop stop-color="#E0C07F"/>
      <stop offset="1" stop-color="#947034"/>
    </linearGradient>
    <linearGradient id="paint4_linear_1_2814" x1="4.75781" y1="10.646" x2="4.75781" y2="16.1114" gradientUnits="userSpaceOnUse">
      <stop stop-color="#E0C07F"/>
      <stop offset="1" stop-color="#947034"/>
    </linearGradient>
    <linearGradient id="paint5_linear_1_2814" x1="4.37119" y1="13.7705" x2="4.37119" y2="19.2466" gradientUnits="userSpaceOnUse">
      <stop stop-color="#E0C07F"/>
      <stop offset="1" stop-color="#947034"/>
    </linearGradient>
    <linearGradient id="paint6_linear_1_2814" x1="4.98024" y1="16.8953" x2="4.98024" y2="22.3879" gradientUnits="userSpaceOnUse">
      <stop stop-color="#E0C07F"/>
      <stop offset="1" stop-color="#947034"/>
    </linearGradient>
    <linearGradient id="paint7_linear_1_2814" x1="6.4232" y1="20.0195" x2="6.4232" y2="25.5191" gradientUnits="userSpaceOnUse">
      <stop stop-color="#E0C07F"/>
      <stop offset="1" stop-color="#947034"/>
    </linearGradient>
  </defs>
</svg>