<svg xmlns="http://www.w3.org/2000/svg" width="26" height="26" viewBox="0 0 26 26" fill="none">
  <g filter="url(#filter0_di_1_12685)">
    <path d="M21.3891 24.3852H4.61094C2.62031 24.3852 1.01562 22.7805 1.01562 20.7899V11.0399C1.01562 9.04924 1.93984 7.60706 3.4125 7.60706H21.3891C23.3797 7.60706 24.9844 9.0594 24.9844 11.0399V20.7899C24.9844 22.7805 23.3797 24.3852 21.3891 24.3852ZM22.5875 14.7063H18.9922C18.332 14.7063 17.7937 15.2446 17.7937 15.9149C17.7937 16.5852 18.332 17.1235 18.9922 17.1235H22.5875V14.7063ZM22.5875 19.5914H18.9922C17.0016 19.5914 15.3969 17.9258 15.3969 15.9149C15.3969 13.9141 17.0016 12.4008 18.9922 12.4008H22.5875V11.0703C22.5875 10.4102 22.0492 10.0039 21.3891 10.0039H4.61094C3.95078 10.0039 3.4125 10.4 3.4125 11.0703V20.7696C3.4125 21.4297 3.95078 21.968 4.61094 21.968H21.3891C22.0492 21.968 22.5875 21.4297 22.5875 20.7696V19.5914ZM18.7688 4.57034L10.0648 7.60706H3.4125L20.1906 1.61487L22.5875 7.60706H19.8047L18.7688 4.57034Z" fill="url(#paint0_linear_1_12685)"/>
  </g>
  <defs>
    <filter id="filter0_di_1_12685" x="1.01562" y="1.31487" width="23.9688" height="23.0703" filterUnits="userSpaceOnUse" color-interpolation-filters="sRGB">
      <feFlood flood-opacity="0" result="BackgroundImageFix"/>
      <feColorMatrix in="SourceAlpha" type="matrix" values="0 0 0 0 0 0 0 0 0 0 0 0 0 0 0 0 0 0 127 0" result="hardAlpha"/>
      <feOffset dy="-0.3"/>
      <feComposite in2="hardAlpha" operator="out"/>
      <feColorMatrix type="matrix" values="0 0 0 0 1 0 0 0 0 1 0 0 0 0 1 0 0 0 1 0"/>
      <feBlend mode="normal" in2="BackgroundImageFix" result="effect1_dropShadow_1_12685"/>
      <feBlend mode="normal" in="SourceGraphic" in2="effect1_dropShadow_1_12685" result="shape"/>
      <feColorMatrix in="SourceAlpha" type="matrix" values="0 0 0 0 0 0 0 0 0 0 0 0 0 0 0 0 0 0 127 0" result="hardAlpha"/>
      <feOffset dy="-0.5"/>
      <feComposite in2="hardAlpha" operator="arithmetic" k2="-1" k3="1"/>
      <feColorMatrix type="matrix" values="0 0 0 0 0 0 0 0 0 0 0 0 0 0 0 0 0 0 0.25 0"/>
      <feBlend mode="normal" in2="shape" result="effect2_innerShadow_1_12685"/>
    </filter>
    <linearGradient id="paint0_linear_1_12685" x1="13" y1="1.61487" x2="13" y2="24.3852" gradientUnits="userSpaceOnUse">
      <stop stop-color="#A57C15"/>
      <stop offset="0.255" stop-color="#FFD568"/>
      <stop offset="0.5" stop-color="#FFE9B0"/>
      <stop offset="0.77" stop-color="#FFD874"/>
      <stop offset="1" stop-color="#AE810E"/>
    </linearGradient>
  </defs>
</svg>