<?xml version="1.0" encoding="UTF-8"?>
<!DOCTYPE svg PUBLIC "-//W3C//DTD SVG 1.1//EN" "http://www.w3.org/Graphics/SVG/1.1/DTD/svg11.dtd">
<svg xmlns="http://www.w3.org/2000/svg" version="1.1" width="24px" height="24px"
     style="shape-rendering:geometricPrecision; text-rendering:geometricPrecision; image-rendering:optimizeQuality; fill-rule:evenodd; clip-rule:evenodd">
<g><path style="opacity:0.031" fill="#809fff" d="M 9.5,-0.5 C 9.83333,-0.5 10.1667,-0.5 10.5,-0.5C 10.5,-0.166667 10.5,0.166667 10.5,0.5C 10.1667,0.166667 9.83333,-0.166667 9.5,-0.5 Z"/></g>
<g><path style="opacity:0.008" fill="#8080ff" d="M 19.5,-0.5 C 19.8333,-0.5 20.1667,-0.5 20.5,-0.5C 20.5,-0.166667 20.5,0.166667 20.5,0.5C 20.1667,0.166667 19.8333,-0.166667 19.5,-0.5 Z"/></g>
<g><path style="opacity:0.004" fill="#fefffe" d="M 20.5,0.5 C 21.1667,0.5 21.5,0.833333 21.5,1.5C 21.1667,1.16667 20.8333,0.833333 20.5,0.5 Z"/></g>
<g><path style="opacity:0.004" fill="#74f6ff" d="M 0.5,-0.5 C 0.833333,-0.5 1.16667,-0.5 1.5,-0.5C 1.16667,19.5 0.833333,19.5 0.5,-0.5 Z"/></g>
<g><path style="opacity:0.977" fill="#95c1fe" d="M 7.5,0.5 C 7.8064,3.38544 7.47307,6.0521 6.5,8.5C 6.66331,6.14316 6.49665,3.80982 6,1.5C 4.96558,6.45693 5.46558,11.1236 7.5,15.5C 6.83333,15.5 6.16667,15.5 5.5,15.5C 5.0472,14.5416 4.38053,13.7083 3.5,13C 4.46368,8.93412 4.79701,4.76746 4.5,0.5C 5.5,0.5 6.5,0.5 7.5,0.5 Z"/></g>
<g><path style="opacity:0.463" fill="#82a8f9" d="M 11.5,-0.5 C 13.8333,-0.5 16.1667,-0.5 18.5,-0.5C 18.5,0.166667 18.8333,0.5 19.5,0.5C 19.8333,1.83333 20.1667,3.16667 20.5,4.5C 19.3121,3.3157 18.1455,3.3157 17,4.5C 16.7104,2.95594 16.0437,1.62261 15,0.5C 12.9045,1.71547 13.0712,2.5488 15.5,3C 14.6195,3.7083 13.9528,4.54163 13.5,5.5C 12.2719,4.69354 11.2719,3.69354 10.5,2.5C 10.5,1.83333 10.5,1.16667 10.5,0.5C 11.1667,0.5 11.5,0.166667 11.5,-0.5 Z"/></g>
<g><path style="opacity:0.004" fill="#9165ff" d="M 21.5,1.5 C 22.525,1.89657 22.6917,2.56323 22,3.5C 21.5357,2.90558 21.369,2.23891 21.5,1.5 Z"/></g>
<g><path style="opacity:0.435" fill="#81a9f8" d="M 20.5,4.5 C 20.1667,5.16667 19.8333,5.83333 19.5,6.5C 18.1196,5.29354 16.9529,5.62688 16,7.5C 15.0053,6.93406 14.172,6.26739 13.5,5.5C 13.9528,4.54163 14.6195,3.7083 15.5,3C 13.0712,2.5488 12.9045,1.71547 15,0.5C 16.0437,1.62261 16.7104,2.95594 17,4.5C 18.1455,3.3157 19.3121,3.3157 20.5,4.5 Z"/></g>
<g><path style="opacity:0.271" fill="#82a9fb" d="M 3.5,-0.5 C 4.83333,-0.5 6.16667,-0.5 7.5,-0.5C 7.5,-0.166667 7.5,0.166667 7.5,0.5C 6.5,0.5 5.5,0.5 4.5,0.5C 4.79701,4.76746 4.46368,8.93412 3.5,13C 4.38053,13.7083 5.0472,14.5416 5.5,15.5C 4.5041,15.5858 3.67076,15.2524 3,14.5C 2.22225,9.41575 2.38892,4.41575 3.5,-0.5 Z"/></g>
<g><path style="opacity:0.377" fill="#81a9f8" d="M 10.5,2.5 C 11.2719,3.69354 12.2719,4.69354 13.5,5.5C 14.172,6.26739 15.0053,6.93406 16,7.5C 16.9529,5.62688 18.1196,5.29354 19.5,6.5C 19.5,6.83333 19.5,7.16667 19.5,7.5C 17.0242,9.55156 14.3576,9.88489 11.5,8.5C 11.5,7.83333 11.1667,7.5 10.5,7.5C 9.28006,5.71626 9.28006,4.04959 10.5,2.5 Z"/></g>
<g><path style="opacity:0.004" fill="#cfb1ff" d="M 21.5,6.5 C 21.369,5.76109 21.5357,5.09442 22,4.5C 22.6917,5.43677 22.525,6.10343 21.5,6.5 Z"/></g>
<g><path style="opacity:0.004" fill="#8d6cff" d="M 21.5,6.5 C 21.2893,8.42409 20.6226,8.75742 19.5,7.5C 20.1667,7.16667 20.8333,6.83333 21.5,6.5 Z"/></g>
<g><path style="opacity:0.392" fill="#83abfb" d="M 12.5,10.5 C 15.1492,12.14 17.8159,13.8067 20.5,15.5C 20.5,15.8333 20.5,16.1667 20.5,16.5C 19.8333,18.5 19.1667,20.5 18.5,22.5C 18.8076,20.076 18.4742,17.7427 17.5,15.5C 15.4788,14.1455 13.8121,12.4788 12.5,10.5 Z"/></g>
<g><path style="opacity:0.998" fill="#84abf9" d="M 7.5,0.5 C 7.91738,3.1589 8.91738,5.49224 10.5,7.5C 11.1667,7.5 11.5,7.83333 11.5,8.5C 11.8333,9.16667 12.1667,9.83333 12.5,10.5C 11.0331,9.7084 9.69976,9.7084 8.5,10.5C 9.83333,12.5 11.5,14.1667 13.5,15.5C 13.0431,16.2975 12.3764,16.6309 11.5,16.5C 10.2073,14.7041 8.70733,13.0375 7,11.5C 6.51722,10.552 6.35055,9.55198 6.5,8.5C 7.47307,6.0521 7.8064,3.38544 7.5,0.5 Z"/></g>
<g><path style="opacity:0.992" fill="#9ccafe" d="M 6.5,8.5 C 6.35055,9.55198 6.51722,10.552 7,11.5C 8.70733,13.0375 10.2073,14.7041 11.5,16.5C 12.5063,17.3957 12.5063,18.0623 11.5,18.5C 10.1667,17.5 8.83333,16.5 7.5,15.5C 5.46558,11.1236 4.96558,6.45693 6,1.5C 6.49665,3.80982 6.66331,6.14316 6.5,8.5 Z"/></g>
<g><path style="opacity:0.997" fill="#99c6fe" d="M 12.5,10.5 C 13.8121,12.4788 15.4788,14.1455 17.5,15.5C 18.4742,17.7427 18.8076,20.076 18.5,22.5C 16.5,22.5 14.5,22.5 12.5,22.5C 12.5674,21.0413 12.2341,19.7079 11.5,18.5C 12.5063,18.0623 12.5063,17.3957 11.5,16.5C 12.3764,16.6309 13.0431,16.2975 13.5,15.5C 11.5,14.1667 9.83333,12.5 8.5,10.5C 9.69976,9.7084 11.0331,9.7084 12.5,10.5 Z"/></g>
<g><path style="opacity:0.004" fill="#fefffe" d="M 21.5,15.5 C 20.8333,14.1667 20.8333,14.1667 21.5,15.5 Z"/></g>
<g><path style="opacity:0.004" fill="#8cfffe" d="M 21.5,15.5 C 22.4731,17.9479 22.8064,20.6146 22.5,23.5C 22.1667,23.5 21.8333,23.5 21.5,23.5C 21.5,20.8333 21.5,18.1667 21.5,15.5 Z"/></g>
<g><path style="opacity:0.016" fill="#8daeff" d="M 9.5,20.5 C 9.5,21.5 9.5,22.5 9.5,23.5C 9.16667,23.5 8.83333,23.5 8.5,23.5C 8.58577,22.5041 8.25244,21.6708 7.5,21C 8.09442,20.5357 8.76109,20.369 9.5,20.5 Z"/></g>
<g><path style="opacity:0.991" fill="#82a9f9" d="M 5.5,15.5 C 6.16667,15.5 6.83333,15.5 7.5,15.5C 8.83333,16.5 10.1667,17.5 11.5,18.5C 12.2341,19.7079 12.5674,21.0413 12.5,22.5C 14.5,22.5 16.5,22.5 18.5,22.5C 19.1667,20.5 19.8333,18.5 20.5,16.5C 20.5,18.8333 20.5,21.1667 20.5,23.5C 17.5,23.5 14.5,23.5 11.5,23.5C 11.0679,22.2905 10.4013,21.2905 9.5,20.5C 8.16667,18.8333 6.83333,17.1667 5.5,15.5 Z"/></g>
</svg>
