<svg width="24" height="24" viewBox="0 0 24 24" fill="none" xmlns="http://www.w3.org/2000/svg">
    <circle cx="8" cy="16" r="8" fill="#82A9F9" fill-opacity="0.3"/>
    <path d="M11.9999 20.9587C8.66659 20.9587 5.95825 18.567 5.95825 15.6253V12.542C5.95825 12.2003 6.24159 11.917 6.58325 11.917C6.92492 11.917 7.20825 12.2003 7.20825 12.542C7.20825 14.7253 9.26659 16.3753 11.9999 16.3753C14.7333 16.3753 16.7916 14.7253 16.7916 12.542C16.7916 12.2003 17.0749 11.917 17.4166 11.917C17.7583 11.917 18.0416 12.2003 18.0416 12.542V15.6253C18.0416 18.567 15.3333 20.9587 11.9999 20.9587ZM7.20825 15.717C7.26659 17.9253 9.39159 19.7087 11.9999 19.7087C14.6083 19.7087 16.7333 17.9253 16.7916 15.717C15.7083 16.892 13.9916 17.6253 11.9999 17.6253C10.0083 17.6253 8.29992 16.892 7.20825 15.717Z"
          fill="#82A9F9"/>
    <path d="M11.9999 13.4587C9.69992 13.4587 7.63324 12.4253 6.62491 10.7587C6.19158 10.0503 5.95825 9.22533 5.95825 8.37533C5.95825 6.94199 6.59992 5.59199 7.75826 4.57533C8.89159 3.58366 10.3999 3.04199 11.9999 3.04199C13.5999 3.04199 15.0999 3.58366 16.2416 4.56699C17.3999 5.59199 18.0416 6.94199 18.0416 8.37533C18.0416 9.22533 17.8083 10.042 17.3749 10.7587C16.3666 12.4253 14.2999 13.4587 11.9999 13.4587ZM11.9999 4.29199C10.6999 4.29199 9.48326 4.72533 8.57493 5.52533C7.6916 6.29199 7.20825 7.30866 7.20825 8.37533C7.20825 9.00033 7.37491 9.58366 7.69157 10.1087C8.48324 11.4087 10.1333 12.2087 11.9999 12.2087C13.8666 12.2087 15.5166 11.4003 16.3083 10.1087C16.6333 9.58366 16.7916 9.00033 16.7916 8.37533C16.7916 7.30866 16.3083 6.29199 15.4166 5.50866C14.5083 4.72532 13.2999 4.29199 11.9999 4.29199Z"
          fill="#82A9F9"/>
    <path d="M11.9999 17.6253C8.55825 17.6253 5.95825 15.442 5.95825 12.542V8.37533C5.95825 5.43366 8.66659 3.04199 11.9999 3.04199C13.5999 3.04199 15.0999 3.58366 16.2416 4.56699C17.3999 5.59199 18.0416 6.94199 18.0416 8.37533V12.542C18.0416 15.442 15.4416 17.6253 11.9999 17.6253ZM11.9999 4.29199C9.35825 4.29199 7.20825 6.12533 7.20825 8.37533V12.542C7.20825 14.7253 9.26659 16.3753 11.9999 16.3753C14.7333 16.3753 16.7916 14.7253 16.7916 12.542V8.37533C16.7916 7.30866 16.3083 6.29199 15.4166 5.50866C14.5083 4.72532 13.2999 4.29199 11.9999 4.29199Z"
          fill="#82A9F9"/>
</svg>
