<svg width="18" height="17" viewBox="0 0 18 17" fill="none" xmlns="http://www.w3.org/2000/svg">
<g id="Frame 38">
<g id="Group 3">
<g id="Ellipse 821" opacity="0.68" filter="url(#filter0_f_1_9151)">
<ellipse cx="9.5" cy="12" rx="4.5" ry="1" fill="black"/>
</g>
<circle id="Ellipse 820" cx="7" cy="7" r="6" fill="url(#paint0_radial_1_9151)"/>
<g id="Subtract" style="mix-blend-mode:color-dodge" opacity="0.5" filter="url(#filter1_f_1_9151)">
<path fill-rule="evenodd" clip-rule="evenodd" d="M6.99951 12C5.78534 11.0878 5 9.6356 5 8C5 5.23858 7.23858 3 10 3C10.0002 3 10.0003 3 10.0005 3C9.16474 2.37209 8.12582 2 7 2C4.23858 2 2 4.23858 2 7C2 9.76126 4.23831 11.9997 6.99951 12Z" fill="url(#paint1_radial_1_9151)"/>
</g>
</g>
</g>
<defs>
<filter id="filter0_f_1_9151" x="1.9" y="7.9" width="15.2" height="8.2" filterUnits="userSpaceOnUse" color-interpolation-filters="sRGB">
<feFlood flood-opacity="0" result="BackgroundImageFix"/>
<feBlend mode="normal" in="SourceGraphic" in2="BackgroundImageFix" result="shape"/>
<feGaussianBlur stdDeviation="1.55" result="effect1_foregroundBlur_1_9151"/>
</filter>
<filter id="filter1_f_1_9151" x="0.6" y="0.6" width="10.8005" height="12.8" filterUnits="userSpaceOnUse" color-interpolation-filters="sRGB">
<feFlood flood-opacity="0" result="BackgroundImageFix"/>
<feBlend mode="normal" in="SourceGraphic" in2="BackgroundImageFix" result="shape"/>
<feGaussianBlur stdDeviation="0.7" result="effect1_foregroundBlur_1_9151"/>
</filter>
<radialGradient id="paint0_radial_1_9151" cx="0" cy="0" r="1" gradientUnits="userSpaceOnUse" gradientTransform="translate(3 4) rotate(43.0251) scale(10.2591)">
<stop stop-color="#D9D9D9"/>
<stop offset="0.795" stop-color="#5C5C5C"/>
<stop offset="1" stop-color="#48597C"/>
</radialGradient>
<radialGradient id="paint1_radial_1_9151" cx="0" cy="0" r="1" gradientUnits="userSpaceOnUse" gradientTransform="translate(4 3) rotate(68.1986) scale(5.38516)">
<stop stop-color="white"/>
<stop offset="1" stop-color="#81A8FA"/>
</radialGradient>
</defs>
</svg>
