<svg width="21" height="25" viewBox="0 0 21 25" fill="none" xmlns="http://www.w3.org/2000/svg">
<g id="Frame 30">
<g id="Group 3">
<g id="Ellipse 821" opacity="0.68" filter="url(#filter0_f_1_9144)">
<ellipse cx="12.5" cy="20" rx="4.5" ry="1" fill="black"/>
</g>
<circle id="Ellipse 820" cx="10" cy="15" r="6" fill="url(#paint0_radial_1_9144)"/>
<g id="Subtract" style="mix-blend-mode:color-dodge" opacity="0.8" filter="url(#filter1_f_1_9144)">
<path fill-rule="evenodd" clip-rule="evenodd" d="M9.99951 20C8.78534 19.0878 8 17.6356 8 16C8 13.2386 10.2386 11 13 11C13.0002 11 13.0003 11 13.0005 11C12.1647 10.3721 11.1258 10 10 10C7.23858 10 5 12.2386 5 15C5 17.7613 7.23831 19.9997 9.99951 20Z" fill="url(#paint1_radial_1_9144)"/>
</g>
</g>
</g>
<defs>
<filter id="filter0_f_1_9144" x="4.9" y="15.9" width="15.2" height="8.2" filterUnits="userSpaceOnUse" color-interpolation-filters="sRGB">
<feFlood flood-opacity="0" result="BackgroundImageFix"/>
<feBlend mode="normal" in="SourceGraphic" in2="BackgroundImageFix" result="shape"/>
<feGaussianBlur stdDeviation="1.55" result="effect1_foregroundBlur_1_9144"/>
</filter>
<filter id="filter1_f_1_9144" x="3.6" y="8.6" width="10.8005" height="12.8" filterUnits="userSpaceOnUse" color-interpolation-filters="sRGB">
<feFlood flood-opacity="0" result="BackgroundImageFix"/>
<feBlend mode="normal" in="SourceGraphic" in2="BackgroundImageFix" result="shape"/>
<feGaussianBlur stdDeviation="0.7" result="effect1_foregroundBlur_1_9144"/>
</filter>
<radialGradient id="paint0_radial_1_9144" cx="0" cy="0" r="1" gradientUnits="userSpaceOnUse" gradientTransform="translate(7.6 12.2) rotate(74.7449) scale(9.1214)">
<stop stop-color="#D3A7FF"/>
<stop offset="0.81" stop-color="#3374FF"/>
<stop offset="1" stop-color="#82A8F9"/>
</radialGradient>
<radialGradient id="paint1_radial_1_9144" cx="0" cy="0" r="1" gradientUnits="userSpaceOnUse" gradientTransform="translate(7 11) rotate(68.1986) scale(5.38516)">
<stop stop-color="white"/>
<stop offset="1" stop-color="#81A8FA"/>
</radialGradient>
</defs>
</svg>
