<svg width="29" height="29" viewBox="0 0 29 29" fill="none" xmlns="http://www.w3.org/2000/svg">
<g id="Convenient and Easy Operation" filter="url(#filter0_d_1_9307)">
<rect id="Rectangle 3463976" x="5.6001" width="2" height="25" rx="1" fill="url(#paint0_linear_1_9307)"/>
<rect id="Rectangle 3463978" x="22.2002" width="2" height="25" rx="1" fill="url(#paint1_linear_1_9307)"/>
<rect id="Rectangle 3463977" x="14.2002" width="2" height="25" rx="1" fill="url(#paint2_linear_1_9307)"/>
<g id="Group 1410113572">
<rect id="Rectangle 3463977_2" x="3.6001" y="3" width="6" height="10" rx="2" fill="url(#paint3_linear_1_9307)"/>
<g id="Rectangle 3463978_2" filter="url(#filter1_bii_1_9307)">
<rect x="3.6001" y="3" width="6" height="10" rx="2" fill="url(#paint4_linear_1_9307)" fill-opacity="0.3"/>
</g>
<g id="Rectangle 3463981" style="mix-blend-mode:screen" filter="url(#filter2_f_1_9307)">
<path d="M5.1001 5.5C5.1001 4.67157 5.77167 4 6.6001 4C7.42852 4 8.1001 4.67157 8.1001 5.5V10.5C8.1001 11.3284 7.42852 12 6.6001 12C5.77167 12 5.1001 11.3284 5.1001 10.5V5.5Z" fill="url(#paint5_linear_1_9307)"/>
</g>
<g id="Subtract" filter="url(#filter3_b_1_9307)">
<mask id="path-7-outside-1_1_9307" maskUnits="userSpaceOnUse" x="2" y="1" width="9" height="14" fill="black">
<rect fill="white" x="2" y="1" width="9" height="14"/>
<path fill-rule="evenodd" clip-rule="evenodd" d="M5.4 2C4.07452 2 3 3.07452 3 4.4V11.6C3 12.9255 4.07452 14 5.4 14H7.8C9.12548 14 10.2 12.9255 10.2 11.6V4.4C10.2 3.07452 9.12548 2 7.8 2H5.4ZM5.6001 3C4.49553 3 3.6001 3.89543 3.6001 5V11C3.6001 12.1046 4.49553 13 5.6001 13H7.6001C8.70467 13 9.6001 12.1046 9.6001 11V5C9.6001 3.89543 8.70467 3 7.6001 3H5.6001Z"/>
</mask>
<path fill-rule="evenodd" clip-rule="evenodd" d="M5.4 2C4.07452 2 3 3.07452 3 4.4V11.6C3 12.9255 4.07452 14 5.4 14H7.8C9.12548 14 10.2 12.9255 10.2 11.6V4.4C10.2 3.07452 9.12548 2 7.8 2H5.4ZM5.6001 3C4.49553 3 3.6001 3.89543 3.6001 5V11C3.6001 12.1046 4.49553 13 5.6001 13H7.6001C8.70467 13 9.6001 12.1046 9.6001 11V5C9.6001 3.89543 8.70467 3 7.6001 3H5.6001Z" fill="url(#paint6_linear_1_9307)"/>
<path d="M3.1 4.4C3.1 3.12974 4.12975 2.1 5.4 2.1V1.9C4.01929 1.9 2.9 3.01929 2.9 4.4H3.1ZM3.1 11.6V4.4H2.9V11.6H3.1ZM5.4 13.9C4.12975 13.9 3.1 12.8703 3.1 11.6H2.9C2.9 12.9807 4.01929 14.1 5.4 14.1V13.9ZM7.8 13.9H5.4V14.1H7.8V13.9ZM10.1 11.6C10.1 12.8703 9.07025 13.9 7.8 13.9V14.1C9.18071 14.1 10.3 12.9807 10.3 11.6H10.1ZM10.1 4.4V11.6H10.3V4.4H10.1ZM7.8 2.1C9.07025 2.1 10.1 3.12975 10.1 4.4H10.3C10.3 3.01929 9.18071 1.9 7.8 1.9V2.1ZM5.4 2.1H7.8V1.9H5.4V2.1ZM3.7001 5C3.7001 3.95066 4.55076 3.1 5.6001 3.1V2.9C4.4403 2.9 3.5001 3.8402 3.5001 5H3.7001ZM3.7001 11V5H3.5001V11H3.7001ZM5.6001 12.9C4.55076 12.9 3.7001 12.0493 3.7001 11H3.5001C3.5001 12.1598 4.4403 13.1 5.6001 13.1V12.9ZM7.6001 12.9H5.6001V13.1H7.6001V12.9ZM9.5001 11C9.5001 12.0493 8.64944 12.9 7.6001 12.9V13.1C8.7599 13.1 9.7001 12.1598 9.7001 11H9.5001ZM9.5001 5V11H9.7001V5H9.5001ZM7.6001 3.1C8.64944 3.1 9.5001 3.95066 9.5001 5H9.7001C9.7001 3.8402 8.7599 2.9 7.6001 2.9V3.1ZM5.6001 3.1H7.6001V2.9H5.6001V3.1Z" fill="url(#paint7_linear_1_9307)" mask="url(#path-7-outside-1_1_9307)"/>
</g>
</g>
<g id="Group 1410113574">
<rect id="Rectangle 3463977_3" x="20.2002" y="3" width="6" height="10" rx="2" fill="url(#paint8_linear_1_9307)"/>
<g id="Rectangle 3463978_3" filter="url(#filter4_bii_1_9307)">
<rect x="20.2002" y="3" width="6" height="10" rx="2" fill="url(#paint9_linear_1_9307)" fill-opacity="0.3"/>
</g>
<g id="Rectangle 3463981_2" style="mix-blend-mode:screen" filter="url(#filter5_f_1_9307)">
<path d="M21.7002 5.5C21.7002 4.67157 22.3718 4 23.2002 4C24.0286 4 24.7002 4.67157 24.7002 5.5V10.5C24.7002 11.3284 24.0286 12 23.2002 12C22.3718 12 21.7002 11.3284 21.7002 10.5V5.5Z" fill="url(#paint10_linear_1_9307)"/>
</g>
<g id="Subtract_2" filter="url(#filter6_b_1_9307)">
<mask id="path-12-outside-2_1_9307" maskUnits="userSpaceOnUse" x="18.6001" y="1" width="9" height="14" fill="black">
<rect fill="white" x="18.6001" y="1" width="9" height="14"/>
<path fill-rule="evenodd" clip-rule="evenodd" d="M22.0001 2C20.6746 2 19.6001 3.07452 19.6001 4.4V11.6C19.6001 12.9255 20.6746 14 22.0001 14H24.4001C25.7256 14 26.8001 12.9255 26.8001 11.6V4.4C26.8001 3.07452 25.7256 2 24.4001 2H22.0001ZM22.2002 3C21.0956 3 20.2002 3.89543 20.2002 5V11C20.2002 12.1046 21.0956 13 22.2002 13H24.2002C25.3048 13 26.2002 12.1046 26.2002 11V5C26.2002 3.89543 25.3048 3 24.2002 3H22.2002Z"/>
</mask>
<path fill-rule="evenodd" clip-rule="evenodd" d="M22.0001 2C20.6746 2 19.6001 3.07452 19.6001 4.4V11.6C19.6001 12.9255 20.6746 14 22.0001 14H24.4001C25.7256 14 26.8001 12.9255 26.8001 11.6V4.4C26.8001 3.07452 25.7256 2 24.4001 2H22.0001ZM22.2002 3C21.0956 3 20.2002 3.89543 20.2002 5V11C20.2002 12.1046 21.0956 13 22.2002 13H24.2002C25.3048 13 26.2002 12.1046 26.2002 11V5C26.2002 3.89543 25.3048 3 24.2002 3H22.2002Z" fill="url(#paint11_linear_1_9307)"/>
<path d="M19.7001 4.4C19.7001 3.12974 20.7298 2.1 22.0001 2.1V1.9C20.6194 1.9 19.5001 3.01929 19.5001 4.4H19.7001ZM19.7001 11.6V4.4H19.5001V11.6H19.7001ZM22.0001 13.9C20.7298 13.9 19.7001 12.8703 19.7001 11.6H19.5001C19.5001 12.9807 20.6194 14.1 22.0001 14.1V13.9ZM24.4001 13.9H22.0001V14.1H24.4001V13.9ZM26.7001 11.6C26.7001 12.8703 25.6704 13.9 24.4001 13.9V14.1C25.7808 14.1 26.9001 12.9807 26.9001 11.6H26.7001ZM26.7001 4.4V11.6H26.9001V4.4H26.7001ZM24.4001 2.1C25.6704 2.1 26.7001 3.12975 26.7001 4.4H26.9001C26.9001 3.01929 25.7808 1.9 24.4001 1.9V2.1ZM22.0001 2.1H24.4001V1.9H22.0001V2.1ZM20.3002 5C20.3002 3.95066 21.1509 3.1 22.2002 3.1V2.9C21.0404 2.9 20.1002 3.8402 20.1002 5H20.3002ZM20.3002 11V5H20.1002V11H20.3002ZM22.2002 12.9C21.1509 12.9 20.3002 12.0493 20.3002 11H20.1002C20.1002 12.1598 21.0404 13.1 22.2002 13.1V12.9ZM24.2002 12.9H22.2002V13.1H24.2002V12.9ZM26.1002 11C26.1002 12.0493 25.2495 12.9 24.2002 12.9V13.1C25.36 13.1 26.3002 12.1598 26.3002 11H26.1002ZM26.1002 5V11H26.3002V5H26.1002ZM24.2002 3.1C25.2495 3.1 26.1002 3.95066 26.1002 5H26.3002C26.3002 3.8402 25.36 2.9 24.2002 2.9V3.1ZM22.2002 3.1H24.2002V2.9H22.2002V3.1Z" fill="url(#paint12_linear_1_9307)" mask="url(#path-12-outside-2_1_9307)"/>
</g>
</g>
<g id="Group 1410113573">
<rect id="Rectangle 3463977_4" x="12.2002" y="12" width="6" height="10" rx="2" fill="url(#paint13_linear_1_9307)"/>
<g id="Rectangle 3463978_4" filter="url(#filter7_bii_1_9307)">
<rect x="12.2002" y="12" width="6" height="10" rx="2" fill="url(#paint14_linear_1_9307)" fill-opacity="0.3"/>
</g>
<g id="Rectangle 3463981_3" style="mix-blend-mode:screen" filter="url(#filter8_f_1_9307)">
<path d="M13.7002 14.5C13.7002 13.6716 14.3718 13 15.2002 13C16.0286 13 16.7002 13.6716 16.7002 14.5V19.5C16.7002 20.3284 16.0286 21 15.2002 21C14.3718 21 13.7002 20.3284 13.7002 19.5V14.5Z" fill="url(#paint15_linear_1_9307)"/>
</g>
<g id="Subtract_3" filter="url(#filter9_b_1_9307)">
<mask id="path-17-outside-3_1_9307" maskUnits="userSpaceOnUse" x="10.6001" y="10" width="9" height="14" fill="black">
<rect fill="white" x="10.6001" y="10" width="9" height="14"/>
<path fill-rule="evenodd" clip-rule="evenodd" d="M14.0001 11C12.6746 11 11.6001 12.0745 11.6001 13.4V20.6C11.6001 21.9255 12.6746 23 14.0001 23H16.4001C17.7256 23 18.8001 21.9255 18.8001 20.6V13.4C18.8001 12.0745 17.7256 11 16.4001 11H14.0001ZM14.2002 12C13.0956 12 12.2002 12.8954 12.2002 14V20C12.2002 21.1046 13.0956 22 14.2002 22H16.2002C17.3048 22 18.2002 21.1046 18.2002 20V14C18.2002 12.8954 17.3048 12 16.2002 12H14.2002Z"/>
</mask>
<path fill-rule="evenodd" clip-rule="evenodd" d="M14.0001 11C12.6746 11 11.6001 12.0745 11.6001 13.4V20.6C11.6001 21.9255 12.6746 23 14.0001 23H16.4001C17.7256 23 18.8001 21.9255 18.8001 20.6V13.4C18.8001 12.0745 17.7256 11 16.4001 11H14.0001ZM14.2002 12C13.0956 12 12.2002 12.8954 12.2002 14V20C12.2002 21.1046 13.0956 22 14.2002 22H16.2002C17.3048 22 18.2002 21.1046 18.2002 20V14C18.2002 12.8954 17.3048 12 16.2002 12H14.2002Z" fill="url(#paint16_linear_1_9307)"/>
<path d="M11.7001 13.4C11.7001 12.1297 12.7298 11.1 14.0001 11.1V10.9C12.6194 10.9 11.5001 12.0193 11.5001 13.4H11.7001ZM11.7001 20.6V13.4H11.5001V20.6H11.7001ZM14.0001 22.9C12.7298 22.9 11.7001 21.8703 11.7001 20.6H11.5001C11.5001 21.9807 12.6194 23.1 14.0001 23.1V22.9ZM16.4001 22.9H14.0001V23.1H16.4001V22.9ZM18.7001 20.6C18.7001 21.8703 17.6704 22.9 16.4001 22.9V23.1C17.7808 23.1 18.9001 21.9807 18.9001 20.6H18.7001ZM18.7001 13.4V20.6H18.9001V13.4H18.7001ZM16.4001 11.1C17.6704 11.1 18.7001 12.1297 18.7001 13.4H18.9001C18.9001 12.0193 17.7808 10.9 16.4001 10.9V11.1ZM14.0001 11.1H16.4001V10.9H14.0001V11.1ZM12.3002 14C12.3002 12.9507 13.1509 12.1 14.2002 12.1V11.9C13.0404 11.9 12.1002 12.8402 12.1002 14H12.3002ZM12.3002 20V14H12.1002V20H12.3002ZM14.2002 21.9C13.1509 21.9 12.3002 21.0493 12.3002 20H12.1002C12.1002 21.1598 13.0404 22.1 14.2002 22.1V21.9ZM16.2002 21.9H14.2002V22.1H16.2002V21.9ZM18.1002 20C18.1002 21.0493 17.2495 21.9 16.2002 21.9V22.1C17.36 22.1 18.3002 21.1598 18.3002 20H18.1002ZM18.1002 14V20H18.3002V14H18.1002ZM16.2002 12.1C17.2495 12.1 18.1002 12.9507 18.1002 14H18.3002C18.3002 12.8402 17.36 11.9 16.2002 11.9V12.1ZM14.2002 12.1H16.2002V11.9H14.2002V12.1Z" fill="url(#paint17_linear_1_9307)" mask="url(#path-17-outside-3_1_9307)"/>
</g>
</g>
</g>
<defs>
<filter id="filter0_d_1_9307" x="0.900024" y="0" width="28.0001" height="29" filterUnits="userSpaceOnUse" color-interpolation-filters="sRGB">
<feFlood flood-opacity="0" result="BackgroundImageFix"/>
<feColorMatrix in="SourceAlpha" type="matrix" values="0 0 0 0 0 0 0 0 0 0 0 0 0 0 0 0 0 0 127 0" result="hardAlpha"/>
<feOffset dy="2"/>
<feGaussianBlur stdDeviation="1"/>
<feComposite in2="hardAlpha" operator="out"/>
<feColorMatrix type="matrix" values="0 0 0 0 0 0 0 0 0 0 0 0 0 0 0 0 0 0 0.25 0"/>
<feBlend mode="normal" in2="BackgroundImageFix" result="effect1_dropShadow_1_9307"/>
<feBlend mode="normal" in="SourceGraphic" in2="effect1_dropShadow_1_9307" result="shape"/>
</filter>
<filter id="filter1_bii_1_9307" x="0.600098" y="0" width="12" height="16" filterUnits="userSpaceOnUse" color-interpolation-filters="sRGB">
<feFlood flood-opacity="0" result="BackgroundImageFix"/>
<feGaussianBlur in="BackgroundImageFix" stdDeviation="1.5"/>
<feComposite in2="SourceAlpha" operator="in" result="effect1_backgroundBlur_1_9307"/>
<feBlend mode="normal" in="SourceGraphic" in2="effect1_backgroundBlur_1_9307" result="shape"/>
<feColorMatrix in="SourceAlpha" type="matrix" values="0 0 0 0 0 0 0 0 0 0 0 0 0 0 0 0 0 0 127 0" result="hardAlpha"/>
<feOffset/>
<feGaussianBlur stdDeviation="0.45"/>
<feComposite in2="hardAlpha" operator="arithmetic" k2="-1" k3="1"/>
<feColorMatrix type="matrix" values="0 0 0 0 0 0 0 0 0 0 0 0 0 0 0 0 0 0 0.25 0"/>
<feBlend mode="normal" in2="shape" result="effect2_innerShadow_1_9307"/>
<feColorMatrix in="SourceAlpha" type="matrix" values="0 0 0 0 0 0 0 0 0 0 0 0 0 0 0 0 0 0 127 0" result="hardAlpha"/>
<feOffset dy="0.5"/>
<feGaussianBlur stdDeviation="0.35"/>
<feComposite in2="hardAlpha" operator="arithmetic" k2="-1" k3="1"/>
<feColorMatrix type="matrix" values="0 0 0 0 1 0 0 0 0 1 0 0 0 0 1 0 0 0 0.5 0"/>
<feBlend mode="normal" in2="effect2_innerShadow_1_9307" result="effect3_innerShadow_1_9307"/>
</filter>
<filter id="filter2_f_1_9307" x="4.8001" y="3.7" width="3.6" height="8.6" filterUnits="userSpaceOnUse" color-interpolation-filters="sRGB">
<feFlood flood-opacity="0" result="BackgroundImageFix"/>
<feBlend mode="normal" in="SourceGraphic" in2="BackgroundImageFix" result="shape"/>
<feGaussianBlur stdDeviation="0.15" result="effect1_foregroundBlur_1_9307"/>
</filter>
<filter id="filter3_b_1_9307" x="-0.699976" y="-1.69998" width="14.6" height="19.4" filterUnits="userSpaceOnUse" color-interpolation-filters="sRGB">
<feFlood flood-opacity="0" result="BackgroundImageFix"/>
<feGaussianBlur in="BackgroundImageFix" stdDeviation="1.8"/>
<feComposite in2="SourceAlpha" operator="in" result="effect1_backgroundBlur_1_9307"/>
<feBlend mode="normal" in="SourceGraphic" in2="effect1_backgroundBlur_1_9307" result="shape"/>
</filter>
<filter id="filter4_bii_1_9307" x="17.2002" y="0" width="12" height="16" filterUnits="userSpaceOnUse" color-interpolation-filters="sRGB">
<feFlood flood-opacity="0" result="BackgroundImageFix"/>
<feGaussianBlur in="BackgroundImageFix" stdDeviation="1.5"/>
<feComposite in2="SourceAlpha" operator="in" result="effect1_backgroundBlur_1_9307"/>
<feBlend mode="normal" in="SourceGraphic" in2="effect1_backgroundBlur_1_9307" result="shape"/>
<feColorMatrix in="SourceAlpha" type="matrix" values="0 0 0 0 0 0 0 0 0 0 0 0 0 0 0 0 0 0 127 0" result="hardAlpha"/>
<feOffset/>
<feGaussianBlur stdDeviation="0.45"/>
<feComposite in2="hardAlpha" operator="arithmetic" k2="-1" k3="1"/>
<feColorMatrix type="matrix" values="0 0 0 0 0 0 0 0 0 0 0 0 0 0 0 0 0 0 0.25 0"/>
<feBlend mode="normal" in2="shape" result="effect2_innerShadow_1_9307"/>
<feColorMatrix in="SourceAlpha" type="matrix" values="0 0 0 0 0 0 0 0 0 0 0 0 0 0 0 0 0 0 127 0" result="hardAlpha"/>
<feOffset dy="0.5"/>
<feGaussianBlur stdDeviation="0.35"/>
<feComposite in2="hardAlpha" operator="arithmetic" k2="-1" k3="1"/>
<feColorMatrix type="matrix" values="0 0 0 0 1 0 0 0 0 1 0 0 0 0 1 0 0 0 0.5 0"/>
<feBlend mode="normal" in2="effect2_innerShadow_1_9307" result="effect3_innerShadow_1_9307"/>
</filter>
<filter id="filter5_f_1_9307" x="21.4002" y="3.7" width="3.6" height="8.6" filterUnits="userSpaceOnUse" color-interpolation-filters="sRGB">
<feFlood flood-opacity="0" result="BackgroundImageFix"/>
<feBlend mode="normal" in="SourceGraphic" in2="BackgroundImageFix" result="shape"/>
<feGaussianBlur stdDeviation="0.15" result="effect1_foregroundBlur_1_9307"/>
</filter>
<filter id="filter6_b_1_9307" x="15.9001" y="-1.69998" width="14.6" height="19.4" filterUnits="userSpaceOnUse" color-interpolation-filters="sRGB">
<feFlood flood-opacity="0" result="BackgroundImageFix"/>
<feGaussianBlur in="BackgroundImageFix" stdDeviation="1.8"/>
<feComposite in2="SourceAlpha" operator="in" result="effect1_backgroundBlur_1_9307"/>
<feBlend mode="normal" in="SourceGraphic" in2="effect1_backgroundBlur_1_9307" result="shape"/>
</filter>
<filter id="filter7_bii_1_9307" x="9.2002" y="9" width="12" height="16" filterUnits="userSpaceOnUse" color-interpolation-filters="sRGB">
<feFlood flood-opacity="0" result="BackgroundImageFix"/>
<feGaussianBlur in="BackgroundImageFix" stdDeviation="1.5"/>
<feComposite in2="SourceAlpha" operator="in" result="effect1_backgroundBlur_1_9307"/>
<feBlend mode="normal" in="SourceGraphic" in2="effect1_backgroundBlur_1_9307" result="shape"/>
<feColorMatrix in="SourceAlpha" type="matrix" values="0 0 0 0 0 0 0 0 0 0 0 0 0 0 0 0 0 0 127 0" result="hardAlpha"/>
<feOffset/>
<feGaussianBlur stdDeviation="0.45"/>
<feComposite in2="hardAlpha" operator="arithmetic" k2="-1" k3="1"/>
<feColorMatrix type="matrix" values="0 0 0 0 0 0 0 0 0 0 0 0 0 0 0 0 0 0 0.25 0"/>
<feBlend mode="normal" in2="shape" result="effect2_innerShadow_1_9307"/>
<feColorMatrix in="SourceAlpha" type="matrix" values="0 0 0 0 0 0 0 0 0 0 0 0 0 0 0 0 0 0 127 0" result="hardAlpha"/>
<feOffset dy="0.5"/>
<feGaussianBlur stdDeviation="0.35"/>
<feComposite in2="hardAlpha" operator="arithmetic" k2="-1" k3="1"/>
<feColorMatrix type="matrix" values="0 0 0 0 1 0 0 0 0 1 0 0 0 0 1 0 0 0 0.5 0"/>
<feBlend mode="normal" in2="effect2_innerShadow_1_9307" result="effect3_innerShadow_1_9307"/>
</filter>
<filter id="filter8_f_1_9307" x="13.4002" y="12.7" width="3.6" height="8.6" filterUnits="userSpaceOnUse" color-interpolation-filters="sRGB">
<feFlood flood-opacity="0" result="BackgroundImageFix"/>
<feBlend mode="normal" in="SourceGraphic" in2="BackgroundImageFix" result="shape"/>
<feGaussianBlur stdDeviation="0.15" result="effect1_foregroundBlur_1_9307"/>
</filter>
<filter id="filter9_b_1_9307" x="7.90012" y="7.30002" width="14.6" height="19.4" filterUnits="userSpaceOnUse" color-interpolation-filters="sRGB">
<feFlood flood-opacity="0" result="BackgroundImageFix"/>
<feGaussianBlur in="BackgroundImageFix" stdDeviation="1.8"/>
<feComposite in2="SourceAlpha" operator="in" result="effect1_backgroundBlur_1_9307"/>
<feBlend mode="normal" in="SourceGraphic" in2="effect1_backgroundBlur_1_9307" result="shape"/>
</filter>
<linearGradient id="paint0_linear_1_9307" x1="7.6001" y1="12.5" x2="5.6001" y2="12.5026" gradientUnits="userSpaceOnUse">
<stop stop-color="#FFD691"/>
<stop offset="0.25" stop-color="#EEAA36"/>
<stop offset="0.735" stop-color="#A67117"/>
<stop offset="0.825" stop-color="#DAA345"/>
<stop offset="1" stop-color="#FFD388"/>
</linearGradient>
<linearGradient id="paint1_linear_1_9307" x1="24.2002" y1="12.5" x2="22.2002" y2="12.5026" gradientUnits="userSpaceOnUse">
<stop stop-color="#FFD691"/>
<stop offset="0.25" stop-color="#EEAA36"/>
<stop offset="0.735" stop-color="#A67117"/>
<stop offset="0.825" stop-color="#DAA345"/>
<stop offset="1" stop-color="#FFD388"/>
</linearGradient>
<linearGradient id="paint2_linear_1_9307" x1="16.2002" y1="12.5" x2="14.2002" y2="12.5026" gradientUnits="userSpaceOnUse">
<stop stop-color="#FFD691"/>
<stop offset="0.25" stop-color="#EEAA36"/>
<stop offset="0.735" stop-color="#A67117"/>
<stop offset="0.825" stop-color="#DAA345"/>
<stop offset="1" stop-color="#FFD388"/>
</linearGradient>
<linearGradient id="paint3_linear_1_9307" x1="6.6001" y1="3" x2="6.6001" y2="13.5" gradientUnits="userSpaceOnUse">
<stop stop-color="#0077FF"/>
<stop offset="0.455" stop-color="#14E8FF"/>
<stop offset="0.695" stop-color="#155FFF"/>
<stop offset="1" stop-color="#FF0084"/>
</linearGradient>
<linearGradient id="paint4_linear_1_9307" x1="6.6001" y1="3" x2="6.6001" y2="13" gradientUnits="userSpaceOnUse">
<stop stop-color="#D9D9D9"/>
<stop offset="1" stop-color="#737373"/>
</linearGradient>
<linearGradient id="paint5_linear_1_9307" x1="6.6001" y1="4" x2="6.6001" y2="12" gradientUnits="userSpaceOnUse">
<stop stop-color="white"/>
<stop offset="1" stop-color="#737373" stop-opacity="0"/>
</linearGradient>
<linearGradient id="paint6_linear_1_9307" x1="6.6" y1="2" x2="6.6" y2="14" gradientUnits="userSpaceOnUse">
<stop stop-color="#FFD691"/>
<stop offset="0.25" stop-color="#EEAA36"/>
<stop offset="0.5" stop-color="#A67117"/>
<stop offset="0.75" stop-color="#DAA345"/>
<stop offset="1" stop-color="#FFD388"/>
</linearGradient>
<linearGradient id="paint7_linear_1_9307" x1="6.59998" y1="2" x2="6.59998" y2="14" gradientUnits="userSpaceOnUse">
<stop stop-color="white"/>
<stop offset="1" stop-color="white" stop-opacity="0"/>
</linearGradient>
<linearGradient id="paint8_linear_1_9307" x1="23.2002" y1="3" x2="23.2002" y2="13.5" gradientUnits="userSpaceOnUse">
<stop stop-color="#0077FF"/>
<stop offset="0.455" stop-color="#14E8FF"/>
<stop offset="0.695" stop-color="#155FFF"/>
<stop offset="1" stop-color="#FF0084"/>
</linearGradient>
<linearGradient id="paint9_linear_1_9307" x1="23.2002" y1="3" x2="23.2002" y2="13" gradientUnits="userSpaceOnUse">
<stop stop-color="#D9D9D9"/>
<stop offset="1" stop-color="#737373"/>
</linearGradient>
<linearGradient id="paint10_linear_1_9307" x1="23.2002" y1="4" x2="23.2002" y2="12" gradientUnits="userSpaceOnUse">
<stop stop-color="white"/>
<stop offset="1" stop-color="#737373" stop-opacity="0"/>
</linearGradient>
<linearGradient id="paint11_linear_1_9307" x1="23.2001" y1="2" x2="23.2001" y2="14" gradientUnits="userSpaceOnUse">
<stop stop-color="#FFD691"/>
<stop offset="0.25" stop-color="#EEAA36"/>
<stop offset="0.5" stop-color="#A67117"/>
<stop offset="0.75" stop-color="#DAA345"/>
<stop offset="1" stop-color="#FFD388"/>
</linearGradient>
<linearGradient id="paint12_linear_1_9307" x1="23.2001" y1="2" x2="23.2001" y2="14" gradientUnits="userSpaceOnUse">
<stop stop-color="white"/>
<stop offset="1" stop-color="white" stop-opacity="0"/>
</linearGradient>
<linearGradient id="paint13_linear_1_9307" x1="15.2002" y1="12" x2="15.2002" y2="22.5" gradientUnits="userSpaceOnUse">
<stop stop-color="#0077FF"/>
<stop offset="0.455" stop-color="#14E8FF"/>
<stop offset="0.695" stop-color="#155FFF"/>
<stop offset="1" stop-color="#FF0084"/>
</linearGradient>
<linearGradient id="paint14_linear_1_9307" x1="15.2002" y1="12" x2="15.2002" y2="22" gradientUnits="userSpaceOnUse">
<stop stop-color="#D9D9D9"/>
<stop offset="1" stop-color="#737373"/>
</linearGradient>
<linearGradient id="paint15_linear_1_9307" x1="15.2002" y1="13" x2="15.2002" y2="21" gradientUnits="userSpaceOnUse">
<stop stop-color="white"/>
<stop offset="1" stop-color="#737373" stop-opacity="0"/>
</linearGradient>
<linearGradient id="paint16_linear_1_9307" x1="15.2001" y1="11" x2="15.2001" y2="23" gradientUnits="userSpaceOnUse">
<stop stop-color="#FFD691"/>
<stop offset="0.25" stop-color="#EEAA36"/>
<stop offset="0.5" stop-color="#A67117"/>
<stop offset="0.75" stop-color="#DAA345"/>
<stop offset="1" stop-color="#FFD388"/>
</linearGradient>
<linearGradient id="paint17_linear_1_9307" x1="15.2001" y1="11" x2="15.2001" y2="23" gradientUnits="userSpaceOnUse">
<stop stop-color="white"/>
<stop offset="1" stop-color="white" stop-opacity="0"/>
</linearGradient>
</defs>
</svg>
