<svg xmlns="http://www.w3.org/2000/svg" width="22" height="25" viewBox="0 0 22 25" fill="none">
  <g filter="url(#filter0_d_0_93)">
    <path fill-rule="evenodd" clip-rule="evenodd" d="M5.75 0.75C5.75 0.335786 5.41421 0 5 0C4.58579 0 4.25 0.335786 4.25 0.75V19.25C4.25 19.6642 4.58579 20 5 20C5.41421 20 5.75 19.6642 5.75 19.25V0.75ZM11.75 0.75C11.75 0.335786 11.4142 0 11 0C10.5858 0 10.25 0.335786 10.25 0.75V19.75C10.25 20.1642 10.5858 20.5 11 20.5C11.4142 20.5 11.75 20.1642 11.75 19.75V0.75ZM17.75 0.75C17.75 0.335786 17.4142 0 17 0C16.5858 0 16.25 0.335786 16.25 0.75V19.75C16.25 20.1642 16.5858 20.5 17 20.5C17.4142 20.5 17.75 20.1642 17.75 19.75V0.75Z" fill="url(#paint0_linear_0_93)"/>
    <rect x="3" y="2.75" width="4" height="7" rx="1.5" fill="url(#paint1_linear_0_93)" stroke="url(#paint2_linear_0_93)"/>
    <rect x="9" y="11.75" width="4" height="7" rx="1.5" fill="url(#paint3_linear_0_93)" stroke="url(#paint4_linear_0_93)"/>
    <path d="M15 4.25C15 3.42157 15.6716 2.75 16.5 2.75H17.5C18.3284 2.75 19 3.42157 19 4.25V8.25C19 9.07843 18.3284 9.75 17.5 9.75H16.5C15.6716 9.75 15 9.07843 15 8.25V4.25Z" fill="url(#paint5_linear_0_93)" stroke="url(#paint6_linear_0_93)"/>
  </g>
  <defs>
    <filter id="filter0_d_0_93" x="0.5" y="0" width="21" height="24.5" filterUnits="userSpaceOnUse" color-interpolation-filters="sRGB">
      <feFlood flood-opacity="0" result="BackgroundImageFix"/>
      <feColorMatrix in="SourceAlpha" type="matrix" values="0 0 0 0 0 0 0 0 0 0 0 0 0 0 0 0 0 0 127 0" result="hardAlpha"/>
      <feOffset dy="2"/>
      <feGaussianBlur stdDeviation="1"/>
      <feComposite in2="hardAlpha" operator="out"/>
      <feColorMatrix type="matrix" values="0 0 0 0 0 0 0 0 0 0 0 0 0 0 0 0 0 0 0.25 0"/>
      <feBlend mode="normal" in2="BackgroundImageFix" result="effect1_dropShadow_0_93"/>
      <feBlend mode="normal" in="SourceGraphic" in2="effect1_dropShadow_0_93" result="shape"/>
    </filter>
    <linearGradient id="paint0_linear_0_93" x1="11" y1="0" x2="11" y2="20.5" gradientUnits="userSpaceOnUse">
      <stop stop-color="#EA9921"/>
      <stop offset="1" stop-color="#FFEA55"/>
    </linearGradient>
    <linearGradient id="paint1_linear_0_93" x1="3.82051" y1="1.125" x2="6.64892" y2="1.36858" gradientUnits="userSpaceOnUse">
      <stop stop-color="#D7FFC5"/>
      <stop offset="0.775" stop-color="#72FF62"/>
      <stop offset="1" stop-color="#5CFF4E"/>
    </linearGradient>
    <linearGradient id="paint2_linear_0_93" x1="5" y1="2.75" x2="5" y2="9.75" gradientUnits="userSpaceOnUse">
      <stop stop-color="#EA9921"/>
      <stop offset="1" stop-color="#FFEA55"/>
    </linearGradient>
    <linearGradient id="paint3_linear_0_93" x1="9.82051" y1="10.125" x2="12.6489" y2="10.3686" gradientUnits="userSpaceOnUse">
      <stop stop-color="#D7FFC5"/>
      <stop offset="0.775" stop-color="#72FF62"/>
      <stop offset="1" stop-color="#5CFF4E"/>
    </linearGradient>
    <linearGradient id="paint4_linear_0_93" x1="11" y1="11.75" x2="11" y2="18.75" gradientUnits="userSpaceOnUse">
      <stop stop-color="#EA9921"/>
      <stop offset="1" stop-color="#FFEA55"/>
    </linearGradient>
    <linearGradient id="paint5_linear_0_93" x1="15.8205" y1="1.125" x2="18.6489" y2="1.36858" gradientUnits="userSpaceOnUse">
      <stop stop-color="#D7FFC5"/>
      <stop offset="0.775" stop-color="#72FF62"/>
      <stop offset="1" stop-color="#5CFF4E"/>
    </linearGradient>
    <linearGradient id="paint6_linear_0_93" x1="17" y1="2.75" x2="17" y2="9.75" gradientUnits="userSpaceOnUse">
      <stop stop-color="#EA9921"/>
      <stop offset="1" stop-color="#FFEA55"/>
    </linearGradient>
  </defs>
</svg>