<svg xmlns="http://www.w3.org/2000/svg" width="24" height="23" viewBox="0 0 24 23" fill="none">
  <g filter="url(#filter0_d_0_88)">
    <path d="M14 12.3088C13.6667 12.9755 13 15.8088 11.5 17.3088C11.2141 16.1653 10.2334 14.1333 9.63758 13.2727C9.34764 16.0727 5.09172 17.1061 3 17.2727C3 15.628 4.2 12.4319 7 10.8056C5.68979 9.96795 4.38782 9.47763 3.5 9.27275C4 8.77274 6 7.80882 8.5 7.30882C12.5 -0.691165 18 0.808815 20 1.80881C21.5 8.30882 17 10.6422 14 12.3088Z" fill="url(#paint0_linear_0_88)"/>
    <path d="M9.63758 13.2727C10.2334 14.1333 11.2141 16.1653 11.5 17.3088C13 15.8088 13.6667 12.9755 14 12.3088C17 10.6422 21.5 8.30882 20 1.80881C18 0.808815 12.5 -0.691165 8.5 7.30882C6 7.80882 4 8.77274 3.5 9.27275C4.38782 9.47763 5.68979 9.96795 7 10.8056M9.63758 13.2727C9.34764 16.0727 5.09172 17.1061 3 17.2727C3 15.628 4.2 12.4319 7 10.8056M9.63758 13.2727C8.7572 12.0012 8.12556 11.5252 7 10.8056" stroke="url(#paint1_linear_0_88)" stroke-width="1.5" stroke-linecap="round"/>
    <circle cx="15.5" cy="5.80884" r="1" fill="url(#paint2_linear_0_88)" stroke="url(#paint3_linear_0_88)"/>
  </g>
  <defs>
    <filter id="filter0_d_0_88" x="0.0128174" y="0.249817" width="23.035" height="22.526" filterUnits="userSpaceOnUse" color-interpolation-filters="sRGB">
      <feFlood flood-opacity="0" result="BackgroundImageFix"/>
      <feColorMatrix in="SourceAlpha" type="matrix" values="0 0 0 0 0 0 0 0 0 0 0 0 0 0 0 0 0 0 127 0" result="hardAlpha"/>
      <feOffset dy="2"/>
      <feGaussianBlur stdDeviation="1"/>
      <feComposite in2="hardAlpha" operator="out"/>
      <feColorMatrix type="matrix" values="0 0 0 0 0 0 0 0 0 0 0 0 0 0 0 0 0 0 0.25 0"/>
      <feBlend mode="normal" in2="BackgroundImageFix" result="effect1_dropShadow_0_88"/>
      <feBlend mode="normal" in="SourceGraphic" in2="effect1_dropShadow_0_88" result="shape"/>
    </filter>
    <linearGradient id="paint0_linear_0_88" x1="6.5483" y1="-2.78598" x2="18.5634" y2="-0.865337" gradientUnits="userSpaceOnUse">
      <stop stop-color="#D7FFC5"/>
      <stop offset="0.775" stop-color="#72FF62"/>
      <stop offset="1" stop-color="#5CFF4E"/>
    </linearGradient>
    <linearGradient id="paint1_linear_0_88" x1="11.649" y1="1" x2="11.649" y2="17.3088" gradientUnits="userSpaceOnUse">
      <stop stop-color="#EA9921"/>
      <stop offset="1" stop-color="#FFEA55"/>
    </linearGradient>
    <linearGradient id="paint2_linear_0_88" x1="14.6154" y1="3.61241" x2="16.705" y2="3.92733" gradientUnits="userSpaceOnUse">
      <stop stop-color="#D7FFC5"/>
      <stop offset="0.775" stop-color="#72FF62"/>
      <stop offset="1" stop-color="#5CFF4E"/>
    </linearGradient>
    <linearGradient id="paint3_linear_0_88" x1="15.5" y1="4.30884" x2="15.5" y2="7.30884" gradientUnits="userSpaceOnUse">
      <stop stop-color="#EA9921"/>
      <stop offset="1" stop-color="#FFEA55"/>
    </linearGradient>
  </defs>
</svg>