<svg width="31" height="31" viewBox="0 0 31 31" fill="none" xmlns="http://www.w3.org/2000/svg">
<g id="Stable and Reliable Investment">
<g id="Group 1410113569" filter="url(#filter0_d_1_9295)">
<path id="Vector 3001" d="M18.8366 17.5302C18.4219 18.3819 17.5925 22.0012 15.7265 23.9174C15.3708 22.4566 14.1508 19.8609 13.4095 18.7616C13.0488 22.3384 7.75429 23.6584 5.1521 23.8713C5.1521 21.7702 6.64495 17.6875 10.1283 15.61C8.49831 14.5399 6.8786 13.9136 5.77412 13.6519C6.39615 13.0132 8.88423 11.7818 11.9943 11.1431C16.9705 0.923705 23.8128 2.83982 26.3008 4.11725C28.1669 12.4205 22.5687 15.4012 18.8366 17.5302Z" fill="url(#paint0_linear_1_9295)"/>
<g id="Vector 3002" filter="url(#filter1_bii_1_9295)">
<path d="M18.8366 17.5302C18.4219 18.3819 17.5925 22.0012 15.7265 23.9174C15.3708 22.4566 14.1508 19.8609 13.4095 18.7616C13.0488 22.3384 7.75429 23.6584 5.1521 23.8713C5.1521 21.7702 6.64495 17.6875 10.1283 15.61C8.49831 14.5399 6.8786 13.9136 5.77412 13.6519C6.39615 13.0132 8.88423 11.7818 11.9943 11.1431C16.9705 0.923705 23.8128 2.83982 26.3008 4.11725C28.1669 12.4205 22.5687 15.4012 18.8366 17.5302Z" fill="url(#paint1_linear_1_9295)" fill-opacity="0.3"/>
</g>
<g id="Subtract">
<mask id="path-3-outside-1_1_9295" maskUnits="userSpaceOnUse" x="2" y="0" width="27" height="27" fill="black">
<rect fill="white" x="2" width="27" height="27"/>
<path fill-rule="evenodd" clip-rule="evenodd" d="M18.9574 19.5989C19.1489 19.0319 19.2999 18.5848 19.4214 18.3354C19.5178 18.2804 19.6153 18.2249 19.7137 18.1689C24.1851 15.6236 30.5695 11.9892 28.3785 2.23984C25.3928 0.70693 17.1821 -1.59241 11.2107 10.6709C7.47856 11.4373 4.49286 12.9149 3.74643 13.6814C5.0718 13.9955 7.01546 14.7471 8.97141 16.0312C4.79143 18.5241 3 23.4234 3 25.9447C6.12262 25.6892 11.93 23.9017 13.3824 20.2865C14.2718 21.6056 15.2625 24.2471 15.6892 26C17.3821 24.2617 18.364 21.3553 18.9574 19.5989ZM18.4499 18.5832C18.6095 18.1107 18.7354 17.7381 18.8366 17.5303C18.9169 17.4845 18.9982 17.4382 19.0802 17.3916C22.8063 15.2704 28.1267 12.2418 26.3008 4.11732C23.8128 2.83989 16.9705 0.923775 11.9943 11.1432C8.88424 11.7819 6.39615 13.0132 5.77413 13.652C6.87861 13.9137 8.49832 14.54 10.1283 15.6101C6.64496 17.6876 5.15211 21.7703 5.15211 23.8714C7.75429 23.6585 13.0488 22.3384 13.4095 18.7617C14.1508 19.8609 15.3708 22.4567 15.7265 23.9174C17.1372 22.4689 17.9554 20.0469 18.4499 18.5832Z"/>
</mask>
<g filter="url(#filter2_i_1_9295)">
<path fill-rule="evenodd" clip-rule="evenodd" d="M18.9574 19.5989C19.1489 19.0319 19.2999 18.5848 19.4214 18.3354C19.5178 18.2804 19.6153 18.2249 19.7137 18.1689C24.1851 15.6236 30.5695 11.9892 28.3785 2.23984C25.3928 0.70693 17.1821 -1.59241 11.2107 10.6709C7.47856 11.4373 4.49286 12.9149 3.74643 13.6814C5.0718 13.9955 7.01546 14.7471 8.97141 16.0312C4.79143 18.5241 3 23.4234 3 25.9447C6.12262 25.6892 11.93 23.9017 13.3824 20.2865C14.2718 21.6056 15.2625 24.2471 15.6892 26C17.3821 24.2617 18.364 21.3553 18.9574 19.5989ZM18.4499 18.5832C18.6095 18.1107 18.7354 17.7381 18.8366 17.5303C18.9169 17.4845 18.9982 17.4382 19.0802 17.3916C22.8063 15.2704 28.1267 12.2418 26.3008 4.11732C23.8128 2.83989 16.9705 0.923775 11.9943 11.1432C8.88424 11.7819 6.39615 13.0132 5.77413 13.652C6.87861 13.9137 8.49832 14.54 10.1283 15.6101C6.64496 17.6876 5.15211 21.7703 5.15211 23.8714C7.75429 23.6585 13.0488 22.3384 13.4095 18.7617C14.1508 19.8609 15.3708 22.4567 15.7265 23.9174C17.1372 22.4689 17.9554 20.0469 18.4499 18.5832Z" fill="url(#paint2_linear_1_9295)"/>
</g>
<path d="M8.99885 15.9894C8.97577 15.9742 8.94477 15.9806 8.92962 16.0037C8.91446 16.0268 8.92089 16.0578 8.94397 16.073L8.99885 15.9894ZM9.21455 16.2531C9.23743 16.2685 9.26851 16.2625 9.28397 16.2396C9.29942 16.2167 9.2934 16.1857 9.27052 16.1702L9.21455 16.2531ZM13.1486 19.8631C13.1324 19.8407 13.1012 19.8356 13.0788 19.8517C13.0564 19.8678 13.0512 19.8991 13.0674 19.9215L13.1486 19.8631ZM13.3409 20.3144C13.3563 20.3373 13.3874 20.3434 13.4103 20.3279C13.4332 20.3125 13.4392 20.2814 13.4238 20.2585L13.3409 20.3144ZM10.1557 15.5683C10.1326 15.5531 10.1016 15.5596 10.0865 15.5826C10.0713 15.6057 10.0778 15.6367 10.1008 15.6519L10.1557 15.5683ZM13.3681 18.7896C13.3835 18.8125 13.4146 18.8185 13.4375 18.8031C13.4604 18.7877 13.4664 18.7566 13.451 18.7337L13.3681 18.7896ZM8.94397 16.073C9.03494 16.1327 9.12512 16.1927 9.21455 16.2531L9.27052 16.1702C9.18071 16.1096 9.09017 16.0493 8.99885 15.9894L8.94397 16.073ZM13.0674 19.9215C13.1591 20.049 13.2502 20.1799 13.3409 20.3144L13.4238 20.2585C13.3326 20.1232 13.2408 19.9915 13.1486 19.8631L13.0674 19.9215ZM10.1008 15.6519C11.4976 16.5688 12.2777 17.1725 13.3681 18.7896L13.451 18.7337C12.3509 17.1022 11.5595 16.4898 10.1557 15.5683L10.1008 15.6519ZM19.4214 18.3354L19.3718 18.2486L19.345 18.2639L19.3315 18.2917L19.4214 18.3354ZM18.9574 19.5989L18.8626 19.5669L18.9574 19.5989ZM19.7137 18.1689L19.6642 18.082L19.7137 18.1689ZM28.3785 2.23984L28.4761 2.21792L28.4658 2.17226L28.4242 2.15088L28.3785 2.23984ZM11.2107 10.6709L11.2308 10.7688L11.279 10.7589L11.3006 10.7147L11.2107 10.6709ZM3.74643 13.6814L3.67479 13.6116L3.5517 13.738L3.72337 13.7787L3.74643 13.6814ZM8.97141 16.0312L9.02263 16.117L9.15982 16.0352L9.02629 15.9476L8.97141 16.0312ZM3 25.9447H2.9V26.0532L3.00815 26.0444L3 25.9447ZM13.3824 20.2865L13.4653 20.2306L13.3599 20.0742L13.2896 20.2492L13.3824 20.2865ZM15.6892 26L15.5921 26.0237L15.6348 26.1992L15.7609 26.0698L15.6892 26ZM18.8366 17.5303L18.787 17.4435L18.7602 17.4588L18.7467 17.4865L18.8366 17.5303ZM18.4499 18.5832L18.5446 18.6152L18.4499 18.5832ZM19.0802 17.3916L19.0307 17.3046L19.0802 17.3916ZM26.3008 4.11732L26.3984 4.09539L26.3882 4.04973L26.3465 4.02836L26.3008 4.11732ZM11.9943 11.1432L12.0145 11.2411L12.0627 11.2312L12.0843 11.187L11.9943 11.1432ZM5.77413 13.652L5.70249 13.5822L5.5794 13.7086L5.75107 13.7493L5.77413 13.652ZM10.1283 15.6101L10.1795 15.696L10.3167 15.6141L10.1832 15.5265L10.1283 15.6101ZM5.15211 23.8714H5.05211V23.9799L5.16026 23.971L5.15211 23.8714ZM13.4095 18.7617L13.4925 18.7057L13.3378 18.4764L13.31 18.7516L13.4095 18.7617ZM15.7265 23.9174L15.6293 23.9411L15.6721 24.1167L15.7981 23.9872L15.7265 23.9174ZM19.3315 18.2917C19.2065 18.5483 19.053 19.0035 18.8626 19.5669L19.0521 19.6309C19.2448 19.0604 19.3934 18.6213 19.5113 18.3792L19.3315 18.2917ZM19.6642 18.082C19.5658 18.138 19.4683 18.1935 19.3718 18.2486L19.4709 18.4223C19.5673 18.3673 19.6647 18.3119 19.7631 18.2558L19.6642 18.082ZM28.2809 2.26177C29.3704 7.1096 28.327 10.4247 26.4652 12.8449C24.5983 15.2719 21.9025 16.8079 19.6642 18.082L19.7631 18.2558C21.9962 16.9846 24.7284 15.4308 26.6238 12.9669C28.5243 10.4962 29.5776 7.11949 28.4761 2.21792L28.2809 2.26177ZM11.3006 10.7147C14.2769 4.60233 17.8016 2.13669 20.9377 1.37899C24.0784 0.620161 26.8522 1.56863 28.3328 2.3288L28.4242 2.15088C26.9191 1.37814 24.0946 0.410486 20.8907 1.18458C17.6822 1.9598 14.1159 4.47613 11.1208 10.6271L11.3006 10.7147ZM3.81807 13.7512C3.99516 13.5693 4.31244 13.3387 4.75314 13.0818C5.19216 12.826 5.74823 12.5473 6.39838 12.268C7.69869 11.7096 9.37167 11.1506 11.2308 10.7688L11.1906 10.5729C9.31757 10.9576 7.63164 11.5207 6.31946 12.0843C5.66336 12.366 5.0998 12.6483 4.65244 12.909C4.20676 13.1688 3.87091 13.4103 3.67479 13.6116L3.81807 13.7512ZM9.02629 15.9476C7.06078 14.6572 5.10638 13.9009 3.76949 13.5841L3.72337 13.7787C5.03722 14.09 6.97013 14.837 8.91653 16.1148L9.02629 15.9476ZM3.1 25.9447C3.1 24.7036 3.54222 22.8643 4.50679 21.0237C5.47065 19.1845 6.95195 17.352 9.02263 16.117L8.92019 15.9453C6.81089 17.2033 5.30648 19.0669 4.32964 20.9309C3.3535 22.7935 2.9 24.6646 2.9 25.9447H3.1ZM13.2896 20.2492C12.5777 22.0211 10.7915 23.3576 8.77573 24.2846C6.76305 25.2103 4.542 25.7182 2.99185 25.845L3.00815 26.0444C4.58063 25.9157 6.82455 25.4021 8.8593 24.4663C10.8909 23.532 12.7346 22.1671 13.4751 20.3238L13.2896 20.2492ZM15.7864 25.9763C15.3583 24.2178 14.3641 21.5636 13.4653 20.2306L13.2994 20.3424C14.1796 21.6477 15.1667 24.2764 15.5921 26.0237L15.7864 25.9763ZM18.8626 19.5669C18.5658 20.4455 18.1735 21.6066 17.6446 22.7647C17.1155 23.9236 16.4525 25.0729 15.6176 25.9302L15.7609 26.0698C16.6189 25.1888 17.2932 24.0158 17.8266 22.8478C18.3602 21.6791 18.7555 20.5088 19.0521 19.6309L18.8626 19.5669ZM18.7467 17.4865C18.6419 17.7016 18.5136 18.0823 18.3552 18.5512L18.5446 18.6152C18.7054 18.1392 18.8289 17.7746 18.9265 17.5741L18.7467 17.4865ZM19.0307 17.3046C18.9487 17.3513 18.8674 17.3976 18.787 17.4435L18.8861 17.6172C18.9665 17.5714 19.0476 17.5251 19.1296 17.4785L19.0307 17.3046ZM26.2033 4.13924C27.1102 8.17462 26.2415 10.9321 24.6933 12.9447C23.1398 14.9641 20.8964 16.2426 19.0307 17.3046L19.1296 17.4785C20.9901 16.4194 23.27 15.123 24.8518 13.0667C26.4388 11.0036 27.3174 8.18451 26.3984 4.09539L26.2033 4.13924ZM12.0843 11.187C14.5629 6.09657 17.4968 4.0461 20.1041 3.41614C22.7161 2.78506 25.0234 3.57385 26.2552 4.20628L26.3465 4.02836C25.0902 3.38336 22.7323 2.57538 20.0571 3.22173C17.3773 3.86921 14.4019 5.97038 11.9044 11.0994L12.0843 11.187ZM5.84577 13.7217C5.99176 13.5718 6.25461 13.3805 6.62145 13.1667C6.9866 12.9539 7.44937 12.7219 7.99067 12.4894C9.07327 12.0245 10.4663 11.5591 12.0145 11.2411L11.9742 11.0452C10.4122 11.366 9.00622 11.8356 7.91174 12.3057C7.36451 12.5407 6.89424 12.7762 6.52075 12.9939C6.14893 13.2106 5.86751 13.4127 5.70249 13.5822L5.84577 13.7217ZM10.1832 15.5265C8.54364 14.4501 6.91319 13.8191 5.79719 13.5547L5.75107 13.7493C6.84403 14.0083 8.453 14.6299 10.0734 15.6937L10.1832 15.5265ZM5.25211 23.8714C5.25211 22.8403 5.61968 21.3103 6.42252 19.7783C7.22466 18.2477 8.45715 16.7232 10.1795 15.696L10.0771 15.5242C8.3161 16.5744 7.06049 18.1301 6.24538 19.6855C5.43096 21.2395 5.05211 22.8013 5.05211 23.8714H5.25211ZM13.31 18.7516C13.135 20.487 11.762 21.6889 10.0785 22.4876C8.39832 23.2848 6.43668 23.6659 5.14395 23.7717L5.16026 23.971C6.46973 23.8639 8.45644 23.4786 10.1642 22.6683C11.8688 21.8596 13.3233 20.6131 13.509 18.7717L13.31 18.7516ZM15.8236 23.8938C15.6436 23.1542 15.2466 22.1333 14.8036 21.1625C14.3605 20.1914 13.8675 19.262 13.4925 18.7057L13.3266 18.8176C13.6928 19.3606 14.1805 20.2787 14.6216 21.2455C15.0629 22.2126 15.4537 23.2199 15.6293 23.9411L15.8236 23.8938ZM18.3552 18.5512C18.1078 19.2834 17.7811 20.2502 17.3408 21.2145C16.9002 22.1794 16.3486 23.1353 15.6548 23.8477L15.7981 23.9872C16.515 23.2511 17.078 22.2716 17.5227 21.2975C17.9679 20.3227 18.2975 19.3467 18.5446 18.6152L18.3552 18.5512Z" fill="url(#paint3_linear_1_9295)" mask="url(#path-3-outside-1_1_9295)"/>
</g>
<g id="Ellipse 1295" style="mix-blend-mode:screen" filter="url(#filter3_f_1_9295)">
<ellipse cx="20.54" cy="8.65215" rx="4.06043" ry="2.64832" transform="rotate(-41.8508 20.54 8.65215)" fill="url(#paint4_linear_1_9295)"/>
</g>
<g id="Ellipse 1296" style="mix-blend-mode:screen" filter="url(#filter4_f_1_9295)">
<path d="M11.2645 17.5177C11.8317 18.0849 11.2187 19.6176 9.89521 20.9411C8.57176 22.2645 6.47188 22.3104 6.47188 22.3104C6.47188 22.3104 6.51776 20.2105 7.84121 18.8871C9.16467 17.5636 10.6973 16.9505 11.2645 17.5177Z" fill="url(#paint5_linear_1_9295)"/>
</g>
</g>
</g>
<defs>
<filter id="filter0_d_1_9295" x="0.900024" y="0.899963" width="30.0233" height="29.2993" filterUnits="userSpaceOnUse" color-interpolation-filters="sRGB">
<feFlood flood-opacity="0" result="BackgroundImageFix"/>
<feColorMatrix in="SourceAlpha" type="matrix" values="0 0 0 0 0 0 0 0 0 0 0 0 0 0 0 0 0 0 127 0" result="hardAlpha"/>
<feOffset dy="2"/>
<feGaussianBlur stdDeviation="1"/>
<feComposite in2="hardAlpha" operator="out"/>
<feColorMatrix type="matrix" values="0 0 0 0 0 0 0 0 0 0 0 0 0 0 0 0 0 0 0.25 0"/>
<feBlend mode="normal" in2="BackgroundImageFix" result="effect1_dropShadow_1_9295"/>
<feBlend mode="normal" in="SourceGraphic" in2="effect1_dropShadow_1_9295" result="shape"/>
</filter>
<filter id="filter1_bii_1_9295" x="2.1521" y="0.0840454" width="27.5194" height="26.8333" filterUnits="userSpaceOnUse" color-interpolation-filters="sRGB">
<feFlood flood-opacity="0" result="BackgroundImageFix"/>
<feGaussianBlur in="BackgroundImageFix" stdDeviation="1.5"/>
<feComposite in2="SourceAlpha" operator="in" result="effect1_backgroundBlur_1_9295"/>
<feBlend mode="normal" in="SourceGraphic" in2="effect1_backgroundBlur_1_9295" result="shape"/>
<feColorMatrix in="SourceAlpha" type="matrix" values="0 0 0 0 0 0 0 0 0 0 0 0 0 0 0 0 0 0 127 0" result="hardAlpha"/>
<feOffset dx="-1" dy="1"/>
<feGaussianBlur stdDeviation="1.75"/>
<feComposite in2="hardAlpha" operator="arithmetic" k2="-1" k3="1"/>
<feColorMatrix type="matrix" values="0 0 0 0 0 0 0 0 0 0 0 0 0 0 0 0 0 0 0.35 0"/>
<feBlend mode="normal" in2="shape" result="effect2_innerShadow_1_9295"/>
<feColorMatrix in="SourceAlpha" type="matrix" values="0 0 0 0 0 0 0 0 0 0 0 0 0 0 0 0 0 0 127 0" result="hardAlpha"/>
<feOffset dx="-0.5" dy="0.5"/>
<feGaussianBlur stdDeviation="0.4"/>
<feComposite in2="hardAlpha" operator="arithmetic" k2="-1" k3="1"/>
<feColorMatrix type="matrix" values="0 0 0 0 1 0 0 0 0 1 0 0 0 0 1 0 0 0 0.5 0"/>
<feBlend mode="normal" in2="effect2_innerShadow_1_9295" result="effect3_innerShadow_1_9295"/>
</filter>
<filter id="filter2_i_1_9295" x="2.60002" y="0.799963" width="26.3233" height="25.3993" filterUnits="userSpaceOnUse" color-interpolation-filters="sRGB">
<feFlood flood-opacity="0" result="BackgroundImageFix"/>
<feBlend mode="normal" in="SourceGraphic" in2="BackgroundImageFix" result="shape"/>
<feColorMatrix in="SourceAlpha" type="matrix" values="0 0 0 0 0 0 0 0 0 0 0 0 0 0 0 0 0 0 127 0" result="hardAlpha"/>
<feOffset dx="-0.3" dy="-0.1"/>
<feGaussianBlur stdDeviation="0.15"/>
<feComposite in2="hardAlpha" operator="arithmetic" k2="-1" k3="1"/>
<feColorMatrix type="matrix" values="0 0 0 0 0 0 0 0 0 0 0 0 0 0 0 0 0 0 0.25 0"/>
<feBlend mode="normal" in2="shape" result="effect1_innerShadow_1_9295"/>
</filter>
<filter id="filter3_f_1_9295" x="16.5366" y="4.80072" width="8.00684" height="7.70288" filterUnits="userSpaceOnUse" color-interpolation-filters="sRGB">
<feFlood flood-opacity="0" result="BackgroundImageFix"/>
<feBlend mode="normal" in="SourceGraphic" in2="BackgroundImageFix" result="shape"/>
<feGaussianBlur stdDeviation="0.25" result="effect1_foregroundBlur_1_9295"/>
</filter>
<filter id="filter4_f_1_9295" x="6.07186" y="16.9063" width="5.80415" height="5.80409" filterUnits="userSpaceOnUse" color-interpolation-filters="sRGB">
<feFlood flood-opacity="0" result="BackgroundImageFix"/>
<feBlend mode="normal" in="SourceGraphic" in2="BackgroundImageFix" result="shape"/>
<feGaussianBlur stdDeviation="0.2" result="effect1_foregroundBlur_1_9295"/>
</filter>
<linearGradient id="paint0_linear_1_9295" x1="26.938" y1="3.08405" x2="4.66797" y2="24.3858" gradientUnits="userSpaceOnUse">
<stop stop-color="#006EFF"/>
<stop offset="0.25" stop-color="#0089DD"/>
<stop offset="0.6" stop-color="#00FFB7"/>
<stop offset="0.714996" stop-color="#FF9500"/>
<stop offset="0.866061" stop-color="#FF00EE"/>
<stop offset="1" stop-color="#FF0004"/>
</linearGradient>
<linearGradient id="paint1_linear_1_9295" x1="26.938" y1="3.08405" x2="4.66797" y2="24.3858" gradientUnits="userSpaceOnUse">
<stop stop-color="#D9D9D9"/>
<stop offset="1" stop-color="#737373"/>
</linearGradient>
<linearGradient id="paint2_linear_1_9295" x1="28.3905" y1="2.11574" x2="3.21638" y2="25.8383" gradientUnits="userSpaceOnUse">
<stop stop-color="#FFD691"/>
<stop offset="0.25" stop-color="#EEAA36"/>
<stop offset="0.5" stop-color="#A67117"/>
<stop offset="0.75" stop-color="#DAA345"/>
<stop offset="1" stop-color="#FFD388"/>
</linearGradient>
<linearGradient id="paint3_linear_1_9295" x1="28.8746" y1="2.11574" x2="15.5879" y2="15.0403" gradientUnits="userSpaceOnUse">
<stop stop-color="white"/>
<stop offset="1" stop-color="#999999" stop-opacity="0"/>
</linearGradient>
<linearGradient id="paint4_linear_1_9295" x1="24.8578" y1="8.82209" x2="16.2922" y2="8.89181" gradientUnits="userSpaceOnUse">
<stop stop-color="white"/>
<stop offset="1" stop-color="#737373" stop-opacity="0"/>
</linearGradient>
<linearGradient id="paint5_linear_1_9295" x1="11.2301" y1="17.4595" x2="6.3888" y2="22.3008" gradientUnits="userSpaceOnUse">
<stop stop-color="white"/>
<stop offset="1" stop-color="#999999" stop-opacity="0"/>
</linearGradient>
</defs>
</svg>
