<svg xmlns="http://www.w3.org/2000/svg" width="21" height="24" viewBox="0 0 21 24" fill="none">
  <g filter="url(#filter0_d_0_81)">
    <path d="M3.90932 3.99054L3.18771 4.07843L3.25303 4.80244L3.53524 7.93022C3.85191 11.44 5.50411 14.6943 8.15074 17.0211L9.90479 18.5633L10.3717 18.9737L10.8616 18.5911L12.254 17.5037C15.5737 14.9114 17.522 10.9406 17.541 6.7287L17.55 4.73843L17.553 4.07121L16.8907 3.99054L16.4702 3.93933C14.5612 3.70683 12.7561 2.94197 11.2613 1.73217L10.8718 1.417L10.4 1.03516L9.92818 1.417L9.53874 1.73217C8.04386 2.94197 6.23879 3.70683 4.3298 3.93933L3.90932 3.99054Z" fill="url(#paint0_linear_0_81)" stroke="url(#paint1_linear_0_81)" stroke-width="1.5"/>
    <g filter="url(#filter1_d_0_81)">
      <path fill-rule="evenodd" clip-rule="evenodd" d="M10.8554 8.22211C10.8554 8.37553 10.731 8.49989 10.5776 8.49989C10.4242 8.49989 10.2998 8.37553 10.2998 8.22211C10.2998 8.0687 10.4242 7.94434 10.5776 7.94434C10.731 7.94434 10.8554 8.0687 10.8554 8.22211ZM11.3105 9.84225C11.9267 9.56304 12.3554 8.94264 12.3554 8.22211C12.3554 7.24027 11.5594 6.44434 10.5776 6.44434C9.59574 6.44434 8.7998 7.24027 8.7998 8.22211C8.7998 8.94233 9.22808 9.56251 9.84384 9.84189C9.83291 9.89286 9.82715 9.94576 9.82715 10V12.6667C9.82715 13.0809 10.1629 13.4167 10.5771 13.4167C10.9914 13.4167 11.3271 13.0809 11.3271 12.6667V10C11.3271 9.94589 11.3214 9.89311 11.3105 9.84225Z" fill="url(#paint2_linear_0_81)"/>
    </g>
  </g>
  <defs>
    <filter id="filter0_d_0_81" x="0.375366" y="0.0703125" width="19.9307" height="23.8771" filterUnits="userSpaceOnUse" color-interpolation-filters="sRGB">
      <feFlood flood-opacity="0" result="BackgroundImageFix"/>
      <feColorMatrix in="SourceAlpha" type="matrix" values="0 0 0 0 0 0 0 0 0 0 0 0 0 0 0 0 0 0 127 0" result="hardAlpha"/>
      <feOffset dy="2"/>
      <feGaussianBlur stdDeviation="1"/>
      <feComposite in2="hardAlpha" operator="out"/>
      <feColorMatrix type="matrix" values="0 0 0 0 0 0 0 0 0 0 0 0 0 0 0 0 0 0 0.2 0"/>
      <feBlend mode="normal" in2="BackgroundImageFix" result="effect1_dropShadow_0_81"/>
      <feBlend mode="normal" in="SourceGraphic" in2="effect1_dropShadow_0_81" result="shape"/>
    </filter>
    <filter id="filter1_d_0_81" x="8.7998" y="6.44434" width="3.55554" height="7.17235" filterUnits="userSpaceOnUse" color-interpolation-filters="sRGB">
      <feFlood flood-opacity="0" result="BackgroundImageFix"/>
      <feColorMatrix in="SourceAlpha" type="matrix" values="0 0 0 0 0 0 0 0 0 0 0 0 0 0 0 0 0 0 127 0" result="hardAlpha"/>
      <feOffset dy="0.2"/>
      <feComposite in2="hardAlpha" operator="out"/>
      <feColorMatrix type="matrix" values="0 0 0 0 0 0 0 0 0 0 0 0 0 0 0 0 0 0 0.25 0"/>
      <feBlend mode="normal" in2="BackgroundImageFix" result="effect1_dropShadow_0_81"/>
      <feBlend mode="normal" in="SourceGraphic" in2="effect1_dropShadow_0_81" result="shape"/>
    </filter>
    <linearGradient id="paint0_linear_0_81" x1="6.62564" y1="-1.71429" x2="15.613" y2="-0.630684" gradientUnits="userSpaceOnUse">
      <stop stop-color="#D7FFC5"/>
      <stop offset="0.775" stop-color="#72FF62"/>
      <stop offset="1" stop-color="#5CFF4E"/>
    </linearGradient>
    <linearGradient id="paint1_linear_0_81" x1="10.4" y1="2" x2="10.4" y2="18" gradientUnits="userSpaceOnUse">
      <stop stop-color="#EA9921"/>
      <stop offset="1" stop-color="#FFEA55"/>
    </linearGradient>
    <linearGradient id="paint2_linear_0_81" x1="10.5776" y1="6.44434" x2="10.5776" y2="13.4167" gradientUnits="userSpaceOnUse">
      <stop stop-color="#EA9921"/>
      <stop offset="1" stop-color="#FFEA55"/>
    </linearGradient>
  </defs>
</svg>