<svg xmlns="http://www.w3.org/2000/svg" width="21" height="23" viewBox="0 0 21 23" fill="none">
  <g filter="url(#filter0_d_0_450)">
    <rect x="2" width="17" height="19" rx="2" fill="url(#paint0_linear_0_450)"/>
    <g filter="url(#filter1_d_0_450)">
      <path fill-rule="evenodd" clip-rule="evenodd" d="M17 1H4C3.44772 1 3 1.44772 3 2V17C3 17.5523 3.44772 18 4 18H17C17.5523 18 18 17.5523 18 17V2C18 1.44772 17.5523 1 17 1ZM4 0C2.89543 0 2 0.895431 2 2V17C2 18.1046 2.89543 19 4 19H17C18.1046 19 19 18.1046 19 17V2C19 0.895431 18.1046 0 17 0H4ZM15 3H6C5.44772 3 5 3.44772 5 4V6.5H7C8.38071 6.5 9.5 7.61929 9.5 9C9.5 10.3807 8.38071 11.5 7 11.5H5V15C5 15.5523 5.44772 16 6 16H15C15.5523 16 16 15.5523 16 15V13.5H12C11.7239 13.5 11.5 13.2761 11.5 13C11.5 12.7239 11.7239 12.5 12 12.5H16V6.5H12C11.7239 6.5 11.5 6.27614 11.5 6C11.5 5.72386 11.7239 5.5 12 5.5H16V4C16 3.44772 15.5523 3 15 3ZM5 10.5V7.5H7C7.82843 7.5 8.5 8.17157 8.5 9C8.5 9.82843 7.82843 10.5 7 10.5H5ZM6 2C4.89543 2 4 2.89543 4 4V15C4 16.1046 4.89543 17 6 17H15C16.1046 17 17 16.1046 17 15V4C17 2.89543 16.1046 2 15 2H6ZM7 10C7.55228 10 8 9.55229 8 9C8 8.44771 7.55228 8 7 8C6.44772 8 6 8.44771 6 9C6 9.55229 6.44772 10 7 10Z" fill="url(#paint1_linear_0_450)"/>
    </g>
  </g>
  <defs>
    <filter id="filter0_d_0_450" x="0" y="0" width="21" height="23" filterUnits="userSpaceOnUse" color-interpolation-filters="sRGB">
      <feFlood flood-opacity="0" result="BackgroundImageFix"/>
      <feColorMatrix in="SourceAlpha" type="matrix" values="0 0 0 0 0 0 0 0 0 0 0 0 0 0 0 0 0 0 127 0" result="hardAlpha"/>
      <feOffset dy="2"/>
      <feGaussianBlur stdDeviation="1"/>
      <feComposite in2="hardAlpha" operator="out"/>
      <feColorMatrix type="matrix" values="0 0 0 0 0 0 0 0 0 0 0 0 0 0 0 0 0 0 0.25 0"/>
      <feBlend mode="normal" in2="BackgroundImageFix" result="effect1_dropShadow_0_450"/>
      <feBlend mode="normal" in="SourceGraphic" in2="effect1_dropShadow_0_450" result="shape"/>
    </filter>
    <filter id="filter1_d_0_450" x="2" y="0" width="17" height="19.2" filterUnits="userSpaceOnUse" color-interpolation-filters="sRGB">
      <feFlood flood-opacity="0" result="BackgroundImageFix"/>
      <feColorMatrix in="SourceAlpha" type="matrix" values="0 0 0 0 0 0 0 0 0 0 0 0 0 0 0 0 0 0 127 0" result="hardAlpha"/>
      <feOffset dy="0.2"/>
      <feComposite in2="hardAlpha" operator="out"/>
      <feColorMatrix type="matrix" values="0 0 0 0 0 0 0 0 0 0 0 0 0 0 0 0 0 0 0.25 0"/>
      <feBlend mode="normal" in2="BackgroundImageFix" result="effect1_dropShadow_0_450"/>
      <feBlend mode="normal" in="SourceGraphic" in2="effect1_dropShadow_0_450" result="shape"/>
    </filter>
    <linearGradient id="paint0_linear_0_450" x1="5.48718" y1="-4.41071" x2="17.3808" y2="-2.80689" gradientUnits="userSpaceOnUse">
      <stop stop-color="#D7FFC5"/>
      <stop offset="0.775" stop-color="#72FF62"/>
      <stop offset="1" stop-color="#5CFF4E"/>
    </linearGradient>
    <linearGradient id="paint1_linear_0_450" x1="10.5" y1="0" x2="10.5" y2="19" gradientUnits="userSpaceOnUse">
      <stop stop-color="#EA9921"/>
      <stop offset="1" stop-color="#FFEA55"/>
    </linearGradient>
  </defs>
</svg>
