<svg width="66" height="66" viewBox="0 0 66 66" fill="none" xmlns="http://www.w3.org/2000/svg">
<g filter="url(#filter0_d_2023_6093)">
<circle cx="33" cy="33" r="27" fill="#82A9F9" fill-opacity="0.28" shape-rendering="crispEdges"/>
</g>
<circle cx="33.3" cy="33.2998" r="24.3" fill="#82A9F9"/>
<path fill-rule="evenodd" clip-rule="evenodd" d="M37 23V20.0148C37.441 20.0687 37.8541 20.2684 38.1716 20.5858L41.4142 23.8284C41.7316 24.1459 41.9313 24.559 41.9852 25H39C37.8954 25 37 24.1046 37 23ZM29 18C25.134 18 22 21.134 22 25V37C22 40.866 25.134 44 29 44H36.8027C36.2922 43.1175 36 42.0929 36 41C36 37.6863 38.6863 35 42 35C42.7013 35 43.3744 35.1203 44 35.3414V25.2426C44 24.1818 43.5786 23.1644 42.8284 22.4142L39.5858 19.1716C38.8356 18.4214 37.8182 18 36.7574 18H29ZM26 33C26 32.4477 26.4477 32 27 32H38.5C39.0523 32 39.5 32.4477 39.5 33C39.5 33.5523 39.0523 34 38.5 34H27C26.4477 34 26 33.5523 26 33ZM27 28C26.4477 28 26 28.4477 26 29C26 29.5523 26.4477 30 27 30H33C33.5523 30 34 29.5523 34 29C34 28.4477 33.5523 28 33 28H27Z" fill="white"/>
<path fill-rule="evenodd" clip-rule="evenodd" d="M47 41C47 43.7614 44.7614 46 42 46C39.2386 46 37 43.7614 37 41C37 38.2386 39.2386 36 42 36C44.7614 36 47 38.2386 47 41ZM42.0073 37.0119V37.0159C42.0074 37.0165 42.0075 37.017 42.0076 37.0176C42.2473 37.3833 42.4869 37.7487 42.7265 38.114C43.3642 39.0864 44.0013 40.0578 44.6361 41.0313C44.6372 41.0329 44.6385 41.0346 44.6398 41.0364C44.6472 41.0463 44.656 41.0582 44.6605 41.0703C44.6607 41.0704 44.6609 41.0705 44.6611 41.0706L44.6655 41.0746L44.0298 41.4204L42.032 42.5056C42.0233 42.5096 42.0147 42.5136 42.0104 42.5175C41.9974 42.5175 41.9974 42.5056 41.9974 42.5016V42.4959L41.9972 42.4983C41.9964 42.507 41.9956 42.5151 42.0021 42.5211C41.9945 42.5315 41.987 42.5237 41.9823 42.5189L41.9804 42.5171L41.9804 42.5171L41.9804 42.5171L41.9804 42.5171C41.9415 42.4972 41.9026 42.4773 41.8637 42.4535C41.4463 42.2269 41.0279 41.9993 40.6095 41.7717L40.6091 41.7715C40.1909 41.544 39.7727 41.3165 39.3556 41.0901C39.3513 41.0861 39.3426 41.0821 39.334 41.0781L39.334 41.0781V41.0742L39.3404 41.0716L39.3392 41.0704L39.4559 40.8915C39.5683 40.7208 39.6795 40.551 39.7908 40.3813L39.7909 40.3811L39.7909 40.381L39.7911 40.3807C39.9024 40.2108 40.0138 40.0409 40.1262 39.87C40.2451 39.6871 40.3651 39.5043 40.4851 39.3214C40.6051 39.1385 40.7251 38.9557 40.844 38.7729C40.9542 38.6041 41.0654 38.4354 41.1766 38.2666L41.1767 38.2665L41.1768 38.2664L41.1769 38.2663L41.1769 38.2662L41.177 38.266C41.2884 38.0971 41.3997 37.9282 41.51 37.7592C41.59 37.636 41.6711 37.5128 41.7521 37.3896C41.8332 37.2663 41.9143 37.1431 41.9943 37.0199L41.9977 37.0142C42.0006 37.0095 42.0029 37.0058 42.0029 37H42.0073C42.0044 37.0027 42.0053 37.0053 42.0063 37.008C42.0068 37.0093 42.0073 37.0106 42.0073 37.0119ZM42.0008 39.9725C41.999 39.9786 41.9981 39.9856 41.9977 39.9925V39.9713C41.9987 39.9717 41.9998 39.9721 42.0008 39.9725ZM41.9977 39.9687C42.0005 39.9678 42.0019 39.9672 42.0026 39.9668L41.9977 39.9687ZM41.9977 39.9687V39.9677C41.9994 39.9666 42.0011 39.9654 42.0026 39.964M42.0073 44.9859C42.0073 44.9879 42.0062 44.9899 42.0051 44.9919C42.004 44.9938 42.0029 44.9958 42.0029 44.9978H41.9986C41.9986 44.993 41.9954 44.9896 41.992 44.986C41.9897 44.9836 41.9873 44.9811 41.9856 44.9779C41.8517 44.8052 41.7178 44.6314 41.5838 44.4577L41.5835 44.4572C41.4494 44.2833 41.3154 44.1094 41.1813 43.9365C41.0452 43.7598 40.9081 43.582 40.7709 43.4043L40.7706 43.4039L40.7704 43.4037C40.6332 43.2259 40.4959 43.048 40.3597 42.8712C40.2278 42.7003 40.0949 42.5284 39.9619 42.3564C39.8289 42.1845 39.696 42.0126 39.5641 41.8417C39.5295 41.7959 39.4949 41.7512 39.4603 41.7065L39.4602 41.7065C39.4257 41.6618 39.3911 41.617 39.3565 41.5714C39.3538 41.5664 39.3511 41.563 39.3475 41.5584C39.3452 41.5555 39.3425 41.5521 39.3392 41.5475C39.3522 41.5475 39.3608 41.5555 39.3651 41.5594C39.5531 41.6607 39.74 41.762 39.9268 41.8633L39.9273 41.8635L39.9277 41.8638C40.1146 41.965 40.3015 42.0663 40.4894 42.1676C40.7057 42.2849 40.9208 42.4021 41.1359 42.5194L41.1362 42.5195C41.3512 42.6368 41.5663 42.754 41.7824 42.8712L42.0017 42.9898V42.9865C42.0924 42.9368 42.1821 42.8882 42.2717 42.8396L42.272 42.8394L42.2723 42.8392C42.3619 42.7906 42.4516 42.7419 42.5423 42.6923C42.8127 42.545 43.0832 42.3982 43.3534 42.2516C43.7831 42.0185 44.2121 41.7857 44.6395 41.5515C44.6439 41.5555 44.6482 41.5515 44.6525 41.5475H44.6568C44.6568 41.5528 44.653 41.5581 44.6491 41.5634C44.6472 41.5661 44.6453 41.5687 44.6439 41.5714C44.2463 42.0858 43.8487 42.6012 43.4511 43.1167L43.4504 43.1176C43.0525 43.6334 42.6547 44.1492 42.2569 44.6639C42.2158 44.7176 42.1736 44.7712 42.1315 44.8249C42.0899 44.8778 42.0484 44.9307 42.0079 44.9835L42.0073 44.9859Z" fill="#FBFBFB"/>
<defs>
<filter id="filter0_d_2023_6093" x="0" y="0" width="66" height="66" filterUnits="userSpaceOnUse" color-interpolation-filters="sRGB">
<feFlood flood-opacity="0" result="BackgroundImageFix"/>
<feColorMatrix in="SourceAlpha" type="matrix" values="0 0 0 0 0 0 0 0 0 0 0 0 0 0 0 0 0 0 127 0" result="hardAlpha"/>
<feOffset/>
<feGaussianBlur stdDeviation="3"/>
<feComposite in2="hardAlpha" operator="out"/>
<feColorMatrix type="matrix" values="0 0 0 0 0 0 0 0 0 0 0 0 0 0 0 0 0 0 0.1 0"/>
<feBlend mode="normal" in2="BackgroundImageFix" result="effect1_dropShadow_2023_6093"/>
<feBlend mode="normal" in="SourceGraphic" in2="effect1_dropShadow_2023_6093" result="shape"/>
</filter>
</defs>
</svg>
