<svg width="13" height="8" viewBox="0 0 13 8" fill="none" xmlns="http://www.w3.org/2000/svg">
<path id="Vector 15" d="M5 3.5L5.31235 3.10957L4.98563 2.84819L4.67075 3.12371L5 3.5ZM7.5 5.5L7.18765 5.89043L7.53711 6.17L7.85355 5.85355L7.5 5.5ZM12.5 1C12.5 0.723858 12.2761 0.5 12 0.5H7.5C7.22386 0.5 7 0.723858 7 1C7 1.27614 7.22386 1.5 7.5 1.5H11.5V5.5C11.5 5.77614 11.7239 6 12 6C12.2761 6 12.5 5.77614 12.5 5.5V1ZM1.32925 7.37629L5.32925 3.87629L4.67075 3.12371L0.670748 6.62371L1.32925 7.37629ZM4.68765 3.89043L7.18765 5.89043L7.81235 5.10957L5.31235 3.10957L4.68765 3.89043ZM7.85355 5.85355L12.3536 1.35355L11.6464 0.646447L7.14645 5.14645L7.85355 5.85355Z" fill="#E9E9E9"/>
</svg>
